%TF.GenerationSoftware,KiCad,Pcbnew,8.0.0*%
%TF.CreationDate,2025-02-07T12:17:38-03:30*%
%TF.ProjectId,Detection_Eval,44657465-6374-4696-9f6e-5f4576616c2e,rev?*%
%TF.SameCoordinates,Original*%
%TF.FileFunction,Soldermask,Top*%
%TF.FilePolarity,Negative*%
%FSLAX46Y46*%
G04 Gerber Fmt 4.6, Leading zero omitted, Abs format (unit mm)*
G04 Created by KiCad (PCBNEW 8.0.0) date 2025-02-07 12:17:38*
%MOMM*%
%LPD*%
G01*
G04 APERTURE LIST*
G04 Aperture macros list*
%AMRoundRect*
0 Rectangle with rounded corners*
0 $1 Rounding radius*
0 $2 $3 $4 $5 $6 $7 $8 $9 X,Y pos of 4 corners*
0 Add a 4 corners polygon primitive as box body*
4,1,4,$2,$3,$4,$5,$6,$7,$8,$9,$2,$3,0*
0 Add four circle primitives for the rounded corners*
1,1,$1+$1,$2,$3*
1,1,$1+$1,$4,$5*
1,1,$1+$1,$6,$7*
1,1,$1+$1,$8,$9*
0 Add four rect primitives between the rounded corners*
20,1,$1+$1,$2,$3,$4,$5,0*
20,1,$1+$1,$4,$5,$6,$7,0*
20,1,$1+$1,$6,$7,$8,$9,0*
20,1,$1+$1,$8,$9,$2,$3,0*%
G04 Aperture macros list end*
%ADD10O,1.700000X1.700000*%
%ADD11R,1.700000X1.700000*%
%ADD12RoundRect,0.135000X0.135000X0.185000X-0.135000X0.185000X-0.135000X-0.185000X0.135000X-0.185000X0*%
%ADD13RoundRect,0.225000X0.225000X0.250000X-0.225000X0.250000X-0.225000X-0.250000X0.225000X-0.250000X0*%
%ADD14RoundRect,0.100000X-0.100000X0.217500X-0.100000X-0.217500X0.100000X-0.217500X0.100000X0.217500X0*%
%ADD15C,0.854000*%
%ADD16O,1.104000X1.904000*%
%ADD17O,1.104000X2.604000*%
%ADD18C,1.498600*%
%ADD19C,1.803400*%
%ADD20C,1.964000*%
%ADD21RoundRect,0.200000X-0.275000X0.200000X-0.275000X-0.200000X0.275000X-0.200000X0.275000X0.200000X0*%
%ADD22RoundRect,0.135000X0.185000X-0.135000X0.185000X0.135000X-0.185000X0.135000X-0.185000X-0.135000X0*%
%ADD23R,2.100000X1.900000*%
%ADD24O,2.100000X1.900000*%
%ADD25O,3.204000X1.704000*%
G04 APERTURE END LIST*
D10*
%TO.C,U5*%
X96300000Y-124010000D03*
X96300000Y-121470000D03*
X96300000Y-118930000D03*
X96300000Y-116390000D03*
X96300000Y-113850000D03*
X96300000Y-111310000D03*
X96300000Y-108770000D03*
D11*
X96300000Y-106230000D03*
%TD*%
D12*
%TO.C,R2*%
X143160000Y-111400000D03*
X142140000Y-111400000D03*
%TD*%
D13*
%TO.C,C4*%
X143375000Y-114000000D03*
X141825000Y-114000000D03*
%TD*%
D12*
%TO.C,R4*%
X143350000Y-112650000D03*
X142330000Y-112650000D03*
%TD*%
D14*
%TO.C,D1*%
X128400000Y-132622500D03*
X128400000Y-133437500D03*
%TD*%
D15*
%TO.C,J1*%
X135560000Y-136840000D03*
X136410000Y-136840000D03*
X137260000Y-136840000D03*
X138110000Y-136840000D03*
X138960000Y-136840000D03*
X139810000Y-136840000D03*
X140660000Y-136840000D03*
X141510000Y-136840000D03*
X141510000Y-138190000D03*
X140660000Y-138190000D03*
X139810000Y-138190000D03*
X138960000Y-138190000D03*
X138110000Y-138190000D03*
X137260000Y-138190000D03*
X136410000Y-138190000D03*
X135560000Y-138190000D03*
D16*
X134210000Y-141200000D03*
X142860000Y-141200000D03*
D17*
X134210000Y-137820000D03*
X142860000Y-137820000D03*
%TD*%
D18*
%TO.C,U9*%
X102109999Y-139200000D03*
X106610000Y-139200000D03*
D19*
X100854999Y-136709701D03*
X107865000Y-136709701D03*
%TD*%
D13*
%TO.C,C5*%
X143375000Y-115700000D03*
X141825000Y-115700000D03*
%TD*%
D20*
%TO.C,BT2*%
X91500000Y-93700000D03*
X137370000Y-93700000D03*
%TD*%
D18*
%TO.C,U2*%
X92471749Y-139166699D03*
X96971750Y-139166699D03*
D19*
X91216749Y-136676400D03*
X98226750Y-136676400D03*
%TD*%
D11*
%TO.C,U4*%
X122335000Y-138325000D03*
D10*
X119795000Y-138325000D03*
X117255000Y-138325000D03*
%TD*%
D21*
%TO.C,R12*%
X142050000Y-104500000D03*
X142050000Y-106150000D03*
%TD*%
D22*
%TO.C,R11*%
X143400000Y-106200000D03*
X143400000Y-105180000D03*
%TD*%
D23*
%TO.C,U6*%
X122500000Y-102340000D03*
D24*
X122500000Y-104880000D03*
X122500000Y-107420000D03*
X122500000Y-109960000D03*
X122500000Y-112500000D03*
X122500000Y-115040000D03*
X122500000Y-117580000D03*
X122500000Y-120120000D03*
X122500000Y-122660000D03*
X122500000Y-125200000D03*
X102180000Y-125200000D03*
X102180000Y-122660000D03*
X102180000Y-120120000D03*
X102180000Y-117580000D03*
X102180000Y-115040000D03*
X102180000Y-112500000D03*
X102180000Y-109960000D03*
X102180000Y-107420000D03*
X102180000Y-104880000D03*
X102180000Y-102340000D03*
%TD*%
D25*
%TO.C,U3*%
X129018400Y-109387400D03*
X129018400Y-111927400D03*
X129018400Y-114467400D03*
X129018400Y-117007400D03*
X129018400Y-119547400D03*
X129018400Y-122087400D03*
X129018400Y-124627400D03*
X129018400Y-127167400D03*
%TD*%
M02*
