%TF.GenerationSoftware,KiCad,Pcbnew,8.0.0*%
%TF.CreationDate,2025-02-07T12:17:38-03:30*%
%TF.ProjectId,Detection_Eval,44657465-6374-4696-9f6e-5f4576616c2e,rev?*%
%TF.SameCoordinates,Original*%
%TF.FileFunction,Legend,Bot*%
%TF.FilePolarity,Positive*%
%FSLAX46Y46*%
G04 Gerber Fmt 4.6, Leading zero omitted, Abs format (unit mm)*
G04 Created by KiCad (PCBNEW 8.0.0) date 2025-02-07 12:17:38*
%MOMM*%
%LPD*%
G01*
G04 APERTURE LIST*
%ADD10C,0.254000*%
%ADD11C,0.150000*%
%ADD12C,0.098425*%
%ADD13C,0.200000*%
%ADD14C,0.120000*%
%ADD15C,0.152400*%
%ADD16C,0.250000*%
%ADD17C,0.304800*%
%ADD18C,0.406400*%
%ADD19C,0.127000*%
G04 APERTURE END LIST*
D10*
X138645270Y-97651847D02*
X138584794Y-97530895D01*
X138584794Y-97530895D02*
X138463842Y-97409942D01*
X138463842Y-97409942D02*
X138282413Y-97228514D01*
X138282413Y-97228514D02*
X138221937Y-97107561D01*
X138221937Y-97107561D02*
X138221937Y-96986609D01*
X138524318Y-97047085D02*
X138463842Y-96926133D01*
X138463842Y-96926133D02*
X138342889Y-96805180D01*
X138342889Y-96805180D02*
X138100984Y-96744704D01*
X138100984Y-96744704D02*
X137677651Y-96744704D01*
X137677651Y-96744704D02*
X137435746Y-96805180D01*
X137435746Y-96805180D02*
X137314794Y-96926133D01*
X137314794Y-96926133D02*
X137254318Y-97047085D01*
X137254318Y-97047085D02*
X137254318Y-97288990D01*
X137254318Y-97288990D02*
X137314794Y-97409942D01*
X137314794Y-97409942D02*
X137435746Y-97530895D01*
X137435746Y-97530895D02*
X137677651Y-97591371D01*
X137677651Y-97591371D02*
X138100984Y-97591371D01*
X138100984Y-97591371D02*
X138342889Y-97530895D01*
X138342889Y-97530895D02*
X138463842Y-97409942D01*
X138463842Y-97409942D02*
X138524318Y-97288990D01*
X138524318Y-97288990D02*
X138524318Y-97047085D01*
X137375270Y-98075180D02*
X137314794Y-98135656D01*
X137314794Y-98135656D02*
X137254318Y-98256609D01*
X137254318Y-98256609D02*
X137254318Y-98558990D01*
X137254318Y-98558990D02*
X137314794Y-98679942D01*
X137314794Y-98679942D02*
X137375270Y-98740418D01*
X137375270Y-98740418D02*
X137496222Y-98800895D01*
X137496222Y-98800895D02*
X137617175Y-98800895D01*
X137617175Y-98800895D02*
X137798603Y-98740418D01*
X137798603Y-98740418D02*
X138524318Y-98014704D01*
X138524318Y-98014704D02*
X138524318Y-98800895D01*
D11*
X93754819Y-133533333D02*
X93278628Y-133200000D01*
X93754819Y-132961905D02*
X92754819Y-132961905D01*
X92754819Y-132961905D02*
X92754819Y-133342857D01*
X92754819Y-133342857D02*
X92802438Y-133438095D01*
X92802438Y-133438095D02*
X92850057Y-133485714D01*
X92850057Y-133485714D02*
X92945295Y-133533333D01*
X92945295Y-133533333D02*
X93088152Y-133533333D01*
X93088152Y-133533333D02*
X93183390Y-133485714D01*
X93183390Y-133485714D02*
X93231009Y-133438095D01*
X93231009Y-133438095D02*
X93278628Y-133342857D01*
X93278628Y-133342857D02*
X93278628Y-132961905D01*
X93183390Y-134104762D02*
X93135771Y-134009524D01*
X93135771Y-134009524D02*
X93088152Y-133961905D01*
X93088152Y-133961905D02*
X92992914Y-133914286D01*
X92992914Y-133914286D02*
X92945295Y-133914286D01*
X92945295Y-133914286D02*
X92850057Y-133961905D01*
X92850057Y-133961905D02*
X92802438Y-134009524D01*
X92802438Y-134009524D02*
X92754819Y-134104762D01*
X92754819Y-134104762D02*
X92754819Y-134295238D01*
X92754819Y-134295238D02*
X92802438Y-134390476D01*
X92802438Y-134390476D02*
X92850057Y-134438095D01*
X92850057Y-134438095D02*
X92945295Y-134485714D01*
X92945295Y-134485714D02*
X92992914Y-134485714D01*
X92992914Y-134485714D02*
X93088152Y-134438095D01*
X93088152Y-134438095D02*
X93135771Y-134390476D01*
X93135771Y-134390476D02*
X93183390Y-134295238D01*
X93183390Y-134295238D02*
X93183390Y-134104762D01*
X93183390Y-134104762D02*
X93231009Y-134009524D01*
X93231009Y-134009524D02*
X93278628Y-133961905D01*
X93278628Y-133961905D02*
X93373866Y-133914286D01*
X93373866Y-133914286D02*
X93564342Y-133914286D01*
X93564342Y-133914286D02*
X93659580Y-133961905D01*
X93659580Y-133961905D02*
X93707200Y-134009524D01*
X93707200Y-134009524D02*
X93754819Y-134104762D01*
X93754819Y-134104762D02*
X93754819Y-134295238D01*
X93754819Y-134295238D02*
X93707200Y-134390476D01*
X93707200Y-134390476D02*
X93659580Y-134438095D01*
X93659580Y-134438095D02*
X93564342Y-134485714D01*
X93564342Y-134485714D02*
X93373866Y-134485714D01*
X93373866Y-134485714D02*
X93278628Y-134438095D01*
X93278628Y-134438095D02*
X93231009Y-134390476D01*
X93231009Y-134390476D02*
X93183390Y-134295238D01*
X125745180Y-92366666D02*
X125745180Y-92842856D01*
X125745180Y-92842856D02*
X126745180Y-92842856D01*
X125745180Y-91509523D02*
X125745180Y-92080951D01*
X125745180Y-91795237D02*
X126745180Y-91795237D01*
X126745180Y-91795237D02*
X126602323Y-91890475D01*
X126602323Y-91890475D02*
X126507085Y-91985713D01*
X126507085Y-91985713D02*
X126459466Y-92080951D01*
X141361905Y-134345180D02*
X141361905Y-135345180D01*
X141361905Y-135345180D02*
X141600000Y-135345180D01*
X141600000Y-135345180D02*
X141742857Y-135297561D01*
X141742857Y-135297561D02*
X141838095Y-135202323D01*
X141838095Y-135202323D02*
X141885714Y-135107085D01*
X141885714Y-135107085D02*
X141933333Y-134916609D01*
X141933333Y-134916609D02*
X141933333Y-134773752D01*
X141933333Y-134773752D02*
X141885714Y-134583276D01*
X141885714Y-134583276D02*
X141838095Y-134488038D01*
X141838095Y-134488038D02*
X141742857Y-134392800D01*
X141742857Y-134392800D02*
X141600000Y-134345180D01*
X141600000Y-134345180D02*
X141361905Y-134345180D01*
X142790476Y-135011847D02*
X142790476Y-134345180D01*
X142552381Y-135392800D02*
X142314286Y-134678514D01*
X142314286Y-134678514D02*
X142933333Y-134678514D01*
X140194999Y-134254819D02*
X140194999Y-134492914D01*
X140433094Y-134397676D02*
X140194999Y-134492914D01*
X140194999Y-134492914D02*
X139956904Y-134397676D01*
X140337856Y-134683390D02*
X140194999Y-134492914D01*
X140194999Y-134492914D02*
X140052142Y-134683390D01*
X140195000Y-135345180D02*
X140195000Y-135107085D01*
X139956905Y-135202323D02*
X140195000Y-135107085D01*
X140195000Y-135107085D02*
X140433095Y-135202323D01*
X140052143Y-134916609D02*
X140195000Y-135107085D01*
X140195000Y-135107085D02*
X140337857Y-134916609D01*
X93754819Y-130657142D02*
X93278628Y-130323809D01*
X93754819Y-130085714D02*
X92754819Y-130085714D01*
X92754819Y-130085714D02*
X92754819Y-130466666D01*
X92754819Y-130466666D02*
X92802438Y-130561904D01*
X92802438Y-130561904D02*
X92850057Y-130609523D01*
X92850057Y-130609523D02*
X92945295Y-130657142D01*
X92945295Y-130657142D02*
X93088152Y-130657142D01*
X93088152Y-130657142D02*
X93183390Y-130609523D01*
X93183390Y-130609523D02*
X93231009Y-130561904D01*
X93231009Y-130561904D02*
X93278628Y-130466666D01*
X93278628Y-130466666D02*
X93278628Y-130085714D01*
X92850057Y-131038095D02*
X92802438Y-131085714D01*
X92802438Y-131085714D02*
X92754819Y-131180952D01*
X92754819Y-131180952D02*
X92754819Y-131419047D01*
X92754819Y-131419047D02*
X92802438Y-131514285D01*
X92802438Y-131514285D02*
X92850057Y-131561904D01*
X92850057Y-131561904D02*
X92945295Y-131609523D01*
X92945295Y-131609523D02*
X93040533Y-131609523D01*
X93040533Y-131609523D02*
X93183390Y-131561904D01*
X93183390Y-131561904D02*
X93754819Y-130990476D01*
X93754819Y-130990476D02*
X93754819Y-131609523D01*
X92754819Y-131942857D02*
X92754819Y-132561904D01*
X92754819Y-132561904D02*
X93135771Y-132228571D01*
X93135771Y-132228571D02*
X93135771Y-132371428D01*
X93135771Y-132371428D02*
X93183390Y-132466666D01*
X93183390Y-132466666D02*
X93231009Y-132514285D01*
X93231009Y-132514285D02*
X93326247Y-132561904D01*
X93326247Y-132561904D02*
X93564342Y-132561904D01*
X93564342Y-132561904D02*
X93659580Y-132514285D01*
X93659580Y-132514285D02*
X93707200Y-132466666D01*
X93707200Y-132466666D02*
X93754819Y-132371428D01*
X93754819Y-132371428D02*
X93754819Y-132085714D01*
X93754819Y-132085714D02*
X93707200Y-131990476D01*
X93707200Y-131990476D02*
X93659580Y-131942857D01*
X140654819Y-98229942D02*
X140178628Y-97896609D01*
X140654819Y-97658514D02*
X139654819Y-97658514D01*
X139654819Y-97658514D02*
X139654819Y-98039466D01*
X139654819Y-98039466D02*
X139702438Y-98134704D01*
X139702438Y-98134704D02*
X139750057Y-98182323D01*
X139750057Y-98182323D02*
X139845295Y-98229942D01*
X139845295Y-98229942D02*
X139988152Y-98229942D01*
X139988152Y-98229942D02*
X140083390Y-98182323D01*
X140083390Y-98182323D02*
X140131009Y-98134704D01*
X140131009Y-98134704D02*
X140178628Y-98039466D01*
X140178628Y-98039466D02*
X140178628Y-97658514D01*
X140654819Y-99182323D02*
X140654819Y-98610895D01*
X140654819Y-98896609D02*
X139654819Y-98896609D01*
X139654819Y-98896609D02*
X139797676Y-98801371D01*
X139797676Y-98801371D02*
X139892914Y-98706133D01*
X139892914Y-98706133D02*
X139940533Y-98610895D01*
X139654819Y-99515657D02*
X139654819Y-100182323D01*
X139654819Y-100182323D02*
X140654819Y-99753752D01*
X91904819Y-120888095D02*
X92714342Y-120888095D01*
X92714342Y-120888095D02*
X92809580Y-120935714D01*
X92809580Y-120935714D02*
X92857200Y-120983333D01*
X92857200Y-120983333D02*
X92904819Y-121078571D01*
X92904819Y-121078571D02*
X92904819Y-121269047D01*
X92904819Y-121269047D02*
X92857200Y-121364285D01*
X92857200Y-121364285D02*
X92809580Y-121411904D01*
X92809580Y-121411904D02*
X92714342Y-121459523D01*
X92714342Y-121459523D02*
X91904819Y-121459523D01*
X92904819Y-122459523D02*
X92904819Y-121888095D01*
X92904819Y-122173809D02*
X91904819Y-122173809D01*
X91904819Y-122173809D02*
X92047676Y-122078571D01*
X92047676Y-122078571D02*
X92142914Y-121983333D01*
X92142914Y-121983333D02*
X92190533Y-121888095D01*
X138359580Y-90133333D02*
X138407200Y-90085714D01*
X138407200Y-90085714D02*
X138454819Y-89942857D01*
X138454819Y-89942857D02*
X138454819Y-89847619D01*
X138454819Y-89847619D02*
X138407200Y-89704762D01*
X138407200Y-89704762D02*
X138311961Y-89609524D01*
X138311961Y-89609524D02*
X138216723Y-89561905D01*
X138216723Y-89561905D02*
X138026247Y-89514286D01*
X138026247Y-89514286D02*
X137883390Y-89514286D01*
X137883390Y-89514286D02*
X137692914Y-89561905D01*
X137692914Y-89561905D02*
X137597676Y-89609524D01*
X137597676Y-89609524D02*
X137502438Y-89704762D01*
X137502438Y-89704762D02*
X137454819Y-89847619D01*
X137454819Y-89847619D02*
X137454819Y-89942857D01*
X137454819Y-89942857D02*
X137502438Y-90085714D01*
X137502438Y-90085714D02*
X137550057Y-90133333D01*
X137454819Y-90990476D02*
X137454819Y-90800000D01*
X137454819Y-90800000D02*
X137502438Y-90704762D01*
X137502438Y-90704762D02*
X137550057Y-90657143D01*
X137550057Y-90657143D02*
X137692914Y-90561905D01*
X137692914Y-90561905D02*
X137883390Y-90514286D01*
X137883390Y-90514286D02*
X138264342Y-90514286D01*
X138264342Y-90514286D02*
X138359580Y-90561905D01*
X138359580Y-90561905D02*
X138407200Y-90609524D01*
X138407200Y-90609524D02*
X138454819Y-90704762D01*
X138454819Y-90704762D02*
X138454819Y-90895238D01*
X138454819Y-90895238D02*
X138407200Y-90990476D01*
X138407200Y-90990476D02*
X138359580Y-91038095D01*
X138359580Y-91038095D02*
X138264342Y-91085714D01*
X138264342Y-91085714D02*
X138026247Y-91085714D01*
X138026247Y-91085714D02*
X137931009Y-91038095D01*
X137931009Y-91038095D02*
X137883390Y-90990476D01*
X137883390Y-90990476D02*
X137835771Y-90895238D01*
X137835771Y-90895238D02*
X137835771Y-90704762D01*
X137835771Y-90704762D02*
X137883390Y-90609524D01*
X137883390Y-90609524D02*
X137931009Y-90561905D01*
X137931009Y-90561905D02*
X138026247Y-90514286D01*
X142761904Y-97054819D02*
X142761904Y-97864342D01*
X142761904Y-97864342D02*
X142714285Y-97959580D01*
X142714285Y-97959580D02*
X142666666Y-98007200D01*
X142666666Y-98007200D02*
X142571428Y-98054819D01*
X142571428Y-98054819D02*
X142380952Y-98054819D01*
X142380952Y-98054819D02*
X142285714Y-98007200D01*
X142285714Y-98007200D02*
X142238095Y-97959580D01*
X142238095Y-97959580D02*
X142190476Y-97864342D01*
X142190476Y-97864342D02*
X142190476Y-97054819D01*
X141809523Y-97054819D02*
X141142857Y-97054819D01*
X141142857Y-97054819D02*
X141571428Y-98054819D01*
X142652857Y-104204819D02*
X142986190Y-103728628D01*
X143224285Y-104204819D02*
X143224285Y-103204819D01*
X143224285Y-103204819D02*
X142843333Y-103204819D01*
X142843333Y-103204819D02*
X142748095Y-103252438D01*
X142748095Y-103252438D02*
X142700476Y-103300057D01*
X142700476Y-103300057D02*
X142652857Y-103395295D01*
X142652857Y-103395295D02*
X142652857Y-103538152D01*
X142652857Y-103538152D02*
X142700476Y-103633390D01*
X142700476Y-103633390D02*
X142748095Y-103681009D01*
X142748095Y-103681009D02*
X142843333Y-103728628D01*
X142843333Y-103728628D02*
X143224285Y-103728628D01*
X142271904Y-103300057D02*
X142224285Y-103252438D01*
X142224285Y-103252438D02*
X142129047Y-103204819D01*
X142129047Y-103204819D02*
X141890952Y-103204819D01*
X141890952Y-103204819D02*
X141795714Y-103252438D01*
X141795714Y-103252438D02*
X141748095Y-103300057D01*
X141748095Y-103300057D02*
X141700476Y-103395295D01*
X141700476Y-103395295D02*
X141700476Y-103490533D01*
X141700476Y-103490533D02*
X141748095Y-103633390D01*
X141748095Y-103633390D02*
X142319523Y-104204819D01*
X142319523Y-104204819D02*
X141700476Y-104204819D01*
X141081428Y-103204819D02*
X140986190Y-103204819D01*
X140986190Y-103204819D02*
X140890952Y-103252438D01*
X140890952Y-103252438D02*
X140843333Y-103300057D01*
X140843333Y-103300057D02*
X140795714Y-103395295D01*
X140795714Y-103395295D02*
X140748095Y-103585771D01*
X140748095Y-103585771D02*
X140748095Y-103823866D01*
X140748095Y-103823866D02*
X140795714Y-104014342D01*
X140795714Y-104014342D02*
X140843333Y-104109580D01*
X140843333Y-104109580D02*
X140890952Y-104157200D01*
X140890952Y-104157200D02*
X140986190Y-104204819D01*
X140986190Y-104204819D02*
X141081428Y-104204819D01*
X141081428Y-104204819D02*
X141176666Y-104157200D01*
X141176666Y-104157200D02*
X141224285Y-104109580D01*
X141224285Y-104109580D02*
X141271904Y-104014342D01*
X141271904Y-104014342D02*
X141319523Y-103823866D01*
X141319523Y-103823866D02*
X141319523Y-103585771D01*
X141319523Y-103585771D02*
X141271904Y-103395295D01*
X141271904Y-103395295D02*
X141224285Y-103300057D01*
X141224285Y-103300057D02*
X141176666Y-103252438D01*
X141176666Y-103252438D02*
X141081428Y-103204819D01*
X142642857Y-105504819D02*
X142976190Y-105028628D01*
X143214285Y-105504819D02*
X143214285Y-104504819D01*
X143214285Y-104504819D02*
X142833333Y-104504819D01*
X142833333Y-104504819D02*
X142738095Y-104552438D01*
X142738095Y-104552438D02*
X142690476Y-104600057D01*
X142690476Y-104600057D02*
X142642857Y-104695295D01*
X142642857Y-104695295D02*
X142642857Y-104838152D01*
X142642857Y-104838152D02*
X142690476Y-104933390D01*
X142690476Y-104933390D02*
X142738095Y-104981009D01*
X142738095Y-104981009D02*
X142833333Y-105028628D01*
X142833333Y-105028628D02*
X143214285Y-105028628D01*
X141690476Y-105504819D02*
X142261904Y-105504819D01*
X141976190Y-105504819D02*
X141976190Y-104504819D01*
X141976190Y-104504819D02*
X142071428Y-104647676D01*
X142071428Y-104647676D02*
X142166666Y-104742914D01*
X142166666Y-104742914D02*
X142261904Y-104790533D01*
X141214285Y-105504819D02*
X141023809Y-105504819D01*
X141023809Y-105504819D02*
X140928571Y-105457200D01*
X140928571Y-105457200D02*
X140880952Y-105409580D01*
X140880952Y-105409580D02*
X140785714Y-105266723D01*
X140785714Y-105266723D02*
X140738095Y-105076247D01*
X140738095Y-105076247D02*
X140738095Y-104695295D01*
X140738095Y-104695295D02*
X140785714Y-104600057D01*
X140785714Y-104600057D02*
X140833333Y-104552438D01*
X140833333Y-104552438D02*
X140928571Y-104504819D01*
X140928571Y-104504819D02*
X141119047Y-104504819D01*
X141119047Y-104504819D02*
X141214285Y-104552438D01*
X141214285Y-104552438D02*
X141261904Y-104600057D01*
X141261904Y-104600057D02*
X141309523Y-104695295D01*
X141309523Y-104695295D02*
X141309523Y-104933390D01*
X141309523Y-104933390D02*
X141261904Y-105028628D01*
X141261904Y-105028628D02*
X141214285Y-105076247D01*
X141214285Y-105076247D02*
X141119047Y-105123866D01*
X141119047Y-105123866D02*
X140928571Y-105123866D01*
X140928571Y-105123866D02*
X140833333Y-105076247D01*
X140833333Y-105076247D02*
X140785714Y-105028628D01*
X140785714Y-105028628D02*
X140738095Y-104933390D01*
D12*
X131370790Y-130711916D02*
X131370790Y-130580682D01*
X131577014Y-130580682D02*
X131183313Y-130580682D01*
X131183313Y-130580682D02*
X131183313Y-130768159D01*
X131370790Y-131049374D02*
X131389538Y-131105617D01*
X131389538Y-131105617D02*
X131408285Y-131124364D01*
X131408285Y-131124364D02*
X131445781Y-131143112D01*
X131445781Y-131143112D02*
X131502024Y-131143112D01*
X131502024Y-131143112D02*
X131539519Y-131124364D01*
X131539519Y-131124364D02*
X131558267Y-131105617D01*
X131558267Y-131105617D02*
X131577014Y-131068121D01*
X131577014Y-131068121D02*
X131577014Y-130918140D01*
X131577014Y-130918140D02*
X131183313Y-130918140D01*
X131183313Y-130918140D02*
X131183313Y-131049374D01*
X131183313Y-131049374D02*
X131202061Y-131086869D01*
X131202061Y-131086869D02*
X131220809Y-131105617D01*
X131220809Y-131105617D02*
X131258304Y-131124364D01*
X131258304Y-131124364D02*
X131295799Y-131124364D01*
X131295799Y-131124364D02*
X131333295Y-131105617D01*
X131333295Y-131105617D02*
X131352042Y-131086869D01*
X131352042Y-131086869D02*
X131370790Y-131049374D01*
X131370790Y-131049374D02*
X131370790Y-130918140D01*
X131577014Y-131518065D02*
X131577014Y-131293093D01*
X131577014Y-131405579D02*
X131183313Y-131405579D01*
X131183313Y-131405579D02*
X131239556Y-131368084D01*
X131239556Y-131368084D02*
X131277052Y-131330589D01*
X131277052Y-131330589D02*
X131295799Y-131293093D01*
D11*
X104376666Y-138459580D02*
X104424285Y-138507200D01*
X104424285Y-138507200D02*
X104567142Y-138554819D01*
X104567142Y-138554819D02*
X104662380Y-138554819D01*
X104662380Y-138554819D02*
X104805237Y-138507200D01*
X104805237Y-138507200D02*
X104900475Y-138411961D01*
X104900475Y-138411961D02*
X104948094Y-138316723D01*
X104948094Y-138316723D02*
X104995713Y-138126247D01*
X104995713Y-138126247D02*
X104995713Y-137983390D01*
X104995713Y-137983390D02*
X104948094Y-137792914D01*
X104948094Y-137792914D02*
X104900475Y-137697676D01*
X104900475Y-137697676D02*
X104805237Y-137602438D01*
X104805237Y-137602438D02*
X104662380Y-137554819D01*
X104662380Y-137554819D02*
X104567142Y-137554819D01*
X104567142Y-137554819D02*
X104424285Y-137602438D01*
X104424285Y-137602438D02*
X104376666Y-137650057D01*
X103424285Y-138554819D02*
X103995713Y-138554819D01*
X103709999Y-138554819D02*
X103709999Y-137554819D01*
X103709999Y-137554819D02*
X103805237Y-137697676D01*
X103805237Y-137697676D02*
X103900475Y-137792914D01*
X103900475Y-137792914D02*
X103995713Y-137840533D01*
X128166666Y-106854819D02*
X128499999Y-106378628D01*
X128738094Y-106854819D02*
X128738094Y-105854819D01*
X128738094Y-105854819D02*
X128357142Y-105854819D01*
X128357142Y-105854819D02*
X128261904Y-105902438D01*
X128261904Y-105902438D02*
X128214285Y-105950057D01*
X128214285Y-105950057D02*
X128166666Y-106045295D01*
X128166666Y-106045295D02*
X128166666Y-106188152D01*
X128166666Y-106188152D02*
X128214285Y-106283390D01*
X128214285Y-106283390D02*
X128261904Y-106331009D01*
X128261904Y-106331009D02*
X128357142Y-106378628D01*
X128357142Y-106378628D02*
X128738094Y-106378628D01*
X127833332Y-105854819D02*
X127166666Y-105854819D01*
X127166666Y-105854819D02*
X127595237Y-106854819D01*
X140261905Y-130445180D02*
X140261905Y-131445180D01*
X140261905Y-131445180D02*
X140500000Y-131445180D01*
X140500000Y-131445180D02*
X140642857Y-131397561D01*
X140642857Y-131397561D02*
X140738095Y-131302323D01*
X140738095Y-131302323D02*
X140785714Y-131207085D01*
X140785714Y-131207085D02*
X140833333Y-131016609D01*
X140833333Y-131016609D02*
X140833333Y-130873752D01*
X140833333Y-130873752D02*
X140785714Y-130683276D01*
X140785714Y-130683276D02*
X140738095Y-130588038D01*
X140738095Y-130588038D02*
X140642857Y-130492800D01*
X140642857Y-130492800D02*
X140500000Y-130445180D01*
X140500000Y-130445180D02*
X140261905Y-130445180D01*
X141690476Y-131445180D02*
X141500000Y-131445180D01*
X141500000Y-131445180D02*
X141404762Y-131397561D01*
X141404762Y-131397561D02*
X141357143Y-131349942D01*
X141357143Y-131349942D02*
X141261905Y-131207085D01*
X141261905Y-131207085D02*
X141214286Y-131016609D01*
X141214286Y-131016609D02*
X141214286Y-130635657D01*
X141214286Y-130635657D02*
X141261905Y-130540419D01*
X141261905Y-130540419D02*
X141309524Y-130492800D01*
X141309524Y-130492800D02*
X141404762Y-130445180D01*
X141404762Y-130445180D02*
X141595238Y-130445180D01*
X141595238Y-130445180D02*
X141690476Y-130492800D01*
X141690476Y-130492800D02*
X141738095Y-130540419D01*
X141738095Y-130540419D02*
X141785714Y-130635657D01*
X141785714Y-130635657D02*
X141785714Y-130873752D01*
X141785714Y-130873752D02*
X141738095Y-130968990D01*
X141738095Y-130968990D02*
X141690476Y-131016609D01*
X141690476Y-131016609D02*
X141595238Y-131064228D01*
X141595238Y-131064228D02*
X141404762Y-131064228D01*
X141404762Y-131064228D02*
X141309524Y-131016609D01*
X141309524Y-131016609D02*
X141261905Y-130968990D01*
X141261905Y-130968990D02*
X141214286Y-130873752D01*
X139094999Y-130354819D02*
X139094999Y-130592914D01*
X139333094Y-130497676D02*
X139094999Y-130592914D01*
X139094999Y-130592914D02*
X138856904Y-130497676D01*
X139237856Y-130783390D02*
X139094999Y-130592914D01*
X139094999Y-130592914D02*
X138952142Y-130783390D01*
X139095000Y-131445180D02*
X139095000Y-131207085D01*
X138856905Y-131302323D02*
X139095000Y-131207085D01*
X139095000Y-131207085D02*
X139333095Y-131302323D01*
X138952143Y-131016609D02*
X139095000Y-131207085D01*
X139095000Y-131207085D02*
X139237857Y-131016609D01*
X95254819Y-131633333D02*
X94778628Y-131300000D01*
X95254819Y-131061905D02*
X94254819Y-131061905D01*
X94254819Y-131061905D02*
X94254819Y-131442857D01*
X94254819Y-131442857D02*
X94302438Y-131538095D01*
X94302438Y-131538095D02*
X94350057Y-131585714D01*
X94350057Y-131585714D02*
X94445295Y-131633333D01*
X94445295Y-131633333D02*
X94588152Y-131633333D01*
X94588152Y-131633333D02*
X94683390Y-131585714D01*
X94683390Y-131585714D02*
X94731009Y-131538095D01*
X94731009Y-131538095D02*
X94778628Y-131442857D01*
X94778628Y-131442857D02*
X94778628Y-131061905D01*
X95254819Y-132585714D02*
X95254819Y-132014286D01*
X95254819Y-132300000D02*
X94254819Y-132300000D01*
X94254819Y-132300000D02*
X94397676Y-132204762D01*
X94397676Y-132204762D02*
X94492914Y-132109524D01*
X94492914Y-132109524D02*
X94540533Y-132014286D01*
X128142857Y-104154819D02*
X128476190Y-103678628D01*
X128714285Y-104154819D02*
X128714285Y-103154819D01*
X128714285Y-103154819D02*
X128333333Y-103154819D01*
X128333333Y-103154819D02*
X128238095Y-103202438D01*
X128238095Y-103202438D02*
X128190476Y-103250057D01*
X128190476Y-103250057D02*
X128142857Y-103345295D01*
X128142857Y-103345295D02*
X128142857Y-103488152D01*
X128142857Y-103488152D02*
X128190476Y-103583390D01*
X128190476Y-103583390D02*
X128238095Y-103631009D01*
X128238095Y-103631009D02*
X128333333Y-103678628D01*
X128333333Y-103678628D02*
X128714285Y-103678628D01*
X127761904Y-103250057D02*
X127714285Y-103202438D01*
X127714285Y-103202438D02*
X127619047Y-103154819D01*
X127619047Y-103154819D02*
X127380952Y-103154819D01*
X127380952Y-103154819D02*
X127285714Y-103202438D01*
X127285714Y-103202438D02*
X127238095Y-103250057D01*
X127238095Y-103250057D02*
X127190476Y-103345295D01*
X127190476Y-103345295D02*
X127190476Y-103440533D01*
X127190476Y-103440533D02*
X127238095Y-103583390D01*
X127238095Y-103583390D02*
X127809523Y-104154819D01*
X127809523Y-104154819D02*
X127190476Y-104154819D01*
X126238095Y-104154819D02*
X126809523Y-104154819D01*
X126523809Y-104154819D02*
X126523809Y-103154819D01*
X126523809Y-103154819D02*
X126619047Y-103297676D01*
X126619047Y-103297676D02*
X126714285Y-103392914D01*
X126714285Y-103392914D02*
X126809523Y-103440533D01*
X95254819Y-133533333D02*
X94778628Y-133200000D01*
X95254819Y-132961905D02*
X94254819Y-132961905D01*
X94254819Y-132961905D02*
X94254819Y-133342857D01*
X94254819Y-133342857D02*
X94302438Y-133438095D01*
X94302438Y-133438095D02*
X94350057Y-133485714D01*
X94350057Y-133485714D02*
X94445295Y-133533333D01*
X94445295Y-133533333D02*
X94588152Y-133533333D01*
X94588152Y-133533333D02*
X94683390Y-133485714D01*
X94683390Y-133485714D02*
X94731009Y-133438095D01*
X94731009Y-133438095D02*
X94778628Y-133342857D01*
X94778628Y-133342857D02*
X94778628Y-132961905D01*
X94254819Y-133866667D02*
X94254819Y-134485714D01*
X94254819Y-134485714D02*
X94635771Y-134152381D01*
X94635771Y-134152381D02*
X94635771Y-134295238D01*
X94635771Y-134295238D02*
X94683390Y-134390476D01*
X94683390Y-134390476D02*
X94731009Y-134438095D01*
X94731009Y-134438095D02*
X94826247Y-134485714D01*
X94826247Y-134485714D02*
X95064342Y-134485714D01*
X95064342Y-134485714D02*
X95159580Y-134438095D01*
X95159580Y-134438095D02*
X95207200Y-134390476D01*
X95207200Y-134390476D02*
X95254819Y-134295238D01*
X95254819Y-134295238D02*
X95254819Y-134009524D01*
X95254819Y-134009524D02*
X95207200Y-133914286D01*
X95207200Y-133914286D02*
X95159580Y-133866667D01*
X95141666Y-138659580D02*
X95189285Y-138707200D01*
X95189285Y-138707200D02*
X95332142Y-138754819D01*
X95332142Y-138754819D02*
X95427380Y-138754819D01*
X95427380Y-138754819D02*
X95570237Y-138707200D01*
X95570237Y-138707200D02*
X95665475Y-138611961D01*
X95665475Y-138611961D02*
X95713094Y-138516723D01*
X95713094Y-138516723D02*
X95760713Y-138326247D01*
X95760713Y-138326247D02*
X95760713Y-138183390D01*
X95760713Y-138183390D02*
X95713094Y-137992914D01*
X95713094Y-137992914D02*
X95665475Y-137897676D01*
X95665475Y-137897676D02*
X95570237Y-137802438D01*
X95570237Y-137802438D02*
X95427380Y-137754819D01*
X95427380Y-137754819D02*
X95332142Y-137754819D01*
X95332142Y-137754819D02*
X95189285Y-137802438D01*
X95189285Y-137802438D02*
X95141666Y-137850057D01*
X94760713Y-137850057D02*
X94713094Y-137802438D01*
X94713094Y-137802438D02*
X94617856Y-137754819D01*
X94617856Y-137754819D02*
X94379761Y-137754819D01*
X94379761Y-137754819D02*
X94284523Y-137802438D01*
X94284523Y-137802438D02*
X94236904Y-137850057D01*
X94236904Y-137850057D02*
X94189285Y-137945295D01*
X94189285Y-137945295D02*
X94189285Y-138040533D01*
X94189285Y-138040533D02*
X94236904Y-138183390D01*
X94236904Y-138183390D02*
X94808332Y-138754819D01*
X94808332Y-138754819D02*
X94189285Y-138754819D01*
X128342857Y-105654819D02*
X128676190Y-105178628D01*
X128914285Y-105654819D02*
X128914285Y-104654819D01*
X128914285Y-104654819D02*
X128533333Y-104654819D01*
X128533333Y-104654819D02*
X128438095Y-104702438D01*
X128438095Y-104702438D02*
X128390476Y-104750057D01*
X128390476Y-104750057D02*
X128342857Y-104845295D01*
X128342857Y-104845295D02*
X128342857Y-104988152D01*
X128342857Y-104988152D02*
X128390476Y-105083390D01*
X128390476Y-105083390D02*
X128438095Y-105131009D01*
X128438095Y-105131009D02*
X128533333Y-105178628D01*
X128533333Y-105178628D02*
X128914285Y-105178628D01*
X127961904Y-104750057D02*
X127914285Y-104702438D01*
X127914285Y-104702438D02*
X127819047Y-104654819D01*
X127819047Y-104654819D02*
X127580952Y-104654819D01*
X127580952Y-104654819D02*
X127485714Y-104702438D01*
X127485714Y-104702438D02*
X127438095Y-104750057D01*
X127438095Y-104750057D02*
X127390476Y-104845295D01*
X127390476Y-104845295D02*
X127390476Y-104940533D01*
X127390476Y-104940533D02*
X127438095Y-105083390D01*
X127438095Y-105083390D02*
X128009523Y-105654819D01*
X128009523Y-105654819D02*
X127390476Y-105654819D01*
X127009523Y-104750057D02*
X126961904Y-104702438D01*
X126961904Y-104702438D02*
X126866666Y-104654819D01*
X126866666Y-104654819D02*
X126628571Y-104654819D01*
X126628571Y-104654819D02*
X126533333Y-104702438D01*
X126533333Y-104702438D02*
X126485714Y-104750057D01*
X126485714Y-104750057D02*
X126438095Y-104845295D01*
X126438095Y-104845295D02*
X126438095Y-104940533D01*
X126438095Y-104940533D02*
X126485714Y-105083390D01*
X126485714Y-105083390D02*
X127057142Y-105654819D01*
X127057142Y-105654819D02*
X126438095Y-105654819D01*
X136461904Y-106054819D02*
X136461904Y-106864342D01*
X136461904Y-106864342D02*
X136414285Y-106959580D01*
X136414285Y-106959580D02*
X136366666Y-107007200D01*
X136366666Y-107007200D02*
X136271428Y-107054819D01*
X136271428Y-107054819D02*
X136080952Y-107054819D01*
X136080952Y-107054819D02*
X135985714Y-107007200D01*
X135985714Y-107007200D02*
X135938095Y-106959580D01*
X135938095Y-106959580D02*
X135890476Y-106864342D01*
X135890476Y-106864342D02*
X135890476Y-106054819D01*
X135271428Y-106483390D02*
X135366666Y-106435771D01*
X135366666Y-106435771D02*
X135414285Y-106388152D01*
X135414285Y-106388152D02*
X135461904Y-106292914D01*
X135461904Y-106292914D02*
X135461904Y-106245295D01*
X135461904Y-106245295D02*
X135414285Y-106150057D01*
X135414285Y-106150057D02*
X135366666Y-106102438D01*
X135366666Y-106102438D02*
X135271428Y-106054819D01*
X135271428Y-106054819D02*
X135080952Y-106054819D01*
X135080952Y-106054819D02*
X134985714Y-106102438D01*
X134985714Y-106102438D02*
X134938095Y-106150057D01*
X134938095Y-106150057D02*
X134890476Y-106245295D01*
X134890476Y-106245295D02*
X134890476Y-106292914D01*
X134890476Y-106292914D02*
X134938095Y-106388152D01*
X134938095Y-106388152D02*
X134985714Y-106435771D01*
X134985714Y-106435771D02*
X135080952Y-106483390D01*
X135080952Y-106483390D02*
X135271428Y-106483390D01*
X135271428Y-106483390D02*
X135366666Y-106531009D01*
X135366666Y-106531009D02*
X135414285Y-106578628D01*
X135414285Y-106578628D02*
X135461904Y-106673866D01*
X135461904Y-106673866D02*
X135461904Y-106864342D01*
X135461904Y-106864342D02*
X135414285Y-106959580D01*
X135414285Y-106959580D02*
X135366666Y-107007200D01*
X135366666Y-107007200D02*
X135271428Y-107054819D01*
X135271428Y-107054819D02*
X135080952Y-107054819D01*
X135080952Y-107054819D02*
X134985714Y-107007200D01*
X134985714Y-107007200D02*
X134938095Y-106959580D01*
X134938095Y-106959580D02*
X134890476Y-106864342D01*
X134890476Y-106864342D02*
X134890476Y-106673866D01*
X134890476Y-106673866D02*
X134938095Y-106578628D01*
X134938095Y-106578628D02*
X134985714Y-106531009D01*
X134985714Y-106531009D02*
X135080952Y-106483390D01*
X135638094Y-98895819D02*
X135638094Y-97895819D01*
X135638094Y-97895819D02*
X135399999Y-97895819D01*
X135399999Y-97895819D02*
X135257142Y-97943438D01*
X135257142Y-97943438D02*
X135161904Y-98038676D01*
X135161904Y-98038676D02*
X135114285Y-98133914D01*
X135114285Y-98133914D02*
X135066666Y-98324390D01*
X135066666Y-98324390D02*
X135066666Y-98467247D01*
X135066666Y-98467247D02*
X135114285Y-98657723D01*
X135114285Y-98657723D02*
X135161904Y-98752961D01*
X135161904Y-98752961D02*
X135257142Y-98848200D01*
X135257142Y-98848200D02*
X135399999Y-98895819D01*
X135399999Y-98895819D02*
X135638094Y-98895819D01*
X134685713Y-97991057D02*
X134638094Y-97943438D01*
X134638094Y-97943438D02*
X134542856Y-97895819D01*
X134542856Y-97895819D02*
X134304761Y-97895819D01*
X134304761Y-97895819D02*
X134209523Y-97943438D01*
X134209523Y-97943438D02*
X134161904Y-97991057D01*
X134161904Y-97991057D02*
X134114285Y-98086295D01*
X134114285Y-98086295D02*
X134114285Y-98181533D01*
X134114285Y-98181533D02*
X134161904Y-98324390D01*
X134161904Y-98324390D02*
X134733332Y-98895819D01*
X134733332Y-98895819D02*
X134114285Y-98895819D01*
X134899999Y-97895819D02*
X134899999Y-98133914D01*
X135138094Y-98038676D02*
X134899999Y-98133914D01*
X134899999Y-98133914D02*
X134661904Y-98038676D01*
X135042856Y-98324390D02*
X134899999Y-98133914D01*
X134899999Y-98133914D02*
X134757142Y-98324390D01*
X134899999Y-97895819D02*
X134899999Y-98133914D01*
X135138094Y-98038676D02*
X134899999Y-98133914D01*
X134899999Y-98133914D02*
X134661904Y-98038676D01*
X135042856Y-98324390D02*
X134899999Y-98133914D01*
X134899999Y-98133914D02*
X134757142Y-98324390D01*
X122142857Y-135954819D02*
X122476190Y-135478628D01*
X122714285Y-135954819D02*
X122714285Y-134954819D01*
X122714285Y-134954819D02*
X122333333Y-134954819D01*
X122333333Y-134954819D02*
X122238095Y-135002438D01*
X122238095Y-135002438D02*
X122190476Y-135050057D01*
X122190476Y-135050057D02*
X122142857Y-135145295D01*
X122142857Y-135145295D02*
X122142857Y-135288152D01*
X122142857Y-135288152D02*
X122190476Y-135383390D01*
X122190476Y-135383390D02*
X122238095Y-135431009D01*
X122238095Y-135431009D02*
X122333333Y-135478628D01*
X122333333Y-135478628D02*
X122714285Y-135478628D01*
X121190476Y-135954819D02*
X121761904Y-135954819D01*
X121476190Y-135954819D02*
X121476190Y-134954819D01*
X121476190Y-134954819D02*
X121571428Y-135097676D01*
X121571428Y-135097676D02*
X121666666Y-135192914D01*
X121666666Y-135192914D02*
X121761904Y-135240533D01*
X120571428Y-134954819D02*
X120476190Y-134954819D01*
X120476190Y-134954819D02*
X120380952Y-135002438D01*
X120380952Y-135002438D02*
X120333333Y-135050057D01*
X120333333Y-135050057D02*
X120285714Y-135145295D01*
X120285714Y-135145295D02*
X120238095Y-135335771D01*
X120238095Y-135335771D02*
X120238095Y-135573866D01*
X120238095Y-135573866D02*
X120285714Y-135764342D01*
X120285714Y-135764342D02*
X120333333Y-135859580D01*
X120333333Y-135859580D02*
X120380952Y-135907200D01*
X120380952Y-135907200D02*
X120476190Y-135954819D01*
X120476190Y-135954819D02*
X120571428Y-135954819D01*
X120571428Y-135954819D02*
X120666666Y-135907200D01*
X120666666Y-135907200D02*
X120714285Y-135859580D01*
X120714285Y-135859580D02*
X120761904Y-135764342D01*
X120761904Y-135764342D02*
X120809523Y-135573866D01*
X120809523Y-135573866D02*
X120809523Y-135335771D01*
X120809523Y-135335771D02*
X120761904Y-135145295D01*
X120761904Y-135145295D02*
X120714285Y-135050057D01*
X120714285Y-135050057D02*
X120666666Y-135002438D01*
X120666666Y-135002438D02*
X120571428Y-134954819D01*
X128842857Y-102519580D02*
X128890476Y-102567200D01*
X128890476Y-102567200D02*
X129033333Y-102614819D01*
X129033333Y-102614819D02*
X129128571Y-102614819D01*
X129128571Y-102614819D02*
X129271428Y-102567200D01*
X129271428Y-102567200D02*
X129366666Y-102471961D01*
X129366666Y-102471961D02*
X129414285Y-102376723D01*
X129414285Y-102376723D02*
X129461904Y-102186247D01*
X129461904Y-102186247D02*
X129461904Y-102043390D01*
X129461904Y-102043390D02*
X129414285Y-101852914D01*
X129414285Y-101852914D02*
X129366666Y-101757676D01*
X129366666Y-101757676D02*
X129271428Y-101662438D01*
X129271428Y-101662438D02*
X129128571Y-101614819D01*
X129128571Y-101614819D02*
X129033333Y-101614819D01*
X129033333Y-101614819D02*
X128890476Y-101662438D01*
X128890476Y-101662438D02*
X128842857Y-101710057D01*
X127890476Y-102614819D02*
X128461904Y-102614819D01*
X128176190Y-102614819D02*
X128176190Y-101614819D01*
X128176190Y-101614819D02*
X128271428Y-101757676D01*
X128271428Y-101757676D02*
X128366666Y-101852914D01*
X128366666Y-101852914D02*
X128461904Y-101900533D01*
X126938095Y-102614819D02*
X127509523Y-102614819D01*
X127223809Y-102614819D02*
X127223809Y-101614819D01*
X127223809Y-101614819D02*
X127319047Y-101757676D01*
X127319047Y-101757676D02*
X127414285Y-101852914D01*
X127414285Y-101852914D02*
X127509523Y-101900533D01*
X113131904Y-94854819D02*
X113131904Y-95664342D01*
X113131904Y-95664342D02*
X113084285Y-95759580D01*
X113084285Y-95759580D02*
X113036666Y-95807200D01*
X113036666Y-95807200D02*
X112941428Y-95854819D01*
X112941428Y-95854819D02*
X112750952Y-95854819D01*
X112750952Y-95854819D02*
X112655714Y-95807200D01*
X112655714Y-95807200D02*
X112608095Y-95759580D01*
X112608095Y-95759580D02*
X112560476Y-95664342D01*
X112560476Y-95664342D02*
X112560476Y-94854819D01*
X111655714Y-94854819D02*
X111846190Y-94854819D01*
X111846190Y-94854819D02*
X111941428Y-94902438D01*
X111941428Y-94902438D02*
X111989047Y-94950057D01*
X111989047Y-94950057D02*
X112084285Y-95092914D01*
X112084285Y-95092914D02*
X112131904Y-95283390D01*
X112131904Y-95283390D02*
X112131904Y-95664342D01*
X112131904Y-95664342D02*
X112084285Y-95759580D01*
X112084285Y-95759580D02*
X112036666Y-95807200D01*
X112036666Y-95807200D02*
X111941428Y-95854819D01*
X111941428Y-95854819D02*
X111750952Y-95854819D01*
X111750952Y-95854819D02*
X111655714Y-95807200D01*
X111655714Y-95807200D02*
X111608095Y-95759580D01*
X111608095Y-95759580D02*
X111560476Y-95664342D01*
X111560476Y-95664342D02*
X111560476Y-95426247D01*
X111560476Y-95426247D02*
X111608095Y-95331009D01*
X111608095Y-95331009D02*
X111655714Y-95283390D01*
X111655714Y-95283390D02*
X111750952Y-95235771D01*
X111750952Y-95235771D02*
X111941428Y-95235771D01*
X111941428Y-95235771D02*
X112036666Y-95283390D01*
X112036666Y-95283390D02*
X112084285Y-95331009D01*
X112084285Y-95331009D02*
X112131904Y-95426247D01*
X134442857Y-132554819D02*
X134776190Y-132078628D01*
X135014285Y-132554819D02*
X135014285Y-131554819D01*
X135014285Y-131554819D02*
X134633333Y-131554819D01*
X134633333Y-131554819D02*
X134538095Y-131602438D01*
X134538095Y-131602438D02*
X134490476Y-131650057D01*
X134490476Y-131650057D02*
X134442857Y-131745295D01*
X134442857Y-131745295D02*
X134442857Y-131888152D01*
X134442857Y-131888152D02*
X134490476Y-131983390D01*
X134490476Y-131983390D02*
X134538095Y-132031009D01*
X134538095Y-132031009D02*
X134633333Y-132078628D01*
X134633333Y-132078628D02*
X135014285Y-132078628D01*
X133490476Y-132554819D02*
X134061904Y-132554819D01*
X133776190Y-132554819D02*
X133776190Y-131554819D01*
X133776190Y-131554819D02*
X133871428Y-131697676D01*
X133871428Y-131697676D02*
X133966666Y-131792914D01*
X133966666Y-131792914D02*
X134061904Y-131840533D01*
X132585714Y-131554819D02*
X133061904Y-131554819D01*
X133061904Y-131554819D02*
X133109523Y-132031009D01*
X133109523Y-132031009D02*
X133061904Y-131983390D01*
X133061904Y-131983390D02*
X132966666Y-131935771D01*
X132966666Y-131935771D02*
X132728571Y-131935771D01*
X132728571Y-131935771D02*
X132633333Y-131983390D01*
X132633333Y-131983390D02*
X132585714Y-132031009D01*
X132585714Y-132031009D02*
X132538095Y-132126247D01*
X132538095Y-132126247D02*
X132538095Y-132364342D01*
X132538095Y-132364342D02*
X132585714Y-132459580D01*
X132585714Y-132459580D02*
X132633333Y-132507200D01*
X132633333Y-132507200D02*
X132728571Y-132554819D01*
X132728571Y-132554819D02*
X132966666Y-132554819D01*
X132966666Y-132554819D02*
X133061904Y-132507200D01*
X133061904Y-132507200D02*
X133109523Y-132459580D01*
X99154819Y-126333333D02*
X98678628Y-126000000D01*
X99154819Y-125761905D02*
X98154819Y-125761905D01*
X98154819Y-125761905D02*
X98154819Y-126142857D01*
X98154819Y-126142857D02*
X98202438Y-126238095D01*
X98202438Y-126238095D02*
X98250057Y-126285714D01*
X98250057Y-126285714D02*
X98345295Y-126333333D01*
X98345295Y-126333333D02*
X98488152Y-126333333D01*
X98488152Y-126333333D02*
X98583390Y-126285714D01*
X98583390Y-126285714D02*
X98631009Y-126238095D01*
X98631009Y-126238095D02*
X98678628Y-126142857D01*
X98678628Y-126142857D02*
X98678628Y-125761905D01*
X98154819Y-127238095D02*
X98154819Y-126761905D01*
X98154819Y-126761905D02*
X98631009Y-126714286D01*
X98631009Y-126714286D02*
X98583390Y-126761905D01*
X98583390Y-126761905D02*
X98535771Y-126857143D01*
X98535771Y-126857143D02*
X98535771Y-127095238D01*
X98535771Y-127095238D02*
X98583390Y-127190476D01*
X98583390Y-127190476D02*
X98631009Y-127238095D01*
X98631009Y-127238095D02*
X98726247Y-127285714D01*
X98726247Y-127285714D02*
X98964342Y-127285714D01*
X98964342Y-127285714D02*
X99059580Y-127238095D01*
X99059580Y-127238095D02*
X99107200Y-127190476D01*
X99107200Y-127190476D02*
X99154819Y-127095238D01*
X99154819Y-127095238D02*
X99154819Y-126857143D01*
X99154819Y-126857143D02*
X99107200Y-126761905D01*
X99107200Y-126761905D02*
X99059580Y-126714286D01*
X142154819Y-98229942D02*
X141678628Y-97896609D01*
X142154819Y-97658514D02*
X141154819Y-97658514D01*
X141154819Y-97658514D02*
X141154819Y-98039466D01*
X141154819Y-98039466D02*
X141202438Y-98134704D01*
X141202438Y-98134704D02*
X141250057Y-98182323D01*
X141250057Y-98182323D02*
X141345295Y-98229942D01*
X141345295Y-98229942D02*
X141488152Y-98229942D01*
X141488152Y-98229942D02*
X141583390Y-98182323D01*
X141583390Y-98182323D02*
X141631009Y-98134704D01*
X141631009Y-98134704D02*
X141678628Y-98039466D01*
X141678628Y-98039466D02*
X141678628Y-97658514D01*
X142154819Y-99182323D02*
X142154819Y-98610895D01*
X142154819Y-98896609D02*
X141154819Y-98896609D01*
X141154819Y-98896609D02*
X141297676Y-98801371D01*
X141297676Y-98801371D02*
X141392914Y-98706133D01*
X141392914Y-98706133D02*
X141440533Y-98610895D01*
X141583390Y-99753752D02*
X141535771Y-99658514D01*
X141535771Y-99658514D02*
X141488152Y-99610895D01*
X141488152Y-99610895D02*
X141392914Y-99563276D01*
X141392914Y-99563276D02*
X141345295Y-99563276D01*
X141345295Y-99563276D02*
X141250057Y-99610895D01*
X141250057Y-99610895D02*
X141202438Y-99658514D01*
X141202438Y-99658514D02*
X141154819Y-99753752D01*
X141154819Y-99753752D02*
X141154819Y-99944228D01*
X141154819Y-99944228D02*
X141202438Y-100039466D01*
X141202438Y-100039466D02*
X141250057Y-100087085D01*
X141250057Y-100087085D02*
X141345295Y-100134704D01*
X141345295Y-100134704D02*
X141392914Y-100134704D01*
X141392914Y-100134704D02*
X141488152Y-100087085D01*
X141488152Y-100087085D02*
X141535771Y-100039466D01*
X141535771Y-100039466D02*
X141583390Y-99944228D01*
X141583390Y-99944228D02*
X141583390Y-99753752D01*
X141583390Y-99753752D02*
X141631009Y-99658514D01*
X141631009Y-99658514D02*
X141678628Y-99610895D01*
X141678628Y-99610895D02*
X141773866Y-99563276D01*
X141773866Y-99563276D02*
X141964342Y-99563276D01*
X141964342Y-99563276D02*
X142059580Y-99610895D01*
X142059580Y-99610895D02*
X142107200Y-99658514D01*
X142107200Y-99658514D02*
X142154819Y-99753752D01*
X142154819Y-99753752D02*
X142154819Y-99944228D01*
X142154819Y-99944228D02*
X142107200Y-100039466D01*
X142107200Y-100039466D02*
X142059580Y-100087085D01*
X142059580Y-100087085D02*
X141964342Y-100134704D01*
X141964342Y-100134704D02*
X141773866Y-100134704D01*
X141773866Y-100134704D02*
X141678628Y-100087085D01*
X141678628Y-100087085D02*
X141631009Y-100039466D01*
X141631009Y-100039466D02*
X141583390Y-99944228D01*
X139859580Y-90133333D02*
X139907200Y-90085714D01*
X139907200Y-90085714D02*
X139954819Y-89942857D01*
X139954819Y-89942857D02*
X139954819Y-89847619D01*
X139954819Y-89847619D02*
X139907200Y-89704762D01*
X139907200Y-89704762D02*
X139811961Y-89609524D01*
X139811961Y-89609524D02*
X139716723Y-89561905D01*
X139716723Y-89561905D02*
X139526247Y-89514286D01*
X139526247Y-89514286D02*
X139383390Y-89514286D01*
X139383390Y-89514286D02*
X139192914Y-89561905D01*
X139192914Y-89561905D02*
X139097676Y-89609524D01*
X139097676Y-89609524D02*
X139002438Y-89704762D01*
X139002438Y-89704762D02*
X138954819Y-89847619D01*
X138954819Y-89847619D02*
X138954819Y-89942857D01*
X138954819Y-89942857D02*
X139002438Y-90085714D01*
X139002438Y-90085714D02*
X139050057Y-90133333D01*
X138954819Y-90466667D02*
X138954819Y-91085714D01*
X138954819Y-91085714D02*
X139335771Y-90752381D01*
X139335771Y-90752381D02*
X139335771Y-90895238D01*
X139335771Y-90895238D02*
X139383390Y-90990476D01*
X139383390Y-90990476D02*
X139431009Y-91038095D01*
X139431009Y-91038095D02*
X139526247Y-91085714D01*
X139526247Y-91085714D02*
X139764342Y-91085714D01*
X139764342Y-91085714D02*
X139859580Y-91038095D01*
X139859580Y-91038095D02*
X139907200Y-90990476D01*
X139907200Y-90990476D02*
X139954819Y-90895238D01*
X139954819Y-90895238D02*
X139954819Y-90609524D01*
X139954819Y-90609524D02*
X139907200Y-90514286D01*
X139907200Y-90514286D02*
X139859580Y-90466667D01*
X127242857Y-135254819D02*
X127576190Y-134778628D01*
X127814285Y-135254819D02*
X127814285Y-134254819D01*
X127814285Y-134254819D02*
X127433333Y-134254819D01*
X127433333Y-134254819D02*
X127338095Y-134302438D01*
X127338095Y-134302438D02*
X127290476Y-134350057D01*
X127290476Y-134350057D02*
X127242857Y-134445295D01*
X127242857Y-134445295D02*
X127242857Y-134588152D01*
X127242857Y-134588152D02*
X127290476Y-134683390D01*
X127290476Y-134683390D02*
X127338095Y-134731009D01*
X127338095Y-134731009D02*
X127433333Y-134778628D01*
X127433333Y-134778628D02*
X127814285Y-134778628D01*
X126290476Y-135254819D02*
X126861904Y-135254819D01*
X126576190Y-135254819D02*
X126576190Y-134254819D01*
X126576190Y-134254819D02*
X126671428Y-134397676D01*
X126671428Y-134397676D02*
X126766666Y-134492914D01*
X126766666Y-134492914D02*
X126861904Y-134540533D01*
X125957142Y-134254819D02*
X125338095Y-134254819D01*
X125338095Y-134254819D02*
X125671428Y-134635771D01*
X125671428Y-134635771D02*
X125528571Y-134635771D01*
X125528571Y-134635771D02*
X125433333Y-134683390D01*
X125433333Y-134683390D02*
X125385714Y-134731009D01*
X125385714Y-134731009D02*
X125338095Y-134826247D01*
X125338095Y-134826247D02*
X125338095Y-135064342D01*
X125338095Y-135064342D02*
X125385714Y-135159580D01*
X125385714Y-135159580D02*
X125433333Y-135207200D01*
X125433333Y-135207200D02*
X125528571Y-135254819D01*
X125528571Y-135254819D02*
X125814285Y-135254819D01*
X125814285Y-135254819D02*
X125909523Y-135207200D01*
X125909523Y-135207200D02*
X125957142Y-135159580D01*
X134542857Y-134454819D02*
X134876190Y-133978628D01*
X135114285Y-134454819D02*
X135114285Y-133454819D01*
X135114285Y-133454819D02*
X134733333Y-133454819D01*
X134733333Y-133454819D02*
X134638095Y-133502438D01*
X134638095Y-133502438D02*
X134590476Y-133550057D01*
X134590476Y-133550057D02*
X134542857Y-133645295D01*
X134542857Y-133645295D02*
X134542857Y-133788152D01*
X134542857Y-133788152D02*
X134590476Y-133883390D01*
X134590476Y-133883390D02*
X134638095Y-133931009D01*
X134638095Y-133931009D02*
X134733333Y-133978628D01*
X134733333Y-133978628D02*
X135114285Y-133978628D01*
X133590476Y-134454819D02*
X134161904Y-134454819D01*
X133876190Y-134454819D02*
X133876190Y-133454819D01*
X133876190Y-133454819D02*
X133971428Y-133597676D01*
X133971428Y-133597676D02*
X134066666Y-133692914D01*
X134066666Y-133692914D02*
X134161904Y-133740533D01*
X132733333Y-133788152D02*
X132733333Y-134454819D01*
X132971428Y-133407200D02*
X133209523Y-134121485D01*
X133209523Y-134121485D02*
X132590476Y-134121485D01*
X128176666Y-136759580D02*
X128224285Y-136807200D01*
X128224285Y-136807200D02*
X128367142Y-136854819D01*
X128367142Y-136854819D02*
X128462380Y-136854819D01*
X128462380Y-136854819D02*
X128605237Y-136807200D01*
X128605237Y-136807200D02*
X128700475Y-136711961D01*
X128700475Y-136711961D02*
X128748094Y-136616723D01*
X128748094Y-136616723D02*
X128795713Y-136426247D01*
X128795713Y-136426247D02*
X128795713Y-136283390D01*
X128795713Y-136283390D02*
X128748094Y-136092914D01*
X128748094Y-136092914D02*
X128700475Y-135997676D01*
X128700475Y-135997676D02*
X128605237Y-135902438D01*
X128605237Y-135902438D02*
X128462380Y-135854819D01*
X128462380Y-135854819D02*
X128367142Y-135854819D01*
X128367142Y-135854819D02*
X128224285Y-135902438D01*
X128224285Y-135902438D02*
X128176666Y-135950057D01*
X127605237Y-136283390D02*
X127700475Y-136235771D01*
X127700475Y-136235771D02*
X127748094Y-136188152D01*
X127748094Y-136188152D02*
X127795713Y-136092914D01*
X127795713Y-136092914D02*
X127795713Y-136045295D01*
X127795713Y-136045295D02*
X127748094Y-135950057D01*
X127748094Y-135950057D02*
X127700475Y-135902438D01*
X127700475Y-135902438D02*
X127605237Y-135854819D01*
X127605237Y-135854819D02*
X127414761Y-135854819D01*
X127414761Y-135854819D02*
X127319523Y-135902438D01*
X127319523Y-135902438D02*
X127271904Y-135950057D01*
X127271904Y-135950057D02*
X127224285Y-136045295D01*
X127224285Y-136045295D02*
X127224285Y-136092914D01*
X127224285Y-136092914D02*
X127271904Y-136188152D01*
X127271904Y-136188152D02*
X127319523Y-136235771D01*
X127319523Y-136235771D02*
X127414761Y-136283390D01*
X127414761Y-136283390D02*
X127605237Y-136283390D01*
X127605237Y-136283390D02*
X127700475Y-136331009D01*
X127700475Y-136331009D02*
X127748094Y-136378628D01*
X127748094Y-136378628D02*
X127795713Y-136473866D01*
X127795713Y-136473866D02*
X127795713Y-136664342D01*
X127795713Y-136664342D02*
X127748094Y-136759580D01*
X127748094Y-136759580D02*
X127700475Y-136807200D01*
X127700475Y-136807200D02*
X127605237Y-136854819D01*
X127605237Y-136854819D02*
X127414761Y-136854819D01*
X127414761Y-136854819D02*
X127319523Y-136807200D01*
X127319523Y-136807200D02*
X127271904Y-136759580D01*
X127271904Y-136759580D02*
X127224285Y-136664342D01*
X127224285Y-136664342D02*
X127224285Y-136473866D01*
X127224285Y-136473866D02*
X127271904Y-136378628D01*
X127271904Y-136378628D02*
X127319523Y-136331009D01*
X127319523Y-136331009D02*
X127414761Y-136283390D01*
X128566666Y-100719580D02*
X128614285Y-100767200D01*
X128614285Y-100767200D02*
X128757142Y-100814819D01*
X128757142Y-100814819D02*
X128852380Y-100814819D01*
X128852380Y-100814819D02*
X128995237Y-100767200D01*
X128995237Y-100767200D02*
X129090475Y-100671961D01*
X129090475Y-100671961D02*
X129138094Y-100576723D01*
X129138094Y-100576723D02*
X129185713Y-100386247D01*
X129185713Y-100386247D02*
X129185713Y-100243390D01*
X129185713Y-100243390D02*
X129138094Y-100052914D01*
X129138094Y-100052914D02*
X129090475Y-99957676D01*
X129090475Y-99957676D02*
X128995237Y-99862438D01*
X128995237Y-99862438D02*
X128852380Y-99814819D01*
X128852380Y-99814819D02*
X128757142Y-99814819D01*
X128757142Y-99814819D02*
X128614285Y-99862438D01*
X128614285Y-99862438D02*
X128566666Y-99910057D01*
X128233332Y-99814819D02*
X127566666Y-99814819D01*
X127566666Y-99814819D02*
X127995237Y-100814819D01*
X143659580Y-98033333D02*
X143707200Y-97985714D01*
X143707200Y-97985714D02*
X143754819Y-97842857D01*
X143754819Y-97842857D02*
X143754819Y-97747619D01*
X143754819Y-97747619D02*
X143707200Y-97604762D01*
X143707200Y-97604762D02*
X143611961Y-97509524D01*
X143611961Y-97509524D02*
X143516723Y-97461905D01*
X143516723Y-97461905D02*
X143326247Y-97414286D01*
X143326247Y-97414286D02*
X143183390Y-97414286D01*
X143183390Y-97414286D02*
X142992914Y-97461905D01*
X142992914Y-97461905D02*
X142897676Y-97509524D01*
X142897676Y-97509524D02*
X142802438Y-97604762D01*
X142802438Y-97604762D02*
X142754819Y-97747619D01*
X142754819Y-97747619D02*
X142754819Y-97842857D01*
X142754819Y-97842857D02*
X142802438Y-97985714D01*
X142802438Y-97985714D02*
X142850057Y-98033333D01*
X143754819Y-98509524D02*
X143754819Y-98700000D01*
X143754819Y-98700000D02*
X143707200Y-98795238D01*
X143707200Y-98795238D02*
X143659580Y-98842857D01*
X143659580Y-98842857D02*
X143516723Y-98938095D01*
X143516723Y-98938095D02*
X143326247Y-98985714D01*
X143326247Y-98985714D02*
X142945295Y-98985714D01*
X142945295Y-98985714D02*
X142850057Y-98938095D01*
X142850057Y-98938095D02*
X142802438Y-98890476D01*
X142802438Y-98890476D02*
X142754819Y-98795238D01*
X142754819Y-98795238D02*
X142754819Y-98604762D01*
X142754819Y-98604762D02*
X142802438Y-98509524D01*
X142802438Y-98509524D02*
X142850057Y-98461905D01*
X142850057Y-98461905D02*
X142945295Y-98414286D01*
X142945295Y-98414286D02*
X143183390Y-98414286D01*
X143183390Y-98414286D02*
X143278628Y-98461905D01*
X143278628Y-98461905D02*
X143326247Y-98509524D01*
X143326247Y-98509524D02*
X143373866Y-98604762D01*
X143373866Y-98604762D02*
X143373866Y-98795238D01*
X143373866Y-98795238D02*
X143326247Y-98890476D01*
X143326247Y-98890476D02*
X143278628Y-98938095D01*
X143278628Y-98938095D02*
X143183390Y-98985714D01*
X140361905Y-132345180D02*
X140361905Y-133345180D01*
X140361905Y-133345180D02*
X140600000Y-133345180D01*
X140600000Y-133345180D02*
X140742857Y-133297561D01*
X140742857Y-133297561D02*
X140838095Y-133202323D01*
X140838095Y-133202323D02*
X140885714Y-133107085D01*
X140885714Y-133107085D02*
X140933333Y-132916609D01*
X140933333Y-132916609D02*
X140933333Y-132773752D01*
X140933333Y-132773752D02*
X140885714Y-132583276D01*
X140885714Y-132583276D02*
X140838095Y-132488038D01*
X140838095Y-132488038D02*
X140742857Y-132392800D01*
X140742857Y-132392800D02*
X140600000Y-132345180D01*
X140600000Y-132345180D02*
X140361905Y-132345180D01*
X141838095Y-133345180D02*
X141361905Y-133345180D01*
X141361905Y-133345180D02*
X141314286Y-132868990D01*
X141314286Y-132868990D02*
X141361905Y-132916609D01*
X141361905Y-132916609D02*
X141457143Y-132964228D01*
X141457143Y-132964228D02*
X141695238Y-132964228D01*
X141695238Y-132964228D02*
X141790476Y-132916609D01*
X141790476Y-132916609D02*
X141838095Y-132868990D01*
X141838095Y-132868990D02*
X141885714Y-132773752D01*
X141885714Y-132773752D02*
X141885714Y-132535657D01*
X141885714Y-132535657D02*
X141838095Y-132440419D01*
X141838095Y-132440419D02*
X141790476Y-132392800D01*
X141790476Y-132392800D02*
X141695238Y-132345180D01*
X141695238Y-132345180D02*
X141457143Y-132345180D01*
X141457143Y-132345180D02*
X141361905Y-132392800D01*
X141361905Y-132392800D02*
X141314286Y-132440419D01*
X139194999Y-132254819D02*
X139194999Y-132492914D01*
X139433094Y-132397676D02*
X139194999Y-132492914D01*
X139194999Y-132492914D02*
X138956904Y-132397676D01*
X139337856Y-132683390D02*
X139194999Y-132492914D01*
X139194999Y-132492914D02*
X139052142Y-132683390D01*
X139195000Y-133345180D02*
X139195000Y-133107085D01*
X138956905Y-133202323D02*
X139195000Y-133107085D01*
X139195000Y-133107085D02*
X139433095Y-133202323D01*
X139052143Y-132916609D02*
X139195000Y-133107085D01*
X139195000Y-133107085D02*
X139337857Y-132916609D01*
X128642857Y-99014819D02*
X128976190Y-98538628D01*
X129214285Y-99014819D02*
X129214285Y-98014819D01*
X129214285Y-98014819D02*
X128833333Y-98014819D01*
X128833333Y-98014819D02*
X128738095Y-98062438D01*
X128738095Y-98062438D02*
X128690476Y-98110057D01*
X128690476Y-98110057D02*
X128642857Y-98205295D01*
X128642857Y-98205295D02*
X128642857Y-98348152D01*
X128642857Y-98348152D02*
X128690476Y-98443390D01*
X128690476Y-98443390D02*
X128738095Y-98491009D01*
X128738095Y-98491009D02*
X128833333Y-98538628D01*
X128833333Y-98538628D02*
X129214285Y-98538628D01*
X127690476Y-99014819D02*
X128261904Y-99014819D01*
X127976190Y-99014819D02*
X127976190Y-98014819D01*
X127976190Y-98014819D02*
X128071428Y-98157676D01*
X128071428Y-98157676D02*
X128166666Y-98252914D01*
X128166666Y-98252914D02*
X128261904Y-98300533D01*
X126833333Y-98014819D02*
X127023809Y-98014819D01*
X127023809Y-98014819D02*
X127119047Y-98062438D01*
X127119047Y-98062438D02*
X127166666Y-98110057D01*
X127166666Y-98110057D02*
X127261904Y-98252914D01*
X127261904Y-98252914D02*
X127309523Y-98443390D01*
X127309523Y-98443390D02*
X127309523Y-98824342D01*
X127309523Y-98824342D02*
X127261904Y-98919580D01*
X127261904Y-98919580D02*
X127214285Y-98967200D01*
X127214285Y-98967200D02*
X127119047Y-99014819D01*
X127119047Y-99014819D02*
X126928571Y-99014819D01*
X126928571Y-99014819D02*
X126833333Y-98967200D01*
X126833333Y-98967200D02*
X126785714Y-98919580D01*
X126785714Y-98919580D02*
X126738095Y-98824342D01*
X126738095Y-98824342D02*
X126738095Y-98586247D01*
X126738095Y-98586247D02*
X126785714Y-98491009D01*
X126785714Y-98491009D02*
X126833333Y-98443390D01*
X126833333Y-98443390D02*
X126928571Y-98395771D01*
X126928571Y-98395771D02*
X127119047Y-98395771D01*
X127119047Y-98395771D02*
X127214285Y-98443390D01*
X127214285Y-98443390D02*
X127261904Y-98491009D01*
X127261904Y-98491009D02*
X127309523Y-98586247D01*
X125554819Y-139133333D02*
X125078628Y-138800000D01*
X125554819Y-138561905D02*
X124554819Y-138561905D01*
X124554819Y-138561905D02*
X124554819Y-138942857D01*
X124554819Y-138942857D02*
X124602438Y-139038095D01*
X124602438Y-139038095D02*
X124650057Y-139085714D01*
X124650057Y-139085714D02*
X124745295Y-139133333D01*
X124745295Y-139133333D02*
X124888152Y-139133333D01*
X124888152Y-139133333D02*
X124983390Y-139085714D01*
X124983390Y-139085714D02*
X125031009Y-139038095D01*
X125031009Y-139038095D02*
X125078628Y-138942857D01*
X125078628Y-138942857D02*
X125078628Y-138561905D01*
X125554819Y-139609524D02*
X125554819Y-139800000D01*
X125554819Y-139800000D02*
X125507200Y-139895238D01*
X125507200Y-139895238D02*
X125459580Y-139942857D01*
X125459580Y-139942857D02*
X125316723Y-140038095D01*
X125316723Y-140038095D02*
X125126247Y-140085714D01*
X125126247Y-140085714D02*
X124745295Y-140085714D01*
X124745295Y-140085714D02*
X124650057Y-140038095D01*
X124650057Y-140038095D02*
X124602438Y-139990476D01*
X124602438Y-139990476D02*
X124554819Y-139895238D01*
X124554819Y-139895238D02*
X124554819Y-139704762D01*
X124554819Y-139704762D02*
X124602438Y-139609524D01*
X124602438Y-139609524D02*
X124650057Y-139561905D01*
X124650057Y-139561905D02*
X124745295Y-139514286D01*
X124745295Y-139514286D02*
X124983390Y-139514286D01*
X124983390Y-139514286D02*
X125078628Y-139561905D01*
X125078628Y-139561905D02*
X125126247Y-139609524D01*
X125126247Y-139609524D02*
X125173866Y-139704762D01*
X125173866Y-139704762D02*
X125173866Y-139895238D01*
X125173866Y-139895238D02*
X125126247Y-139990476D01*
X125126247Y-139990476D02*
X125078628Y-140038095D01*
X125078628Y-140038095D02*
X124983390Y-140085714D01*
X128062857Y-138459580D02*
X128110476Y-138507200D01*
X128110476Y-138507200D02*
X128253333Y-138554819D01*
X128253333Y-138554819D02*
X128348571Y-138554819D01*
X128348571Y-138554819D02*
X128491428Y-138507200D01*
X128491428Y-138507200D02*
X128586666Y-138411961D01*
X128586666Y-138411961D02*
X128634285Y-138316723D01*
X128634285Y-138316723D02*
X128681904Y-138126247D01*
X128681904Y-138126247D02*
X128681904Y-137983390D01*
X128681904Y-137983390D02*
X128634285Y-137792914D01*
X128634285Y-137792914D02*
X128586666Y-137697676D01*
X128586666Y-137697676D02*
X128491428Y-137602438D01*
X128491428Y-137602438D02*
X128348571Y-137554819D01*
X128348571Y-137554819D02*
X128253333Y-137554819D01*
X128253333Y-137554819D02*
X128110476Y-137602438D01*
X128110476Y-137602438D02*
X128062857Y-137650057D01*
X127110476Y-138554819D02*
X127681904Y-138554819D01*
X127396190Y-138554819D02*
X127396190Y-137554819D01*
X127396190Y-137554819D02*
X127491428Y-137697676D01*
X127491428Y-137697676D02*
X127586666Y-137792914D01*
X127586666Y-137792914D02*
X127681904Y-137840533D01*
X126491428Y-137554819D02*
X126396190Y-137554819D01*
X126396190Y-137554819D02*
X126300952Y-137602438D01*
X126300952Y-137602438D02*
X126253333Y-137650057D01*
X126253333Y-137650057D02*
X126205714Y-137745295D01*
X126205714Y-137745295D02*
X126158095Y-137935771D01*
X126158095Y-137935771D02*
X126158095Y-138173866D01*
X126158095Y-138173866D02*
X126205714Y-138364342D01*
X126205714Y-138364342D02*
X126253333Y-138459580D01*
X126253333Y-138459580D02*
X126300952Y-138507200D01*
X126300952Y-138507200D02*
X126396190Y-138554819D01*
X126396190Y-138554819D02*
X126491428Y-138554819D01*
X126491428Y-138554819D02*
X126586666Y-138507200D01*
X126586666Y-138507200D02*
X126634285Y-138459580D01*
X126634285Y-138459580D02*
X126681904Y-138364342D01*
X126681904Y-138364342D02*
X126729523Y-138173866D01*
X126729523Y-138173866D02*
X126729523Y-137935771D01*
X126729523Y-137935771D02*
X126681904Y-137745295D01*
X126681904Y-137745295D02*
X126634285Y-137650057D01*
X126634285Y-137650057D02*
X126586666Y-137602438D01*
X126586666Y-137602438D02*
X126491428Y-137554819D01*
X126761904Y-107554819D02*
X126761904Y-108364342D01*
X126761904Y-108364342D02*
X126714285Y-108459580D01*
X126714285Y-108459580D02*
X126666666Y-108507200D01*
X126666666Y-108507200D02*
X126571428Y-108554819D01*
X126571428Y-108554819D02*
X126380952Y-108554819D01*
X126380952Y-108554819D02*
X126285714Y-108507200D01*
X126285714Y-108507200D02*
X126238095Y-108459580D01*
X126238095Y-108459580D02*
X126190476Y-108364342D01*
X126190476Y-108364342D02*
X126190476Y-107554819D01*
X125809523Y-107554819D02*
X125190476Y-107554819D01*
X125190476Y-107554819D02*
X125523809Y-107935771D01*
X125523809Y-107935771D02*
X125380952Y-107935771D01*
X125380952Y-107935771D02*
X125285714Y-107983390D01*
X125285714Y-107983390D02*
X125238095Y-108031009D01*
X125238095Y-108031009D02*
X125190476Y-108126247D01*
X125190476Y-108126247D02*
X125190476Y-108364342D01*
X125190476Y-108364342D02*
X125238095Y-108459580D01*
X125238095Y-108459580D02*
X125285714Y-108507200D01*
X125285714Y-108507200D02*
X125380952Y-108554819D01*
X125380952Y-108554819D02*
X125666666Y-108554819D01*
X125666666Y-108554819D02*
X125761904Y-108507200D01*
X125761904Y-108507200D02*
X125809523Y-108459580D01*
D13*
X126510930Y-127456180D02*
X126510930Y-127218085D01*
X126272835Y-127313323D02*
X126510930Y-127218085D01*
X126510930Y-127218085D02*
X126749025Y-127313323D01*
X126368073Y-127027609D02*
X126510930Y-127218085D01*
X126510930Y-127218085D02*
X126653787Y-127027609D01*
%TO.C,Q2*%
X136700000Y-100397800D02*
X138700000Y-100397800D01*
X136700000Y-101147800D02*
X136700000Y-100397800D01*
X138700000Y-100397800D02*
X138700000Y-101147800D01*
X138700000Y-101147800D02*
X136700000Y-101147800D01*
X138850000Y-101497800D02*
X138850000Y-102247800D01*
D14*
%TO.C,R8*%
X90320000Y-133833641D02*
X90320000Y-133526359D01*
X91080000Y-133833641D02*
X91080000Y-133526359D01*
D15*
%TO.C,L1*%
X127355200Y-89982100D02*
X127355200Y-95976500D01*
X127355200Y-95976500D02*
X128470260Y-95976500D01*
X128470260Y-89982100D02*
X127355200Y-89982100D01*
X131929740Y-95976500D02*
X133044800Y-95976500D01*
X133044800Y-89982100D02*
X131929740Y-89982100D01*
X133044800Y-95976500D02*
X133044800Y-89982100D01*
X130276200Y-97119500D02*
G75*
G02*
X130123800Y-97119500I-76200J0D01*
G01*
X130123800Y-97119500D02*
G75*
G02*
X130276200Y-97119500I76200J0D01*
G01*
%TO.C,D4*%
X143128700Y-135625500D02*
X143128700Y-135310540D01*
X143128700Y-134289460D02*
X143128700Y-133974500D01*
X143128700Y-133974500D02*
X141071300Y-133974500D01*
X141071300Y-135625500D02*
X143128700Y-135625500D01*
X141071300Y-135310540D02*
X141071300Y-135625500D01*
X141071300Y-133974500D02*
X141071300Y-134289460D01*
D14*
%TO.C,R23*%
X90320000Y-131336359D02*
X90320000Y-131643641D01*
X91080000Y-131336359D02*
X91080000Y-131643641D01*
%TO.C,R17*%
X139720000Y-101119159D02*
X139720000Y-101426441D01*
X140480000Y-101119159D02*
X140480000Y-101426441D01*
%TO.C,U1*%
X90190000Y-125730000D02*
X90190000Y-127130000D01*
X92510000Y-125730000D02*
X92510000Y-127140000D01*
X92790000Y-127750000D02*
X92460000Y-127510000D01*
X92790000Y-127270000D01*
X92790000Y-127750000D01*
G36*
X92790000Y-127750000D02*
G01*
X92460000Y-127510000D01*
X92790000Y-127270000D01*
X92790000Y-127750000D01*
G37*
%TO.C,C6*%
X140490000Y-89784420D02*
X140490000Y-90065580D01*
X141510000Y-89784420D02*
X141510000Y-90065580D01*
%TO.C,U7*%
X140925000Y-94340000D02*
X142925000Y-94340000D01*
X142925000Y-96560000D02*
X140925000Y-96560000D01*
X140525000Y-96570000D02*
X140245000Y-96290000D01*
X140525000Y-96290000D01*
X140525000Y-96570000D01*
G36*
X140525000Y-96570000D02*
G01*
X140245000Y-96290000D01*
X140525000Y-96290000D01*
X140525000Y-96570000D01*
G37*
%TO.C,R20*%
X139146359Y-103620000D02*
X139453641Y-103620000D01*
X139146359Y-104380000D02*
X139453641Y-104380000D01*
%TO.C,R19*%
X139146359Y-104920000D02*
X139453641Y-104920000D01*
X139146359Y-105680000D02*
X139453641Y-105680000D01*
%TO.C,C1*%
X104094420Y-136290000D02*
X104375580Y-136290000D01*
X104094420Y-137310000D02*
X104375580Y-137310000D01*
%TO.C,R7*%
X130046359Y-106020000D02*
X130353641Y-106020000D01*
X130046359Y-106780000D02*
X130353641Y-106780000D01*
D15*
%TO.C,D6*%
X139971300Y-130074500D02*
X139971300Y-130389460D01*
X139971300Y-131410540D02*
X139971300Y-131725500D01*
X139971300Y-131725500D02*
X142028700Y-131725500D01*
X142028700Y-130074500D02*
X139971300Y-130074500D01*
X142028700Y-130389460D02*
X142028700Y-130074500D01*
X142028700Y-131725500D02*
X142028700Y-131410540D01*
D14*
%TO.C,R1*%
X91520000Y-131256359D02*
X91520000Y-131563641D01*
X92280000Y-131256359D02*
X92280000Y-131563641D01*
%TO.C,R21*%
X130363641Y-103320000D02*
X130056359Y-103320000D01*
X130363641Y-104080000D02*
X130056359Y-104080000D01*
%TO.C,R3*%
X91520000Y-133763641D02*
X91520000Y-133456359D01*
X92280000Y-133763641D02*
X92280000Y-133456359D01*
%TO.C,C2*%
X94659420Y-136390000D02*
X94940580Y-136390000D01*
X94659420Y-137410000D02*
X94940580Y-137410000D01*
%TO.C,R22*%
X130353641Y-104720000D02*
X130046359Y-104720000D01*
X130353641Y-105480000D02*
X130046359Y-105480000D01*
D11*
%TO.C,U8*%
X134553032Y-102722799D02*
X136553034Y-102722799D01*
X134553032Y-105522799D02*
X136553034Y-105522799D01*
D16*
X137428034Y-103372798D02*
G75*
G02*
X137178032Y-103372798I-125001J0D01*
G01*
X137178032Y-103372798D02*
G75*
G02*
X137428034Y-103372798I125001J0D01*
G01*
D14*
%TO.C,R10*%
X124136359Y-135230000D02*
X124443641Y-135230000D01*
X124136359Y-135990000D02*
X124443641Y-135990000D01*
%TO.C,C11*%
X131059420Y-101590000D02*
X131340580Y-101590000D01*
X131059420Y-102610000D02*
X131340580Y-102610000D01*
%TO.C,U6*%
X99520000Y-131550000D02*
X99520000Y-98530000D01*
X100810000Y-100970000D02*
X100810000Y-126570000D01*
X100810000Y-126570000D02*
X103550000Y-126570000D01*
X102180000Y-95870000D02*
X122500000Y-95870000D01*
X102180000Y-134210000D02*
X122500000Y-134210000D01*
X103550000Y-100970000D02*
X100810000Y-100970000D01*
X103550000Y-126570000D02*
X103550000Y-100970000D01*
X121130000Y-100970000D02*
X121130000Y-126570000D01*
X121130000Y-126570000D02*
X123870000Y-126570000D01*
X123540000Y-95740000D02*
X125290000Y-95740000D01*
X123870000Y-100970000D02*
X121130000Y-100970000D01*
X123870000Y-126570000D02*
X123870000Y-100970000D01*
X125160000Y-131550000D02*
X125160000Y-98530000D01*
X125290000Y-95740000D02*
X125290000Y-97490000D01*
X99520000Y-98530000D02*
G75*
G02*
X102180000Y-95870000I2660000J0D01*
G01*
X102180000Y-134210000D02*
G75*
G02*
X99520000Y-131550000I0J2660000D01*
G01*
X122500000Y-95870000D02*
G75*
G02*
X125160000Y-98530000I0J-2660000D01*
G01*
X125160000Y-131550000D02*
G75*
G02*
X122500000Y-134210000I-2660000J0D01*
G01*
%TO.C,R15*%
X136662742Y-132422500D02*
X137137258Y-132422500D01*
X136662742Y-131377500D02*
X137137258Y-131377500D01*
%TO.C,R5*%
X98220000Y-128446359D02*
X98220000Y-128753641D01*
X98980000Y-128446359D02*
X98980000Y-128753641D01*
%TO.C,R18*%
X141120000Y-101426441D02*
X141120000Y-101119159D01*
X141880000Y-101426441D02*
X141880000Y-101119159D01*
%TO.C,C3*%
X142210000Y-89784420D02*
X142210000Y-90065580D01*
X143230000Y-89784420D02*
X143230000Y-90065580D01*
%TO.C,R13*%
X129153641Y-134320000D02*
X128846359Y-134320000D01*
X129153641Y-135080000D02*
X128846359Y-135080000D01*
%TO.C,R14*%
X136662742Y-133177500D02*
X137137258Y-133177500D01*
X136662742Y-134222500D02*
X137137258Y-134222500D01*
%TO.C,C8*%
X130359420Y-135890000D02*
X130640580Y-135890000D01*
X130359420Y-136910000D02*
X130640580Y-136910000D01*
%TO.C,C7*%
X130959420Y-99790000D02*
X131240580Y-99790000D01*
X130959420Y-100810000D02*
X131240580Y-100810000D01*
%TO.C,C9*%
X142790000Y-100584420D02*
X142790000Y-100865580D01*
X143810000Y-100584420D02*
X143810000Y-100865580D01*
D15*
%TO.C,D5*%
X140071300Y-131974500D02*
X140071300Y-132289460D01*
X140071300Y-133310540D02*
X140071300Y-133625500D01*
X140071300Y-133625500D02*
X142128700Y-133625500D01*
X142128700Y-131974500D02*
X140071300Y-131974500D01*
X142128700Y-132289460D02*
X142128700Y-131974500D01*
X142128700Y-133625500D02*
X142128700Y-133310540D01*
D14*
%TO.C,R16*%
X130762742Y-97977500D02*
X131237258Y-97977500D01*
X130762742Y-99022500D02*
X131237258Y-99022500D01*
%TO.C,R9*%
X124520000Y-136956359D02*
X124520000Y-137263641D01*
X125280000Y-136956359D02*
X125280000Y-137263641D01*
%TO.C,C10*%
X130359420Y-137990000D02*
X130640580Y-137990000D01*
X130359420Y-139010000D02*
X130640580Y-139010000D01*
D17*
%TO.C,U3*%
X137961003Y-117483400D02*
G75*
G02*
X137601797Y-117483400I-179603J0D01*
G01*
X137601797Y-117483400D02*
G75*
G02*
X137961003Y-117483400I179603J0D01*
G01*
D18*
X143398400Y-129323400D02*
X143398400Y-107323400D01*
X143398400Y-107323400D02*
X127248400Y-107323400D01*
D19*
X139940400Y-119769400D02*
X139940400Y-115705400D01*
X139940400Y-115705400D02*
X135876400Y-115705400D01*
D17*
X139559400Y-117483400D02*
X139051400Y-117864400D01*
X139559400Y-117483400D02*
X137781400Y-117483400D01*
X139051400Y-117102400D02*
X139559400Y-117483400D01*
X137781400Y-119388400D02*
X138162400Y-118880400D01*
X137781400Y-119388400D02*
X137781400Y-117483400D01*
X137400400Y-118880400D02*
X137781400Y-119388400D01*
X137146400Y-116340400D02*
X136511400Y-116213400D01*
X136638400Y-116848400D02*
X136511400Y-116213400D01*
X136511400Y-116213400D02*
X137781400Y-117483400D01*
D19*
X135876400Y-119769400D02*
X139940400Y-119769400D01*
X135876400Y-115705400D02*
X135876400Y-119769400D01*
D18*
X127248400Y-129323400D02*
X143398400Y-129323400D01*
X127248400Y-107323400D02*
X127248400Y-129323400D01*
%TD*%
M02*
