%TF.GenerationSoftware,KiCad,Pcbnew,8.0.0*%
%TF.CreationDate,2025-02-07T12:17:38-03:30*%
%TF.ProjectId,Detection_Eval,44657465-6374-4696-9f6e-5f4576616c2e,rev?*%
%TF.SameCoordinates,Original*%
%TF.FileFunction,Soldermask,Bot*%
%TF.FilePolarity,Negative*%
%FSLAX46Y46*%
G04 Gerber Fmt 4.6, Leading zero omitted, Abs format (unit mm)*
G04 Created by KiCad (PCBNEW 8.0.0) date 2025-02-07 12:17:38*
%MOMM*%
%LPD*%
G01*
G04 APERTURE LIST*
G04 Aperture macros list*
%AMRoundRect*
0 Rectangle with rounded corners*
0 $1 Rounding radius*
0 $2 $3 $4 $5 $6 $7 $8 $9 X,Y pos of 4 corners*
0 Add a 4 corners polygon primitive as box body*
4,1,4,$2,$3,$4,$5,$6,$7,$8,$9,$2,$3,0*
0 Add four circle primitives for the rounded corners*
1,1,$1+$1,$2,$3*
1,1,$1+$1,$4,$5*
1,1,$1+$1,$6,$7*
1,1,$1+$1,$8,$9*
0 Add four rect primitives between the rounded corners*
20,1,$1+$1,$2,$3,$4,$5,0*
20,1,$1+$1,$4,$5,$6,$7,0*
20,1,$1+$1,$6,$7,$8,$9,0*
20,1,$1+$1,$8,$9,$2,$3,0*%
G04 Aperture macros list end*
%ADD10O,1.700000X1.700000*%
%ADD11R,1.700000X1.700000*%
%ADD12C,0.854000*%
%ADD13O,1.104000X1.904000*%
%ADD14O,1.104000X2.604000*%
%ADD15C,1.498600*%
%ADD16C,1.803400*%
%ADD17C,1.964000*%
%ADD18R,0.500000X0.750000*%
%ADD19RoundRect,0.135000X-0.185000X0.135000X-0.185000X-0.135000X0.185000X-0.135000X0.185000X0.135000X0*%
%ADD20R,2.794000X2.958600*%
%ADD21R,0.812800X0.355600*%
%ADD22RoundRect,0.135000X0.185000X-0.135000X0.185000X0.135000X-0.185000X0.135000X-0.185000X-0.135000X0*%
%ADD23RoundRect,0.100000X0.100000X-0.650000X0.100000X0.650000X-0.100000X0.650000X-0.100000X-0.650000X0*%
%ADD24RoundRect,0.225000X0.250000X-0.225000X0.250000X0.225000X-0.250000X0.225000X-0.250000X-0.225000X0*%
%ADD25RoundRect,0.087500X-0.487500X-0.087500X0.487500X-0.087500X0.487500X0.087500X-0.487500X0.087500X0*%
%ADD26RoundRect,0.050000X-0.675000X-0.050000X0.675000X-0.050000X0.675000X0.050000X-0.675000X0.050000X0*%
%ADD27RoundRect,0.062500X-0.162500X-0.062500X0.162500X-0.062500X0.162500X0.062500X-0.162500X0.062500X0*%
%ADD28RoundRect,0.135000X0.135000X0.185000X-0.135000X0.185000X-0.135000X-0.185000X0.135000X-0.185000X0*%
%ADD29RoundRect,0.102000X0.735000X-0.600000X0.735000X0.600000X-0.735000X0.600000X-0.735000X-0.600000X0*%
%ADD30RoundRect,0.225000X0.225000X0.250000X-0.225000X0.250000X-0.225000X-0.250000X0.225000X-0.250000X0*%
%ADD31RoundRect,0.135000X-0.135000X-0.185000X0.135000X-0.185000X0.135000X0.185000X-0.135000X0.185000X0*%
%ADD32R,0.806066X0.256842*%
%ADD33R,1.000000X3.000000*%
%ADD34R,2.082800X3.429000*%
%ADD35R,0.711200X1.524000*%
%ADD36R,2.100000X1.900000*%
%ADD37O,2.100000X1.900000*%
%ADD38RoundRect,0.200000X0.200000X0.275000X-0.200000X0.275000X-0.200000X-0.275000X0.200000X-0.275000X0*%
%ADD39O,3.204000X1.704000*%
G04 APERTURE END LIST*
D10*
%TO.C,U5*%
X96300000Y-124010000D03*
X96300000Y-121470000D03*
X96300000Y-118930000D03*
X96300000Y-116390000D03*
X96300000Y-113850000D03*
X96300000Y-111310000D03*
X96300000Y-108770000D03*
D11*
X96300000Y-106230000D03*
%TD*%
D12*
%TO.C,J1*%
X135560000Y-136840000D03*
X136410000Y-136840000D03*
X137260000Y-136840000D03*
X138110000Y-136840000D03*
X138960000Y-136840000D03*
X139810000Y-136840000D03*
X140660000Y-136840000D03*
X141510000Y-136840000D03*
X141510000Y-138190000D03*
X140660000Y-138190000D03*
X139810000Y-138190000D03*
X138960000Y-138190000D03*
X138110000Y-138190000D03*
X137260000Y-138190000D03*
X136410000Y-138190000D03*
X135560000Y-138190000D03*
D13*
X134210000Y-141200000D03*
X142860000Y-141200000D03*
D14*
X134210000Y-137820000D03*
X142860000Y-137820000D03*
%TD*%
D15*
%TO.C,U9*%
X102109999Y-139200000D03*
X106610000Y-139200000D03*
D16*
X100854999Y-136709701D03*
X107865000Y-136709701D03*
%TD*%
D17*
%TO.C,BT2*%
X91500000Y-93700000D03*
X137370000Y-93700000D03*
%TD*%
D15*
%TO.C,U2*%
X92471749Y-139166699D03*
X96971750Y-139166699D03*
D16*
X91216749Y-136676400D03*
X98226750Y-136676400D03*
%TD*%
D11*
%TO.C,U4*%
X122335000Y-138325000D03*
D10*
X119795000Y-138325000D03*
X117255000Y-138325000D03*
%TD*%
D18*
%TO.C,Q2*%
X138350000Y-101872800D03*
X137050000Y-101872800D03*
X137700000Y-99672800D03*
%TD*%
D19*
%TO.C,R8*%
X90700000Y-133170000D03*
X90700000Y-134190000D03*
%TD*%
D20*
%TO.C,L1*%
X130200000Y-95500000D03*
X130200000Y-90458600D03*
%TD*%
D21*
%TO.C,D4*%
X143217600Y-134800000D03*
X140982400Y-134800000D03*
%TD*%
D22*
%TO.C,R23*%
X90700000Y-132000000D03*
X90700000Y-130980000D03*
%TD*%
%TO.C,R17*%
X140100000Y-101782800D03*
X140100000Y-100762800D03*
%TD*%
D23*
%TO.C,U1*%
X92000000Y-127760000D03*
X91350000Y-127760000D03*
X90700000Y-127760000D03*
X90700000Y-125100000D03*
X92000000Y-125100000D03*
%TD*%
D24*
%TO.C,C6*%
X141000000Y-90700000D03*
X141000000Y-89150000D03*
%TD*%
D25*
%TO.C,U7*%
X141300000Y-96000000D03*
D26*
X141450000Y-95450000D03*
D25*
X141300000Y-94900000D03*
D27*
X142900000Y-94700000D03*
X142900000Y-95200000D03*
X142900000Y-95700000D03*
X142900000Y-96200000D03*
%TD*%
D28*
%TO.C,R20*%
X139810000Y-104000000D03*
X138790000Y-104000000D03*
%TD*%
%TO.C,R19*%
X139810000Y-105300000D03*
X138790000Y-105300000D03*
%TD*%
D29*
%TO.C,FB1*%
X131200000Y-134600000D03*
X131200000Y-132880000D03*
%TD*%
D30*
%TO.C,C1*%
X105010000Y-136800000D03*
X103460000Y-136800000D03*
%TD*%
D28*
%TO.C,R7*%
X130710000Y-106400000D03*
X129690000Y-106400000D03*
%TD*%
D21*
%TO.C,D6*%
X139882400Y-130900000D03*
X142117600Y-130900000D03*
%TD*%
D22*
%TO.C,R1*%
X91900000Y-131920000D03*
X91900000Y-130900000D03*
%TD*%
D31*
%TO.C,R21*%
X129700000Y-103700000D03*
X130720000Y-103700000D03*
%TD*%
D19*
%TO.C,R3*%
X91900000Y-133100000D03*
X91900000Y-134120000D03*
%TD*%
D30*
%TO.C,C2*%
X95575000Y-136900000D03*
X94025000Y-136900000D03*
%TD*%
D31*
%TO.C,R22*%
X129690000Y-105100000D03*
X130710000Y-105100000D03*
%TD*%
D32*
%TO.C,U8*%
X136606066Y-103372801D03*
X136606066Y-103872799D03*
X136606066Y-104372799D03*
X136606066Y-104872800D03*
X134500000Y-104872800D03*
X134500000Y-104372799D03*
X134500000Y-103872799D03*
X134500000Y-103372801D03*
D33*
X135553033Y-104122799D03*
%TD*%
D34*
%TO.C,D2*%
X134900000Y-97920300D03*
D35*
X134900000Y-100600000D03*
%TD*%
D28*
%TO.C,R10*%
X124800000Y-135610000D03*
X123780000Y-135610000D03*
%TD*%
D30*
%TO.C,C11*%
X131975000Y-102100000D03*
X130425000Y-102100000D03*
%TD*%
D36*
%TO.C,U6*%
X122500000Y-102340000D03*
D37*
X122500000Y-104880000D03*
X122500000Y-107420000D03*
X122500000Y-109960000D03*
X122500000Y-112500000D03*
X122500000Y-115040000D03*
X122500000Y-117580000D03*
X122500000Y-120120000D03*
X122500000Y-122660000D03*
X122500000Y-125200000D03*
X102180000Y-125200000D03*
X102180000Y-122660000D03*
X102180000Y-120120000D03*
X102180000Y-117580000D03*
X102180000Y-115040000D03*
X102180000Y-112500000D03*
X102180000Y-109960000D03*
X102180000Y-107420000D03*
X102180000Y-104880000D03*
X102180000Y-102340000D03*
%TD*%
D38*
%TO.C,R15*%
X136075000Y-131900000D03*
X137725000Y-131900000D03*
%TD*%
D22*
%TO.C,R5*%
X98600000Y-129110000D03*
X98600000Y-128090000D03*
%TD*%
D19*
%TO.C,R18*%
X141500000Y-100762800D03*
X141500000Y-101782800D03*
%TD*%
D24*
%TO.C,C3*%
X142720000Y-90700000D03*
X142720000Y-89150000D03*
%TD*%
D31*
%TO.C,R13*%
X128490000Y-134700000D03*
X129510000Y-134700000D03*
%TD*%
D38*
%TO.C,R14*%
X137725000Y-133700000D03*
X136075000Y-133700000D03*
%TD*%
D30*
%TO.C,C8*%
X131275000Y-136400000D03*
X129725000Y-136400000D03*
%TD*%
%TO.C,C7*%
X131875000Y-100300000D03*
X130325000Y-100300000D03*
%TD*%
D24*
%TO.C,C9*%
X143300000Y-101500000D03*
X143300000Y-99950000D03*
%TD*%
D21*
%TO.C,D5*%
X139982400Y-132800000D03*
X142217600Y-132800000D03*
%TD*%
D38*
%TO.C,R16*%
X131825000Y-98500000D03*
X130175000Y-98500000D03*
%TD*%
D22*
%TO.C,R9*%
X124900000Y-137620000D03*
X124900000Y-136600000D03*
%TD*%
D30*
%TO.C,C10*%
X131275000Y-138500000D03*
X129725000Y-138500000D03*
%TD*%
D39*
%TO.C,U3*%
X129018400Y-109387400D03*
X129018400Y-111927400D03*
X129018400Y-114467400D03*
X129018400Y-117007400D03*
X129018400Y-119547400D03*
X129018400Y-122087400D03*
X129018400Y-124627400D03*
X129018400Y-127167400D03*
%TD*%
M02*
