M48
; DRILL file {KiCad 8.0.0} date 2025-02-07T12:18:48-0330
; FORMAT={-:-/ absolute / inch / decimal}
; #@! TF.CreationDate,2025-02-07T12:18:48-03:30
; #@! TF.GenerationSoftware,Kicad,Pcbnew,8.0.0
; #@! TF.FileFunction,Plated,1,4,PTH
FMAT,2
INCH
; #@! TA.AperFunction,Plated,PTH,ViaDrill
T1C0.0118
; #@! TA.AperFunction,Plated,PTH,ComponentDrill
T2C0.0157
; #@! TA.AperFunction,Plated,PTH,ComponentDrill
T3C0.0236
; #@! TA.AperFunction,Plated,PTH,ComponentDrill
T4C0.0390
; #@! TA.AperFunction,Plated,PTH,ComponentDrill
T5C0.0394
; #@! TA.AperFunction,Plated,PTH,ComponentDrill
T6C0.0402
; #@! TA.AperFunction,Plated,PTH,ComponentDrill
T7C0.0461
; #@! TA.AperFunction,Plated,PTH,ComponentDrill
T8C0.0510
%
G90
G05
T1
X3.5709Y-5.0827
X3.5807Y-4.815
X3.6614Y-5.2835
X3.7008Y-5.2835
X3.7894Y-5.0846
X3.7933Y-5.2008
X3.9705Y-5.0531
X4.8406Y-5.3406
X4.9488Y-5.3386
X5.0236Y-5.2756
X5.0591Y-5.3583
X5.0591Y-5.3937
X5.0591Y-5.4291
X5.0591Y-5.4646
X5.0709Y-4.0866
X5.0709Y-4.1378
X5.0709Y-4.189
X5.0748Y-3.878
X5.0787Y-3.9567
X5.0787Y-4.0236
X5.1457Y-5.1831
X5.1811Y-5.1831
X5.2067Y-3.4961
X5.2067Y-3.5197
X5.2185Y-5.2894
X5.2185Y-5.3189
X5.2382Y-3.9665
X5.2382Y-4.0079
X5.2874Y-3.7638
X5.3071Y-5.3031
X5.3085Y-4.0225
X5.3091Y-5.2677
X5.3268Y-3.7638
X5.3425Y-4.185
X5.3445Y-4.2854
X5.3543Y-5.3071
X5.3819Y-4.185
X5.439Y-4.0452
X5.4626Y-5.1457
X5.4862Y-3.7579
X5.4882Y-3.815
X5.5079Y-3.5217
X5.5098Y-3.4961
X5.5138Y-3.9272
X5.5335Y-4.4902
X5.5335Y-4.5217
X5.5335Y-4.5531
X5.5354Y-3.689
X5.5394Y-4.0906
X5.5394Y-4.122
X5.5394Y-4.1535
X5.5453Y-3.9272
X5.5512Y-3.6102
X5.561Y-3.689
X5.5669Y-4.3878
X5.5697Y-4.4331
X5.6004Y-3.6594
X5.6181Y-3.6102
X5.6339Y-3.8209
X5.6457Y-4.2362
X5.6457Y-4.2854
X5.6457Y-4.3327
X5.6516Y-3.7008
X5.6535Y-5.1496
X5.6535Y-5.1929
X5.6535Y-5.2362
X5.6539Y-3.8858
X5.6539Y-4.0827
T2
X5.337Y-5.3874
X5.337Y-5.4406
X5.3705Y-5.3874
X5.3705Y-5.4406
X5.4039Y-5.3874
X5.4039Y-5.4406
X5.4374Y-5.3874
X5.4374Y-5.4406
X5.4709Y-5.3874
X5.4709Y-5.4406
X5.5043Y-5.3874
X5.5043Y-5.4406
X5.5378Y-5.3874
X5.5378Y-5.4406
X5.5713Y-5.3874
X5.5713Y-5.4406
T4
X3.6406Y-5.479
X3.8178Y-5.479
X4.0201Y-5.4803
X4.1972Y-5.4803
T5
X3.7913Y-4.1823
X3.7913Y-4.2823
X3.7913Y-4.3823
X3.7913Y-4.4823
X3.7913Y-4.5823
X3.7913Y-4.6823
X3.7913Y-4.7823
X3.7913Y-4.8823
X4.6163Y-5.4459
X4.7163Y-5.4459
X4.8163Y-5.4459
X5.0795Y-4.3066
X5.0795Y-4.4066
X5.0795Y-4.5066
X5.0795Y-4.6066
X5.0795Y-4.7066
X5.0795Y-4.8066
X5.0795Y-4.9066
X5.0795Y-5.0066
T6
X4.0228Y-4.0291
X4.0228Y-4.1291
X4.0228Y-4.2291
X4.0228Y-4.3291
X4.0228Y-4.4291
X4.0228Y-4.5291
X4.0228Y-4.6291
X4.0228Y-4.7291
X4.0228Y-4.8291
X4.0228Y-4.9291
X4.8228Y-4.0291
X4.8228Y-4.1291
X4.8228Y-4.2291
X4.8228Y-4.3291
X4.8228Y-4.4291
X4.8228Y-4.5291
X4.8228Y-4.6291
X4.8228Y-4.7291
X4.8228Y-4.8291
X4.8228Y-4.9291
T7
X3.6024Y-3.689
X5.4083Y-3.689
T8
X3.5912Y-5.381
X3.8672Y-5.381
X3.9707Y-5.3823
X4.2467Y-5.3823
T3
G00X5.2839Y-5.3965
M15
G01X5.2839Y-5.4555
M16
G05
G00X5.2839Y-5.5433
M15
G01X5.2839Y-5.5748
M16
G05
G00X5.6244Y-5.3965
M15
G01X5.6244Y-5.4555
M16
G05
G00X5.6244Y-5.5433
M15
G01X5.6244Y-5.5748
M16
G05
M30
