%TF.GenerationSoftware,KiCad,Pcbnew,8.0.0*%
%TF.CreationDate,2025-02-07T12:18:44-03:30*%
%TF.ProjectId,Detection_Eval,44657465-6374-4696-9f6e-5f4576616c2e,rev?*%
%TF.SameCoordinates,Original*%
%TF.FileFunction,Legend,Top*%
%TF.FilePolarity,Positive*%
%FSLAX46Y46*%
G04 Gerber Fmt 4.6, Leading zero omitted, Abs format (unit mm)*
G04 Created by KiCad (PCBNEW 8.0.0) date 2025-02-07 12:18:44*
%MOMM*%
%LPD*%
G01*
G04 APERTURE LIST*
%ADD10C,0.100000*%
%ADD11C,0.150000*%
%ADD12C,0.120000*%
%ADD13C,0.200000*%
%ADD14C,0.152400*%
%ADD15C,0.127000*%
G04 APERTURE END LIST*
D10*
X93657419Y-129861904D02*
X94466942Y-129861904D01*
X94466942Y-129861904D02*
X94562180Y-129814285D01*
X94562180Y-129814285D02*
X94609800Y-129766666D01*
X94609800Y-129766666D02*
X94657419Y-129671428D01*
X94657419Y-129671428D02*
X94657419Y-129480952D01*
X94657419Y-129480952D02*
X94609800Y-129385714D01*
X94609800Y-129385714D02*
X94562180Y-129338095D01*
X94562180Y-129338095D02*
X94466942Y-129290476D01*
X94466942Y-129290476D02*
X93657419Y-129290476D01*
X93657419Y-128338095D02*
X93657419Y-128814285D01*
X93657419Y-128814285D02*
X94133609Y-128861904D01*
X94133609Y-128861904D02*
X94085990Y-128814285D01*
X94085990Y-128814285D02*
X94038371Y-128719047D01*
X94038371Y-128719047D02*
X94038371Y-128480952D01*
X94038371Y-128480952D02*
X94085990Y-128385714D01*
X94085990Y-128385714D02*
X94133609Y-128338095D01*
X94133609Y-128338095D02*
X94228847Y-128290476D01*
X94228847Y-128290476D02*
X94466942Y-128290476D01*
X94466942Y-128290476D02*
X94562180Y-128338095D01*
X94562180Y-128338095D02*
X94609800Y-128385714D01*
X94609800Y-128385714D02*
X94657419Y-128480952D01*
X94657419Y-128480952D02*
X94657419Y-128719047D01*
X94657419Y-128719047D02*
X94609800Y-128814285D01*
X94609800Y-128814285D02*
X94562180Y-128861904D01*
D11*
X140273333Y-111854819D02*
X139940000Y-111378628D01*
X139701905Y-111854819D02*
X139701905Y-110854819D01*
X139701905Y-110854819D02*
X140082857Y-110854819D01*
X140082857Y-110854819D02*
X140178095Y-110902438D01*
X140178095Y-110902438D02*
X140225714Y-110950057D01*
X140225714Y-110950057D02*
X140273333Y-111045295D01*
X140273333Y-111045295D02*
X140273333Y-111188152D01*
X140273333Y-111188152D02*
X140225714Y-111283390D01*
X140225714Y-111283390D02*
X140178095Y-111331009D01*
X140178095Y-111331009D02*
X140082857Y-111378628D01*
X140082857Y-111378628D02*
X139701905Y-111378628D01*
X140654286Y-110950057D02*
X140701905Y-110902438D01*
X140701905Y-110902438D02*
X140797143Y-110854819D01*
X140797143Y-110854819D02*
X141035238Y-110854819D01*
X141035238Y-110854819D02*
X141130476Y-110902438D01*
X141130476Y-110902438D02*
X141178095Y-110950057D01*
X141178095Y-110950057D02*
X141225714Y-111045295D01*
X141225714Y-111045295D02*
X141225714Y-111140533D01*
X141225714Y-111140533D02*
X141178095Y-111283390D01*
X141178095Y-111283390D02*
X140606667Y-111854819D01*
X140606667Y-111854819D02*
X141225714Y-111854819D01*
X140133333Y-114449580D02*
X140085714Y-114497200D01*
X140085714Y-114497200D02*
X139942857Y-114544819D01*
X139942857Y-114544819D02*
X139847619Y-114544819D01*
X139847619Y-114544819D02*
X139704762Y-114497200D01*
X139704762Y-114497200D02*
X139609524Y-114401961D01*
X139609524Y-114401961D02*
X139561905Y-114306723D01*
X139561905Y-114306723D02*
X139514286Y-114116247D01*
X139514286Y-114116247D02*
X139514286Y-113973390D01*
X139514286Y-113973390D02*
X139561905Y-113782914D01*
X139561905Y-113782914D02*
X139609524Y-113687676D01*
X139609524Y-113687676D02*
X139704762Y-113592438D01*
X139704762Y-113592438D02*
X139847619Y-113544819D01*
X139847619Y-113544819D02*
X139942857Y-113544819D01*
X139942857Y-113544819D02*
X140085714Y-113592438D01*
X140085714Y-113592438D02*
X140133333Y-113640057D01*
X140990476Y-113878152D02*
X140990476Y-114544819D01*
X140752381Y-113497200D02*
X140514286Y-114211485D01*
X140514286Y-114211485D02*
X141133333Y-114211485D01*
X140753333Y-113104819D02*
X140420000Y-112628628D01*
X140181905Y-113104819D02*
X140181905Y-112104819D01*
X140181905Y-112104819D02*
X140562857Y-112104819D01*
X140562857Y-112104819D02*
X140658095Y-112152438D01*
X140658095Y-112152438D02*
X140705714Y-112200057D01*
X140705714Y-112200057D02*
X140753333Y-112295295D01*
X140753333Y-112295295D02*
X140753333Y-112438152D01*
X140753333Y-112438152D02*
X140705714Y-112533390D01*
X140705714Y-112533390D02*
X140658095Y-112581009D01*
X140658095Y-112581009D02*
X140562857Y-112628628D01*
X140562857Y-112628628D02*
X140181905Y-112628628D01*
X141610476Y-112438152D02*
X141610476Y-113104819D01*
X141372381Y-112057200D02*
X141134286Y-112771485D01*
X141134286Y-112771485D02*
X141753333Y-112771485D01*
X127754819Y-133768094D02*
X126754819Y-133768094D01*
X126754819Y-133768094D02*
X126754819Y-133529999D01*
X126754819Y-133529999D02*
X126802438Y-133387142D01*
X126802438Y-133387142D02*
X126897676Y-133291904D01*
X126897676Y-133291904D02*
X126992914Y-133244285D01*
X126992914Y-133244285D02*
X127183390Y-133196666D01*
X127183390Y-133196666D02*
X127326247Y-133196666D01*
X127326247Y-133196666D02*
X127516723Y-133244285D01*
X127516723Y-133244285D02*
X127611961Y-133291904D01*
X127611961Y-133291904D02*
X127707200Y-133387142D01*
X127707200Y-133387142D02*
X127754819Y-133529999D01*
X127754819Y-133529999D02*
X127754819Y-133768094D01*
X127754819Y-132244285D02*
X127754819Y-132815713D01*
X127754819Y-132529999D02*
X126754819Y-132529999D01*
X126754819Y-132529999D02*
X126897676Y-132625237D01*
X126897676Y-132625237D02*
X126992914Y-132720475D01*
X126992914Y-132720475D02*
X127040533Y-132815713D01*
X132076666Y-141554819D02*
X132076666Y-142269104D01*
X132076666Y-142269104D02*
X132029047Y-142411961D01*
X132029047Y-142411961D02*
X131933809Y-142507200D01*
X131933809Y-142507200D02*
X131790952Y-142554819D01*
X131790952Y-142554819D02*
X131695714Y-142554819D01*
X133076666Y-142554819D02*
X132505238Y-142554819D01*
X132790952Y-142554819D02*
X132790952Y-141554819D01*
X132790952Y-141554819D02*
X132695714Y-141697676D01*
X132695714Y-141697676D02*
X132600476Y-141792914D01*
X132600476Y-141792914D02*
X132505238Y-141840533D01*
X103748095Y-135954819D02*
X103748095Y-136764342D01*
X103748095Y-136764342D02*
X103795714Y-136859580D01*
X103795714Y-136859580D02*
X103843333Y-136907200D01*
X103843333Y-136907200D02*
X103938571Y-136954819D01*
X103938571Y-136954819D02*
X104129047Y-136954819D01*
X104129047Y-136954819D02*
X104224285Y-136907200D01*
X104224285Y-136907200D02*
X104271904Y-136859580D01*
X104271904Y-136859580D02*
X104319523Y-136764342D01*
X104319523Y-136764342D02*
X104319523Y-135954819D01*
X104843333Y-136954819D02*
X105033809Y-136954819D01*
X105033809Y-136954819D02*
X105129047Y-136907200D01*
X105129047Y-136907200D02*
X105176666Y-136859580D01*
X105176666Y-136859580D02*
X105271904Y-136716723D01*
X105271904Y-136716723D02*
X105319523Y-136526247D01*
X105319523Y-136526247D02*
X105319523Y-136145295D01*
X105319523Y-136145295D02*
X105271904Y-136050057D01*
X105271904Y-136050057D02*
X105224285Y-136002438D01*
X105224285Y-136002438D02*
X105129047Y-135954819D01*
X105129047Y-135954819D02*
X104938571Y-135954819D01*
X104938571Y-135954819D02*
X104843333Y-136002438D01*
X104843333Y-136002438D02*
X104795714Y-136050057D01*
X104795714Y-136050057D02*
X104748095Y-136145295D01*
X104748095Y-136145295D02*
X104748095Y-136383390D01*
X104748095Y-136383390D02*
X104795714Y-136478628D01*
X104795714Y-136478628D02*
X104843333Y-136526247D01*
X104843333Y-136526247D02*
X104938571Y-136573866D01*
X104938571Y-136573866D02*
X105129047Y-136573866D01*
X105129047Y-136573866D02*
X105224285Y-136526247D01*
X105224285Y-136526247D02*
X105271904Y-136478628D01*
X105271904Y-136478628D02*
X105319523Y-136383390D01*
X100331999Y-138654819D02*
X100331999Y-138892914D01*
X100093904Y-138797676D02*
X100331999Y-138892914D01*
X100331999Y-138892914D02*
X100570094Y-138797676D01*
X100189142Y-139083390D02*
X100331999Y-138892914D01*
X100331999Y-138892914D02*
X100474856Y-139083390D01*
X100331999Y-138654819D02*
X100331999Y-138892914D01*
X100093904Y-138797676D02*
X100331999Y-138892914D01*
X100331999Y-138892914D02*
X100570094Y-138797676D01*
X100189142Y-139083390D02*
X100331999Y-138892914D01*
X100331999Y-138892914D02*
X100474856Y-139083390D01*
X139933333Y-116159580D02*
X139885714Y-116207200D01*
X139885714Y-116207200D02*
X139742857Y-116254819D01*
X139742857Y-116254819D02*
X139647619Y-116254819D01*
X139647619Y-116254819D02*
X139504762Y-116207200D01*
X139504762Y-116207200D02*
X139409524Y-116111961D01*
X139409524Y-116111961D02*
X139361905Y-116016723D01*
X139361905Y-116016723D02*
X139314286Y-115826247D01*
X139314286Y-115826247D02*
X139314286Y-115683390D01*
X139314286Y-115683390D02*
X139361905Y-115492914D01*
X139361905Y-115492914D02*
X139409524Y-115397676D01*
X139409524Y-115397676D02*
X139504762Y-115302438D01*
X139504762Y-115302438D02*
X139647619Y-115254819D01*
X139647619Y-115254819D02*
X139742857Y-115254819D01*
X139742857Y-115254819D02*
X139885714Y-115302438D01*
X139885714Y-115302438D02*
X139933333Y-115350057D01*
X140838095Y-115254819D02*
X140361905Y-115254819D01*
X140361905Y-115254819D02*
X140314286Y-115731009D01*
X140314286Y-115731009D02*
X140361905Y-115683390D01*
X140361905Y-115683390D02*
X140457143Y-115635771D01*
X140457143Y-115635771D02*
X140695238Y-115635771D01*
X140695238Y-115635771D02*
X140790476Y-115683390D01*
X140790476Y-115683390D02*
X140838095Y-115731009D01*
X140838095Y-115731009D02*
X140885714Y-115826247D01*
X140885714Y-115826247D02*
X140885714Y-116064342D01*
X140885714Y-116064342D02*
X140838095Y-116159580D01*
X140838095Y-116159580D02*
X140790476Y-116207200D01*
X140790476Y-116207200D02*
X140695238Y-116254819D01*
X140695238Y-116254819D02*
X140457143Y-116254819D01*
X140457143Y-116254819D02*
X140361905Y-116207200D01*
X140361905Y-116207200D02*
X140314286Y-116159580D01*
X95300000Y-92206533D02*
X95500000Y-92273200D01*
X95500000Y-92273200D02*
X95566666Y-92339866D01*
X95566666Y-92339866D02*
X95633333Y-92473200D01*
X95633333Y-92473200D02*
X95633333Y-92673200D01*
X95633333Y-92673200D02*
X95566666Y-92806533D01*
X95566666Y-92806533D02*
X95500000Y-92873200D01*
X95500000Y-92873200D02*
X95366666Y-92939866D01*
X95366666Y-92939866D02*
X94833333Y-92939866D01*
X94833333Y-92939866D02*
X94833333Y-91539866D01*
X94833333Y-91539866D02*
X95300000Y-91539866D01*
X95300000Y-91539866D02*
X95433333Y-91606533D01*
X95433333Y-91606533D02*
X95500000Y-91673200D01*
X95500000Y-91673200D02*
X95566666Y-91806533D01*
X95566666Y-91806533D02*
X95566666Y-91939866D01*
X95566666Y-91939866D02*
X95500000Y-92073200D01*
X95500000Y-92073200D02*
X95433333Y-92139866D01*
X95433333Y-92139866D02*
X95300000Y-92206533D01*
X95300000Y-92206533D02*
X94833333Y-92206533D01*
X96033333Y-91539866D02*
X96833333Y-91539866D01*
X96433333Y-92939866D02*
X96433333Y-91539866D01*
X97233333Y-91673200D02*
X97300000Y-91606533D01*
X97300000Y-91606533D02*
X97433333Y-91539866D01*
X97433333Y-91539866D02*
X97766667Y-91539866D01*
X97766667Y-91539866D02*
X97900000Y-91606533D01*
X97900000Y-91606533D02*
X97966667Y-91673200D01*
X97966667Y-91673200D02*
X98033333Y-91806533D01*
X98033333Y-91806533D02*
X98033333Y-91939866D01*
X98033333Y-91939866D02*
X97966667Y-92139866D01*
X97966667Y-92139866D02*
X97166667Y-92939866D01*
X97166667Y-92939866D02*
X98033333Y-92939866D01*
X139478667Y-94518533D02*
X140545334Y-94518533D01*
X140012000Y-95051866D02*
X140012000Y-93985200D01*
X90866667Y-92206533D02*
X91933334Y-92206533D01*
X94148095Y-137654819D02*
X94148095Y-138464342D01*
X94148095Y-138464342D02*
X94195714Y-138559580D01*
X94195714Y-138559580D02*
X94243333Y-138607200D01*
X94243333Y-138607200D02*
X94338571Y-138654819D01*
X94338571Y-138654819D02*
X94529047Y-138654819D01*
X94529047Y-138654819D02*
X94624285Y-138607200D01*
X94624285Y-138607200D02*
X94671904Y-138559580D01*
X94671904Y-138559580D02*
X94719523Y-138464342D01*
X94719523Y-138464342D02*
X94719523Y-137654819D01*
X95148095Y-137750057D02*
X95195714Y-137702438D01*
X95195714Y-137702438D02*
X95290952Y-137654819D01*
X95290952Y-137654819D02*
X95529047Y-137654819D01*
X95529047Y-137654819D02*
X95624285Y-137702438D01*
X95624285Y-137702438D02*
X95671904Y-137750057D01*
X95671904Y-137750057D02*
X95719523Y-137845295D01*
X95719523Y-137845295D02*
X95719523Y-137940533D01*
X95719523Y-137940533D02*
X95671904Y-138083390D01*
X95671904Y-138083390D02*
X95100476Y-138654819D01*
X95100476Y-138654819D02*
X95719523Y-138654819D01*
X90693749Y-138621518D02*
X90693749Y-138859613D01*
X90455654Y-138764375D02*
X90693749Y-138859613D01*
X90693749Y-138859613D02*
X90931844Y-138764375D01*
X90550892Y-139050089D02*
X90693749Y-138859613D01*
X90693749Y-138859613D02*
X90836606Y-139050089D01*
X90693749Y-138621518D02*
X90693749Y-138859613D01*
X90455654Y-138764375D02*
X90693749Y-138859613D01*
X90693749Y-138859613D02*
X90931844Y-138764375D01*
X90550892Y-139050089D02*
X90693749Y-138859613D01*
X90693749Y-138859613D02*
X90836606Y-139050089D01*
X124504819Y-142211904D02*
X125314342Y-142211904D01*
X125314342Y-142211904D02*
X125409580Y-142164285D01*
X125409580Y-142164285D02*
X125457200Y-142116666D01*
X125457200Y-142116666D02*
X125504819Y-142021428D01*
X125504819Y-142021428D02*
X125504819Y-141830952D01*
X125504819Y-141830952D02*
X125457200Y-141735714D01*
X125457200Y-141735714D02*
X125409580Y-141688095D01*
X125409580Y-141688095D02*
X125314342Y-141640476D01*
X125314342Y-141640476D02*
X124504819Y-141640476D01*
X124838152Y-140735714D02*
X125504819Y-140735714D01*
X124457200Y-140973809D02*
X125171485Y-141211904D01*
X125171485Y-141211904D02*
X125171485Y-140592857D01*
X142604819Y-103092857D02*
X142128628Y-103426190D01*
X142604819Y-103664285D02*
X141604819Y-103664285D01*
X141604819Y-103664285D02*
X141604819Y-103283333D01*
X141604819Y-103283333D02*
X141652438Y-103188095D01*
X141652438Y-103188095D02*
X141700057Y-103140476D01*
X141700057Y-103140476D02*
X141795295Y-103092857D01*
X141795295Y-103092857D02*
X141938152Y-103092857D01*
X141938152Y-103092857D02*
X142033390Y-103140476D01*
X142033390Y-103140476D02*
X142081009Y-103188095D01*
X142081009Y-103188095D02*
X142128628Y-103283333D01*
X142128628Y-103283333D02*
X142128628Y-103664285D01*
X142604819Y-102140476D02*
X142604819Y-102711904D01*
X142604819Y-102426190D02*
X141604819Y-102426190D01*
X141604819Y-102426190D02*
X141747676Y-102521428D01*
X141747676Y-102521428D02*
X141842914Y-102616666D01*
X141842914Y-102616666D02*
X141890533Y-102711904D01*
X141700057Y-101759523D02*
X141652438Y-101711904D01*
X141652438Y-101711904D02*
X141604819Y-101616666D01*
X141604819Y-101616666D02*
X141604819Y-101378571D01*
X141604819Y-101378571D02*
X141652438Y-101283333D01*
X141652438Y-101283333D02*
X141700057Y-101235714D01*
X141700057Y-101235714D02*
X141795295Y-101188095D01*
X141795295Y-101188095D02*
X141890533Y-101188095D01*
X141890533Y-101188095D02*
X142033390Y-101235714D01*
X142033390Y-101235714D02*
X142604819Y-101807142D01*
X142604819Y-101807142D02*
X142604819Y-101188095D01*
X143804819Y-103792857D02*
X143328628Y-104126190D01*
X143804819Y-104364285D02*
X142804819Y-104364285D01*
X142804819Y-104364285D02*
X142804819Y-103983333D01*
X142804819Y-103983333D02*
X142852438Y-103888095D01*
X142852438Y-103888095D02*
X142900057Y-103840476D01*
X142900057Y-103840476D02*
X142995295Y-103792857D01*
X142995295Y-103792857D02*
X143138152Y-103792857D01*
X143138152Y-103792857D02*
X143233390Y-103840476D01*
X143233390Y-103840476D02*
X143281009Y-103888095D01*
X143281009Y-103888095D02*
X143328628Y-103983333D01*
X143328628Y-103983333D02*
X143328628Y-104364285D01*
X143804819Y-102840476D02*
X143804819Y-103411904D01*
X143804819Y-103126190D02*
X142804819Y-103126190D01*
X142804819Y-103126190D02*
X142947676Y-103221428D01*
X142947676Y-103221428D02*
X143042914Y-103316666D01*
X143042914Y-103316666D02*
X143090533Y-103411904D01*
X143804819Y-101888095D02*
X143804819Y-102459523D01*
X143804819Y-102173809D02*
X142804819Y-102173809D01*
X142804819Y-102173809D02*
X142947676Y-102269047D01*
X142947676Y-102269047D02*
X143042914Y-102364285D01*
X143042914Y-102364285D02*
X143090533Y-102459523D01*
%TO.C,U5*%
D10*
X93100000Y-130500000D02*
X138100000Y-130500000D01*
X138100000Y-99500000D01*
X93100000Y-99500000D01*
X93100000Y-130500000D01*
D12*
X97630000Y-125340000D02*
X94970000Y-125340000D01*
X97630000Y-107500000D02*
X97630000Y-125340000D01*
X97630000Y-107500000D02*
X94970000Y-107500000D01*
X97630000Y-106230000D02*
X97630000Y-104900000D01*
X97630000Y-104900000D02*
X96300000Y-104900000D01*
X94970000Y-107500000D02*
X94970000Y-125340000D01*
%TO.C,R2*%
X142803641Y-111020000D02*
X142496359Y-111020000D01*
X142803641Y-111780000D02*
X142496359Y-111780000D01*
%TO.C,C4*%
X142740580Y-113490000D02*
X142459420Y-113490000D01*
X142740580Y-114510000D02*
X142459420Y-114510000D01*
%TO.C,R4*%
X142993641Y-112270000D02*
X142686359Y-112270000D01*
X142993641Y-113030000D02*
X142686359Y-113030000D01*
D10*
%TO.C,D1*%
X128450000Y-131995000D02*
G75*
G02*
X128350000Y-131995000I-50000J0D01*
G01*
X128350000Y-131995000D02*
G75*
G02*
X128450000Y-131995000I50000J0D01*
G01*
D13*
%TO.C,J1*%
X134065000Y-139350000D02*
X134065000Y-140030000D01*
X134065000Y-142590000D02*
X134065000Y-142940000D01*
X134065000Y-142940000D02*
X143005000Y-142940000D01*
X143005000Y-139350000D02*
X143005000Y-140030000D01*
X143005000Y-142940000D02*
X143005000Y-142590000D01*
X135660000Y-135500000D02*
G75*
G02*
X135460000Y-135500000I-100000J0D01*
G01*
X135460000Y-135500000D02*
G75*
G02*
X135660000Y-135500000I100000J0D01*
G01*
D14*
%TO.C,U9*%
X100677000Y-135062801D02*
X100677000Y-135517000D01*
X100677000Y-138044326D02*
X100677000Y-142670101D01*
X100677000Y-142670101D02*
X108043000Y-142670101D01*
X108043000Y-135062801D02*
X100677000Y-135062801D01*
X108043000Y-135517000D02*
X108043000Y-135062801D01*
X108043000Y-142670101D02*
X108043000Y-138044326D01*
D12*
%TO.C,C5*%
X142740580Y-115190000D02*
X142459420Y-115190000D01*
X142740580Y-116210000D02*
X142459420Y-116210000D01*
D15*
%TO.C,BT2*%
X89935000Y-88500000D02*
X89935000Y-98900000D01*
X89935000Y-98900000D02*
X138935000Y-98900000D01*
X138935000Y-88500000D02*
X89935000Y-88500000D01*
X138935000Y-98900000D02*
X138935000Y-88500000D01*
D14*
%TO.C,U2*%
X91038750Y-135029500D02*
X91038750Y-135483699D01*
X91038750Y-138011025D02*
X91038750Y-142636800D01*
X91038750Y-142636800D02*
X98404750Y-142636800D01*
X98404750Y-135029500D02*
X91038750Y-135029500D01*
X98404750Y-135483699D02*
X98404750Y-135029500D01*
X98404750Y-142636800D02*
X98404750Y-138011025D01*
D12*
%TO.C,U4*%
X115925000Y-139765000D02*
X115925000Y-142425000D01*
X115925000Y-142425000D02*
X123665000Y-142425000D01*
X116875000Y-139367929D02*
X116875000Y-139765000D01*
X116875000Y-148425000D02*
X116875000Y-142425000D01*
X117635000Y-139367929D02*
X117635000Y-139765000D01*
X117635000Y-142425000D02*
X117635000Y-148425000D01*
X117635000Y-148425000D02*
X116875000Y-148425000D01*
X118525000Y-139765000D02*
X118525000Y-142425000D01*
X119415000Y-139367929D02*
X119415000Y-139765000D01*
X119415000Y-148425000D02*
X119415000Y-142425000D01*
X120175000Y-139367929D02*
X120175000Y-139765000D01*
X120175000Y-142425000D02*
X120175000Y-148425000D01*
X120175000Y-148425000D02*
X119415000Y-148425000D01*
X121065000Y-139765000D02*
X121065000Y-142425000D01*
X121955000Y-139435000D02*
X121955000Y-139765000D01*
X121955000Y-148425000D02*
X121955000Y-142425000D01*
X122055000Y-142425000D02*
X122055000Y-148425000D01*
X122175000Y-142425000D02*
X122175000Y-148425000D01*
X122295000Y-142425000D02*
X122295000Y-148425000D01*
X122335000Y-137055000D02*
X123605000Y-137055000D01*
X122415000Y-142425000D02*
X122415000Y-148425000D01*
X122535000Y-142425000D02*
X122535000Y-148425000D01*
X122655000Y-142425000D02*
X122655000Y-148425000D01*
X122715000Y-139435000D02*
X122715000Y-139765000D01*
X122715000Y-142425000D02*
X122715000Y-148425000D01*
X122715000Y-148425000D02*
X121955000Y-148425000D01*
X123605000Y-137055000D02*
X123605000Y-138325000D01*
X123665000Y-139765000D02*
X115925000Y-139765000D01*
X123665000Y-142425000D02*
X123665000Y-139765000D01*
%TO.C,R12*%
X141527500Y-105087742D02*
X141527500Y-105562258D01*
X142572500Y-105087742D02*
X142572500Y-105562258D01*
%TO.C,R11*%
X143780000Y-105843641D02*
X143780000Y-105536359D01*
X143020000Y-105843641D02*
X143020000Y-105536359D01*
%TD*%
M02*
