%TF.GenerationSoftware,KiCad,Pcbnew,8.0.0*%
%TF.CreationDate,2025-02-07T12:18:44-03:30*%
%TF.ProjectId,Detection_Eval,44657465-6374-4696-9f6e-5f4576616c2e,rev?*%
%TF.SameCoordinates,Original*%
%TF.FileFunction,Copper,L2,Inr*%
%TF.FilePolarity,Positive*%
%FSLAX46Y46*%
G04 Gerber Fmt 4.6, Leading zero omitted, Abs format (unit mm)*
G04 Created by KiCad (PCBNEW 8.0.0) date 2025-02-07 12:18:44*
%MOMM*%
%LPD*%
G01*
G04 APERTURE LIST*
%TA.AperFunction,ComponentPad*%
%ADD10O,1.700000X1.700000*%
%TD*%
%TA.AperFunction,ComponentPad*%
%ADD11R,1.700000X1.700000*%
%TD*%
%TA.AperFunction,ComponentPad*%
%ADD12C,0.650000*%
%TD*%
%TA.AperFunction,ComponentPad*%
%ADD13O,0.900000X1.700000*%
%TD*%
%TA.AperFunction,ComponentPad*%
%ADD14O,0.900000X2.400000*%
%TD*%
%TA.AperFunction,ComponentPad*%
%ADD15C,1.498600*%
%TD*%
%TA.AperFunction,ComponentPad*%
%ADD16C,1.803400*%
%TD*%
%TA.AperFunction,ComponentPad*%
%ADD17C,1.760000*%
%TD*%
%TA.AperFunction,ComponentPad*%
%ADD18R,2.100000X1.900000*%
%TD*%
%TA.AperFunction,ComponentPad*%
%ADD19O,2.100000X1.900000*%
%TD*%
%TA.AperFunction,ComponentPad*%
%ADD20O,3.000000X1.500000*%
%TD*%
%TA.AperFunction,ViaPad*%
%ADD21C,0.600000*%
%TD*%
G04 APERTURE END LIST*
D10*
%TO.N,BACKLIGHT*%
%TO.C,U5*%
X96300000Y-124010000D03*
%TO.N,RESET*%
X96300000Y-121470000D03*
%TO.N,DATA{slash}CMD_SEL*%
X96300000Y-118930000D03*
%TO.N,HSPI_CS*%
X96300000Y-116390000D03*
%TO.N,HSPI_CLK*%
X96300000Y-113850000D03*
%TO.N,HSPI_MOSI*%
X96300000Y-111310000D03*
%TO.N,GND*%
X96300000Y-108770000D03*
D11*
%TO.N,+3V3*%
X96300000Y-106230000D03*
%TD*%
D12*
%TO.N,GND*%
%TO.C,J1*%
X135560000Y-136840000D03*
%TO.N,VBUS*%
X136410000Y-136840000D03*
%TO.N,/Battery/CC1*%
X137260000Y-136840000D03*
%TO.N,/Battery/DP*%
X138110000Y-136840000D03*
%TO.N,/Battery/DN*%
X138960000Y-136840000D03*
%TO.N,unconnected-(J1-SBU1-PadA8)*%
X139810000Y-136840000D03*
%TO.N,VBUS*%
X140660000Y-136840000D03*
%TO.N,GND*%
X141510000Y-136840000D03*
X141510000Y-138190000D03*
%TO.N,VBUS*%
X140660000Y-138190000D03*
%TO.N,/Battery/CC2*%
X139810000Y-138190000D03*
%TO.N,/Battery/DP*%
X138960000Y-138190000D03*
%TO.N,/Battery/DN*%
X138110000Y-138190000D03*
%TO.N,unconnected-(J1-SBU2-PadB8)*%
X137260000Y-138190000D03*
%TO.N,VBUS*%
X136410000Y-138190000D03*
%TO.N,GND*%
X135560000Y-138190000D03*
D13*
X134210000Y-141200000D03*
X142860000Y-141200000D03*
D14*
X134210000Y-137820000D03*
X142860000Y-137820000D03*
%TD*%
D15*
%TO.N,Net-(C1-Pad2)*%
%TO.C,U9*%
X102109999Y-139200000D03*
%TO.N,+5V*%
X106610000Y-139200000D03*
D16*
%TO.N,GND*%
X100854999Y-136709701D03*
X107865000Y-136709701D03*
%TD*%
D17*
%TO.N,GND*%
%TO.C,BT2*%
X91500000Y-93700000D03*
%TO.N,Net-(BT2-PadP)*%
X137370000Y-93700000D03*
%TD*%
D15*
%TO.N,Net-(C2-Pad2)*%
%TO.C,U2*%
X92471749Y-139166699D03*
%TO.N,+5V*%
X96971750Y-139166699D03*
D16*
%TO.N,GND*%
X91216749Y-136676400D03*
X98226750Y-136676400D03*
%TD*%
D11*
%TO.N,Net-(U4-SIGNAL)*%
%TO.C,U4*%
X122335000Y-138325000D03*
D10*
%TO.N,+3V3*%
X119795000Y-138325000D03*
%TO.N,GND*%
X117255000Y-138325000D03*
%TD*%
D18*
%TO.N,unconnected-(U6-RESET_5V-Pad1)*%
%TO.C,U6*%
X122500000Y-102340000D03*
D19*
%TO.N,ECG*%
X122500000Y-104880000D03*
%TO.N,unconnected-(U6-CH_PD-Pad3)*%
X122500000Y-107420000D03*
%TO.N,RESET*%
X122500000Y-109960000D03*
%TO.N,HSPI_CLK*%
X122500000Y-112500000D03*
%TO.N,Net-(U6-GPIO12)*%
X122500000Y-115040000D03*
%TO.N,HSPI_MOSI*%
X122500000Y-117580000D03*
%TO.N,Net-(U6-VIN)*%
X122500000Y-120120000D03*
%TO.N,Net-(U6-VBAT)*%
X122500000Y-122660000D03*
%TO.N,GND*%
X122500000Y-125200000D03*
X102180000Y-125200000D03*
%TO.N,unconnected-(U6-LDO_EN-Pad12)*%
X102180000Y-122660000D03*
%TO.N,+3V3*%
X102180000Y-120120000D03*
%TO.N,HSPI_CS*%
X102180000Y-117580000D03*
%TO.N,DATA{slash}CMD_SEL*%
X102180000Y-115040000D03*
%TO.N,BACKLIGHT*%
X102180000Y-112500000D03*
%TO.N,SDA_ACCEL*%
X102180000Y-109960000D03*
%TO.N,SCL_ACCEL*%
X102180000Y-107420000D03*
%TO.N,unconnected-(U6-RXD-Pad19)*%
X102180000Y-104880000D03*
%TO.N,unconnected-(U6-TXD-Pad20)*%
X102180000Y-102340000D03*
%TD*%
D20*
%TO.N,unconnected-(U3-INT-Pad8)*%
%TO.C,U3*%
X129018400Y-109387400D03*
%TO.N,Net-(U3-ADO)*%
X129018400Y-111927400D03*
%TO.N,unconnected-(U3-XCL-Pad6)*%
X129018400Y-114467400D03*
%TO.N,unconnected-(U3-XDA-Pad5)*%
X129018400Y-117007400D03*
%TO.N,SDA_ACCEL*%
X129018400Y-119547400D03*
%TO.N,SCL_ACCEL*%
X129018400Y-122087400D03*
%TO.N,GND*%
X129018400Y-124627400D03*
%TO.N,+3V3*%
X129018400Y-127167400D03*
%TD*%
D21*
%TO.N,Net-(BT2-PadP)*%
X140850000Y-99750000D03*
X140050000Y-99750000D03*
%TO.N,+5V*%
X143400000Y-107600000D03*
%TO.N,Net-(U7-SW)*%
X132250000Y-89400000D03*
%TO.N,VDD*%
X133050000Y-101800000D03*
%TO.N,GND*%
X122950000Y-135650000D03*
%TO.N,VDD*%
X130700000Y-131650000D03*
X131600000Y-131650000D03*
%TO.N,VBUS*%
X132550000Y-134350000D03*
X132550000Y-135100000D03*
%TO.N,GND*%
X136000000Y-134800000D03*
X134800000Y-134700000D03*
X134850000Y-133800000D03*
%TO.N,VCC*%
X143550000Y-94000000D03*
%TO.N,Net-(U7-FB)*%
X143610000Y-103700000D03*
X142250000Y-92950000D03*
%TO.N,Net-(D1-K)*%
X135750000Y-108850000D03*
%TO.N,Net-(U6-VIN)*%
X141400000Y-111450000D03*
%TO.N,Net-(U6-VBAT)*%
X141470000Y-112600000D03*
%TO.N,Net-(U6-GPIO12)*%
X100850000Y-128350000D03*
%TO.N,ECG*%
X125700000Y-135600000D03*
%TO.N,FAILSAFE*%
X96250000Y-129150000D03*
X90950000Y-122300000D03*
%TO.N,Net-(U8-OUT)*%
X138150000Y-102747802D03*
X134836589Y-102172073D03*
%TO.N,VDD*%
X133050000Y-100750000D03*
%TO.N,+5V*%
X96350000Y-132100000D03*
%TO.N,/Battery/CC2*%
X138750000Y-130700000D03*
%TO.N,VCC*%
X135300000Y-95600000D03*
X134300000Y-95600000D03*
X143100000Y-97050000D03*
%TO.N,Net-(U7-SW)*%
X139350000Y-95450000D03*
X132250000Y-88800000D03*
%TO.N,+5V*%
X143400000Y-108850000D03*
X143400000Y-110050000D03*
X140600000Y-93700000D03*
X141250000Y-93700000D03*
%TO.N,Net-(D1-A)*%
X127600000Y-134000000D03*
%TO.N,GND*%
X140550000Y-115650000D03*
X140550000Y-114850000D03*
X140550000Y-114050000D03*
X90700000Y-129100000D03*
X94000000Y-134200000D03*
X93000000Y-134200000D03*
X143600000Y-133000000D03*
X143600000Y-131900000D03*
X143600000Y-130800000D03*
X128500000Y-138800000D03*
X128500000Y-137900000D03*
X128500000Y-137000000D03*
X128500000Y-136100000D03*
X139900000Y-89450000D03*
X139950000Y-88800000D03*
X140700000Y-104700000D03*
X140700000Y-105500000D03*
X140700000Y-103900000D03*
X136700000Y-106300000D03*
X135700000Y-106300000D03*
X143610000Y-98700000D03*
X139400000Y-96900000D03*
X128800000Y-106400000D03*
X128800000Y-105100000D03*
X128800000Y-103800000D03*
X129000000Y-102200000D03*
X129000000Y-100500000D03*
X128900000Y-98500000D03*
%TO.N,VCC*%
X141000000Y-91700000D03*
X142700000Y-91700000D03*
%TD*%
%TA.AperFunction,Conductor*%
%TO.N,GND*%
G36*
X131406463Y-88520185D02*
G01*
X131452218Y-88572989D01*
X131462644Y-88638383D01*
X131444435Y-88799996D01*
X131444435Y-88800003D01*
X131464631Y-88979253D01*
X131464631Y-88979254D01*
X131492551Y-89059047D01*
X131496112Y-89128826D01*
X131492551Y-89140953D01*
X131464631Y-89220745D01*
X131464631Y-89220746D01*
X131444435Y-89399996D01*
X131444435Y-89400003D01*
X131464630Y-89579249D01*
X131464631Y-89579254D01*
X131524211Y-89749523D01*
X131620184Y-89902262D01*
X131747738Y-90029816D01*
X131900478Y-90125789D01*
X132070745Y-90185368D01*
X132070750Y-90185369D01*
X132249996Y-90205565D01*
X132250000Y-90205565D01*
X132250004Y-90205565D01*
X132429249Y-90185369D01*
X132429252Y-90185368D01*
X132429255Y-90185368D01*
X132599522Y-90125789D01*
X132752262Y-90029816D01*
X132879816Y-89902262D01*
X132975789Y-89749522D01*
X133035368Y-89579255D01*
X133055565Y-89400000D01*
X133035368Y-89220745D01*
X133007446Y-89140951D01*
X133003884Y-89071177D01*
X133007440Y-89059066D01*
X133035368Y-88979255D01*
X133055565Y-88800000D01*
X133055565Y-88799996D01*
X133037356Y-88638383D01*
X133049411Y-88569561D01*
X133096760Y-88518182D01*
X133160576Y-88500500D01*
X143725702Y-88500500D01*
X143792741Y-88520185D01*
X143838496Y-88572989D01*
X143849701Y-88624611D01*
X143848526Y-89902262D01*
X143845593Y-93089097D01*
X143825847Y-93156118D01*
X143773001Y-93201825D01*
X143707710Y-93212203D01*
X143550004Y-93194435D01*
X143549996Y-93194435D01*
X143370750Y-93214630D01*
X143370742Y-93214632D01*
X143196850Y-93275479D01*
X143127071Y-93279040D01*
X143066444Y-93244311D01*
X143034217Y-93182317D01*
X143034924Y-93136212D01*
X143034589Y-93136175D01*
X143034978Y-93132721D01*
X143035007Y-93130837D01*
X143035369Y-93129250D01*
X143055565Y-92950003D01*
X143055565Y-92949996D01*
X143035369Y-92770750D01*
X143035368Y-92770745D01*
X143003911Y-92680846D01*
X142975789Y-92600478D01*
X142975787Y-92600475D01*
X142975787Y-92600474D01*
X142974634Y-92598079D01*
X142974353Y-92596375D01*
X142973489Y-92593905D01*
X142973921Y-92593753D01*
X142963279Y-92529138D01*
X142990999Y-92465002D01*
X143045406Y-92427229D01*
X143049522Y-92425789D01*
X143202262Y-92329816D01*
X143329816Y-92202262D01*
X143425789Y-92049522D01*
X143485368Y-91879255D01*
X143505565Y-91700000D01*
X143485368Y-91520745D01*
X143425789Y-91350478D01*
X143329816Y-91197738D01*
X143202262Y-91070184D01*
X143049523Y-90974211D01*
X142879254Y-90914631D01*
X142879249Y-90914630D01*
X142700004Y-90894435D01*
X142699996Y-90894435D01*
X142520750Y-90914630D01*
X142520745Y-90914631D01*
X142350476Y-90974211D01*
X142197737Y-91070184D01*
X142070184Y-91197737D01*
X141974209Y-91350479D01*
X141967041Y-91370966D01*
X141926319Y-91427741D01*
X141861366Y-91453488D01*
X141792804Y-91440031D01*
X141742402Y-91391643D01*
X141732959Y-91370966D01*
X141725790Y-91350479D01*
X141629815Y-91197737D01*
X141502262Y-91070184D01*
X141349523Y-90974211D01*
X141179254Y-90914631D01*
X141179249Y-90914630D01*
X141000004Y-90894435D01*
X140999996Y-90894435D01*
X140820750Y-90914630D01*
X140820745Y-90914631D01*
X140650476Y-90974211D01*
X140497737Y-91070184D01*
X140370184Y-91197737D01*
X140274211Y-91350476D01*
X140214631Y-91520745D01*
X140214630Y-91520750D01*
X140194435Y-91699996D01*
X140194435Y-91700003D01*
X140214630Y-91879249D01*
X140214631Y-91879254D01*
X140274211Y-92049523D01*
X140350902Y-92171575D01*
X140370184Y-92202262D01*
X140497738Y-92329816D01*
X140541251Y-92357157D01*
X140642633Y-92420860D01*
X140650478Y-92425789D01*
X140788617Y-92474126D01*
X140820745Y-92485368D01*
X140820750Y-92485369D01*
X140999996Y-92505565D01*
X141000000Y-92505565D01*
X141000004Y-92505565D01*
X141179249Y-92485369D01*
X141179252Y-92485368D01*
X141179255Y-92485368D01*
X141349522Y-92425789D01*
X141359534Y-92419497D01*
X141426770Y-92400495D01*
X141493606Y-92420860D01*
X141538822Y-92474126D01*
X141548062Y-92543382D01*
X141530506Y-92590457D01*
X141524211Y-92600475D01*
X141464631Y-92770747D01*
X141464630Y-92770751D01*
X141462062Y-92793546D01*
X141434994Y-92857959D01*
X141377398Y-92897513D01*
X141324959Y-92902880D01*
X141250004Y-92894435D01*
X141249996Y-92894435D01*
X141070747Y-92914631D01*
X140965954Y-92951299D01*
X140896175Y-92954860D01*
X140884046Y-92951299D01*
X140779252Y-92914631D01*
X140600004Y-92894435D01*
X140599996Y-92894435D01*
X140420750Y-92914630D01*
X140420745Y-92914631D01*
X140250476Y-92974211D01*
X140097737Y-93070184D01*
X139970184Y-93197737D01*
X139874211Y-93350476D01*
X139814631Y-93520745D01*
X139814630Y-93520750D01*
X139794435Y-93699996D01*
X139794435Y-93700003D01*
X139814630Y-93879249D01*
X139814631Y-93879254D01*
X139874211Y-94049523D01*
X139937210Y-94149784D01*
X139970184Y-94202262D01*
X140097738Y-94329816D01*
X140250478Y-94425789D01*
X140420745Y-94485368D01*
X140420750Y-94485369D01*
X140599996Y-94505565D01*
X140600000Y-94505565D01*
X140600004Y-94505565D01*
X140779249Y-94485369D01*
X140779250Y-94485368D01*
X140779255Y-94485368D01*
X140884048Y-94448698D01*
X140953823Y-94445136D01*
X140965932Y-94448692D01*
X141070745Y-94485368D01*
X141070749Y-94485368D01*
X141070751Y-94485369D01*
X141070748Y-94485369D01*
X141249996Y-94505565D01*
X141250000Y-94505565D01*
X141250004Y-94505565D01*
X141429249Y-94485369D01*
X141429252Y-94485368D01*
X141429255Y-94485368D01*
X141599522Y-94425789D01*
X141752262Y-94329816D01*
X141879816Y-94202262D01*
X141975789Y-94049522D01*
X142035368Y-93879255D01*
X142037936Y-93856456D01*
X142065002Y-93792043D01*
X142122596Y-93752487D01*
X142175039Y-93747119D01*
X142212710Y-93751363D01*
X142249998Y-93755565D01*
X142250000Y-93755565D01*
X142250004Y-93755565D01*
X142429249Y-93735369D01*
X142429251Y-93735368D01*
X142429255Y-93735368D01*
X142429258Y-93735366D01*
X142429262Y-93735366D01*
X142603148Y-93674521D01*
X142672927Y-93670959D01*
X142733554Y-93705687D01*
X142765782Y-93767681D01*
X142765077Y-93813787D01*
X142765411Y-93813825D01*
X142765024Y-93817251D01*
X142764996Y-93819145D01*
X142764631Y-93820741D01*
X142744435Y-93999996D01*
X142744435Y-94000003D01*
X142764630Y-94179249D01*
X142764631Y-94179254D01*
X142824211Y-94349523D01*
X142877524Y-94434369D01*
X142920184Y-94502262D01*
X143047738Y-94629816D01*
X143138080Y-94686582D01*
X143197966Y-94724211D01*
X143200478Y-94725789D01*
X143370745Y-94785368D01*
X143370750Y-94785369D01*
X143549996Y-94805565D01*
X143550000Y-94805565D01*
X143550004Y-94805565D01*
X143706034Y-94787985D01*
X143774856Y-94800040D01*
X143826235Y-94847389D01*
X143843917Y-94911319D01*
X143842583Y-96361257D01*
X143822837Y-96428278D01*
X143769991Y-96473985D01*
X143700823Y-96483865D01*
X143637294Y-96454781D01*
X143630902Y-96448824D01*
X143602262Y-96420184D01*
X143449523Y-96324211D01*
X143279254Y-96264631D01*
X143279249Y-96264630D01*
X143100004Y-96244435D01*
X143099996Y-96244435D01*
X142920750Y-96264630D01*
X142920745Y-96264631D01*
X142750476Y-96324211D01*
X142597737Y-96420184D01*
X142470184Y-96547737D01*
X142374211Y-96700476D01*
X142314631Y-96870745D01*
X142314630Y-96870750D01*
X142294435Y-97049996D01*
X142294435Y-97050003D01*
X142314630Y-97229249D01*
X142314631Y-97229254D01*
X142374211Y-97399523D01*
X142470184Y-97552262D01*
X142597738Y-97679816D01*
X142750478Y-97775789D01*
X142920745Y-97835368D01*
X142920750Y-97835369D01*
X143099996Y-97855565D01*
X143100000Y-97855565D01*
X143100004Y-97855565D01*
X143279249Y-97835369D01*
X143279252Y-97835368D01*
X143279255Y-97835368D01*
X143449522Y-97775789D01*
X143602262Y-97679816D01*
X143629635Y-97652442D01*
X143690954Y-97618959D01*
X143760646Y-97623943D01*
X143816580Y-97665813D01*
X143840998Y-97731277D01*
X143841314Y-97740239D01*
X143836676Y-102781333D01*
X143816930Y-102848354D01*
X143764084Y-102894061D01*
X143698793Y-102904439D01*
X143610004Y-102894435D01*
X143609996Y-102894435D01*
X143430750Y-102914630D01*
X143430745Y-102914631D01*
X143260476Y-102974211D01*
X143107737Y-103070184D01*
X142980184Y-103197737D01*
X142884211Y-103350476D01*
X142824631Y-103520745D01*
X142824630Y-103520750D01*
X142804435Y-103699996D01*
X142804435Y-103700003D01*
X142824630Y-103879249D01*
X142824631Y-103879254D01*
X142884211Y-104049523D01*
X142928351Y-104119771D01*
X142980184Y-104202262D01*
X143107738Y-104329816D01*
X143260478Y-104425789D01*
X143310499Y-104443292D01*
X143430745Y-104485368D01*
X143430750Y-104485369D01*
X143609996Y-104505565D01*
X143610000Y-104505565D01*
X143610003Y-104505565D01*
X143697102Y-104495751D01*
X143765924Y-104507805D01*
X143817304Y-104555154D01*
X143834986Y-104619085D01*
X143833045Y-106728789D01*
X143813299Y-106795810D01*
X143760453Y-106841517D01*
X143691285Y-106851397D01*
X143668090Y-106845716D01*
X143579262Y-106814633D01*
X143579249Y-106814630D01*
X143400004Y-106794435D01*
X143399996Y-106794435D01*
X143220750Y-106814630D01*
X143220745Y-106814631D01*
X143050476Y-106874211D01*
X142897737Y-106970184D01*
X142770184Y-107097737D01*
X142674211Y-107250476D01*
X142614631Y-107420745D01*
X142614630Y-107420750D01*
X142594435Y-107599996D01*
X142594435Y-107600003D01*
X142614630Y-107779249D01*
X142614631Y-107779254D01*
X142674211Y-107949523D01*
X142770184Y-108102262D01*
X142805241Y-108137319D01*
X142838726Y-108198642D01*
X142833742Y-108268334D01*
X142805241Y-108312681D01*
X142770184Y-108347737D01*
X142674211Y-108500476D01*
X142614631Y-108670745D01*
X142614630Y-108670750D01*
X142594435Y-108849996D01*
X142594435Y-108850003D01*
X142614630Y-109029249D01*
X142614631Y-109029254D01*
X142674211Y-109199523D01*
X142770184Y-109352262D01*
X142780241Y-109362319D01*
X142813726Y-109423642D01*
X142808742Y-109493334D01*
X142780241Y-109537681D01*
X142770184Y-109547737D01*
X142674211Y-109700476D01*
X142614631Y-109870745D01*
X142614630Y-109870750D01*
X142594435Y-110049996D01*
X142594435Y-110050003D01*
X142614630Y-110229249D01*
X142614631Y-110229254D01*
X142674211Y-110399523D01*
X142766428Y-110546284D01*
X142770184Y-110552262D01*
X142897738Y-110679816D01*
X143050478Y-110775789D01*
X143177352Y-110820184D01*
X143220745Y-110835368D01*
X143220750Y-110835369D01*
X143399996Y-110855565D01*
X143400000Y-110855565D01*
X143400004Y-110855565D01*
X143579249Y-110835369D01*
X143579252Y-110835368D01*
X143579255Y-110835368D01*
X143579256Y-110835367D01*
X143579259Y-110835367D01*
X143622648Y-110820184D01*
X143664233Y-110805632D01*
X143734010Y-110802070D01*
X143794638Y-110836798D01*
X143826865Y-110898791D01*
X143829187Y-110922788D01*
X143800252Y-142375614D01*
X143780506Y-142442635D01*
X143727660Y-142488342D01*
X143676252Y-142499500D01*
X90173493Y-142499500D01*
X90106454Y-142479815D01*
X90060699Y-142427011D01*
X90049493Y-142375729D01*
X90045802Y-140378912D01*
X90043561Y-139166699D01*
X91217175Y-139166699D01*
X91236234Y-139384548D01*
X91236236Y-139384558D01*
X91292832Y-139595781D01*
X91292834Y-139595785D01*
X91292835Y-139595789D01*
X91330005Y-139675500D01*
X91385255Y-139793985D01*
X91385256Y-139793986D01*
X91510690Y-139973124D01*
X91665324Y-140127758D01*
X91844462Y-140253192D01*
X92042659Y-140345613D01*
X92253895Y-140402213D01*
X92428178Y-140417461D01*
X92471748Y-140421273D01*
X92471749Y-140421273D01*
X92471750Y-140421273D01*
X92508058Y-140418096D01*
X92689603Y-140402213D01*
X92900839Y-140345613D01*
X93099036Y-140253192D01*
X93278174Y-140127758D01*
X93432808Y-139973124D01*
X93558242Y-139793986D01*
X93650663Y-139595789D01*
X93707263Y-139384553D01*
X93726323Y-139166699D01*
X95717176Y-139166699D01*
X95736235Y-139384548D01*
X95736237Y-139384558D01*
X95792833Y-139595781D01*
X95792835Y-139595785D01*
X95792836Y-139595789D01*
X95830006Y-139675500D01*
X95885256Y-139793985D01*
X95885257Y-139793986D01*
X96010691Y-139973124D01*
X96165325Y-140127758D01*
X96344463Y-140253192D01*
X96542660Y-140345613D01*
X96753896Y-140402213D01*
X96928179Y-140417461D01*
X96971749Y-140421273D01*
X96971750Y-140421273D01*
X96971751Y-140421273D01*
X97008059Y-140418096D01*
X97189604Y-140402213D01*
X97400840Y-140345613D01*
X97599037Y-140253192D01*
X97778175Y-140127758D01*
X97932809Y-139973124D01*
X98058243Y-139793986D01*
X98150664Y-139595789D01*
X98207264Y-139384553D01*
X98223411Y-139200000D01*
X100855425Y-139200000D01*
X100874484Y-139417849D01*
X100874486Y-139417859D01*
X100931082Y-139629082D01*
X100931084Y-139629086D01*
X100931085Y-139629090D01*
X100955132Y-139680659D01*
X101023505Y-139827286D01*
X101023506Y-139827287D01*
X101148940Y-140006425D01*
X101303574Y-140161059D01*
X101482712Y-140286493D01*
X101680909Y-140378914D01*
X101892145Y-140435514D01*
X102066428Y-140450762D01*
X102109998Y-140454574D01*
X102109999Y-140454574D01*
X102110000Y-140454574D01*
X102146308Y-140451397D01*
X102327853Y-140435514D01*
X102539089Y-140378914D01*
X102737286Y-140286493D01*
X102916424Y-140161059D01*
X103071058Y-140006425D01*
X103196492Y-139827287D01*
X103288913Y-139629090D01*
X103345513Y-139417854D01*
X103364573Y-139200000D01*
X105355426Y-139200000D01*
X105374485Y-139417849D01*
X105374487Y-139417859D01*
X105431083Y-139629082D01*
X105431085Y-139629086D01*
X105431086Y-139629090D01*
X105455133Y-139680659D01*
X105523506Y-139827286D01*
X105523507Y-139827287D01*
X105648941Y-140006425D01*
X105803575Y-140161059D01*
X105982713Y-140286493D01*
X106180910Y-140378914D01*
X106392146Y-140435514D01*
X106566429Y-140450762D01*
X106609999Y-140454574D01*
X106610000Y-140454574D01*
X106610001Y-140454574D01*
X106646309Y-140451397D01*
X106827854Y-140435514D01*
X107039090Y-140378914D01*
X107237287Y-140286493D01*
X107416425Y-140161059D01*
X107571059Y-140006425D01*
X107696493Y-139827287D01*
X107788914Y-139629090D01*
X107845514Y-139417854D01*
X107864574Y-139200000D01*
X107845514Y-138982146D01*
X107788914Y-138770910D01*
X107696493Y-138572713D01*
X107571059Y-138393575D01*
X107502484Y-138325000D01*
X118439341Y-138325000D01*
X118459936Y-138560403D01*
X118459938Y-138560413D01*
X118521094Y-138788655D01*
X118521096Y-138788659D01*
X118521097Y-138788663D01*
X118577138Y-138908842D01*
X118620965Y-139002830D01*
X118620967Y-139002834D01*
X118729281Y-139157521D01*
X118756505Y-139196401D01*
X118923599Y-139363495D01*
X119001232Y-139417854D01*
X119117165Y-139499032D01*
X119117167Y-139499033D01*
X119117170Y-139499035D01*
X119331337Y-139598903D01*
X119559592Y-139660063D01*
X119736034Y-139675500D01*
X119794999Y-139680659D01*
X119795000Y-139680659D01*
X119795001Y-139680659D01*
X119853966Y-139675500D01*
X120030408Y-139660063D01*
X120258663Y-139598903D01*
X120472830Y-139499035D01*
X120666401Y-139363495D01*
X120788329Y-139241566D01*
X120849648Y-139208084D01*
X120919340Y-139213068D01*
X120975274Y-139254939D01*
X120992189Y-139285917D01*
X121041202Y-139417328D01*
X121041206Y-139417335D01*
X121127452Y-139532544D01*
X121127455Y-139532547D01*
X121242664Y-139618793D01*
X121242671Y-139618797D01*
X121377517Y-139669091D01*
X121377516Y-139669091D01*
X121384444Y-139669835D01*
X121437127Y-139675500D01*
X123232872Y-139675499D01*
X123292483Y-139669091D01*
X123427331Y-139618796D01*
X123542546Y-139532546D01*
X123628796Y-139417331D01*
X123679091Y-139282483D01*
X123685500Y-139222873D01*
X123685499Y-138190000D01*
X135579953Y-138190000D01*
X135598092Y-138362576D01*
X135598093Y-138362579D01*
X135651712Y-138527608D01*
X135738477Y-138677887D01*
X135738476Y-138677887D01*
X135738478Y-138677889D01*
X135854590Y-138806845D01*
X135984999Y-138901593D01*
X135994976Y-138908842D01*
X136153495Y-138979420D01*
X136153501Y-138979422D01*
X136323236Y-139015500D01*
X136323237Y-139015500D01*
X136496762Y-139015500D01*
X136496764Y-139015500D01*
X136666499Y-138979422D01*
X136666501Y-138979420D01*
X136666504Y-138979420D01*
X136784564Y-138926856D01*
X136853814Y-138917571D01*
X136885436Y-138926856D01*
X137003495Y-138979420D01*
X137003501Y-138979422D01*
X137173236Y-139015500D01*
X137173237Y-139015500D01*
X137346762Y-139015500D01*
X137346764Y-139015500D01*
X137516499Y-138979422D01*
X137516501Y-138979420D01*
X137516504Y-138979420D01*
X137634564Y-138926856D01*
X137703814Y-138917571D01*
X137735436Y-138926856D01*
X137853495Y-138979420D01*
X137853501Y-138979422D01*
X138023236Y-139015500D01*
X138023237Y-139015500D01*
X138196762Y-139015500D01*
X138196764Y-139015500D01*
X138366499Y-138979422D01*
X138366501Y-138979420D01*
X138366504Y-138979420D01*
X138484564Y-138926856D01*
X138553814Y-138917571D01*
X138585436Y-138926856D01*
X138703495Y-138979420D01*
X138703501Y-138979422D01*
X138873236Y-139015500D01*
X138873237Y-139015500D01*
X139046762Y-139015500D01*
X139046764Y-139015500D01*
X139216499Y-138979422D01*
X139216501Y-138979420D01*
X139216504Y-138979420D01*
X139334564Y-138926856D01*
X139403814Y-138917571D01*
X139435436Y-138926856D01*
X139553495Y-138979420D01*
X139553501Y-138979422D01*
X139723236Y-139015500D01*
X139723237Y-139015500D01*
X139896762Y-139015500D01*
X139896764Y-139015500D01*
X140066499Y-138979422D01*
X140066501Y-138979420D01*
X140066504Y-138979420D01*
X140184564Y-138926856D01*
X140253814Y-138917571D01*
X140285436Y-138926856D01*
X140403495Y-138979420D01*
X140403501Y-138979422D01*
X140573236Y-139015500D01*
X140573237Y-139015500D01*
X140746762Y-139015500D01*
X140746764Y-139015500D01*
X140916499Y-138979422D01*
X140916501Y-138979420D01*
X140916504Y-138979420D01*
X140985189Y-138948839D01*
X141075024Y-138908842D01*
X141215410Y-138806845D01*
X141331522Y-138677889D01*
X141418286Y-138527611D01*
X141471908Y-138362576D01*
X141490047Y-138190000D01*
X141471908Y-138017424D01*
X141421196Y-137861344D01*
X141418287Y-137852391D01*
X141418286Y-137852389D01*
X141331522Y-137702111D01*
X141237754Y-137597971D01*
X141207525Y-137534980D01*
X141216150Y-137465645D01*
X141237755Y-137432028D01*
X141331522Y-137327889D01*
X141418286Y-137177611D01*
X141471908Y-137012576D01*
X141490047Y-136840000D01*
X141471908Y-136667424D01*
X141418286Y-136502389D01*
X141331522Y-136352111D01*
X141215410Y-136223155D01*
X141075024Y-136121158D01*
X141075023Y-136121157D01*
X140916504Y-136050579D01*
X140916498Y-136050577D01*
X140782841Y-136022168D01*
X140746764Y-136014500D01*
X140573236Y-136014500D01*
X140543483Y-136020824D01*
X140403501Y-136050577D01*
X140403500Y-136050577D01*
X140285434Y-136103144D01*
X140216184Y-136112428D01*
X140184564Y-136103144D01*
X140066500Y-136050578D01*
X140066498Y-136050577D01*
X139932841Y-136022168D01*
X139896764Y-136014500D01*
X139723236Y-136014500D01*
X139693483Y-136020824D01*
X139553501Y-136050577D01*
X139553500Y-136050577D01*
X139435434Y-136103144D01*
X139366184Y-136112428D01*
X139334564Y-136103144D01*
X139216500Y-136050578D01*
X139216498Y-136050577D01*
X139082841Y-136022168D01*
X139046764Y-136014500D01*
X138873236Y-136014500D01*
X138843483Y-136020824D01*
X138703501Y-136050577D01*
X138703500Y-136050577D01*
X138585434Y-136103144D01*
X138516184Y-136112428D01*
X138484564Y-136103144D01*
X138366500Y-136050578D01*
X138366498Y-136050577D01*
X138232841Y-136022168D01*
X138196764Y-136014500D01*
X138023236Y-136014500D01*
X137993483Y-136020824D01*
X137853501Y-136050577D01*
X137853500Y-136050577D01*
X137735434Y-136103144D01*
X137666184Y-136112428D01*
X137634564Y-136103144D01*
X137516500Y-136050578D01*
X137516498Y-136050577D01*
X137382841Y-136022168D01*
X137346764Y-136014500D01*
X137173236Y-136014500D01*
X137143483Y-136020824D01*
X137003501Y-136050577D01*
X137003500Y-136050577D01*
X136885434Y-136103144D01*
X136816184Y-136112428D01*
X136784564Y-136103144D01*
X136666500Y-136050578D01*
X136666498Y-136050577D01*
X136532841Y-136022168D01*
X136496764Y-136014500D01*
X136323236Y-136014500D01*
X136293483Y-136020824D01*
X136153501Y-136050577D01*
X136153496Y-136050579D01*
X135994977Y-136121157D01*
X135994972Y-136121160D01*
X135854591Y-136223153D01*
X135854589Y-136223155D01*
X135738477Y-136352112D01*
X135651712Y-136502391D01*
X135598093Y-136667420D01*
X135598092Y-136667424D01*
X135579953Y-136840000D01*
X135598092Y-137012576D01*
X135598093Y-137012579D01*
X135651712Y-137177608D01*
X135651714Y-137177611D01*
X135738478Y-137327889D01*
X135771067Y-137364083D01*
X135832244Y-137432028D01*
X135862474Y-137495020D01*
X135853848Y-137564355D01*
X135832244Y-137597972D01*
X135738477Y-137702112D01*
X135651712Y-137852391D01*
X135598093Y-138017420D01*
X135598092Y-138017424D01*
X135579953Y-138190000D01*
X123685499Y-138190000D01*
X123685499Y-137427128D01*
X123679091Y-137367517D01*
X123677810Y-137364083D01*
X123628797Y-137232671D01*
X123628793Y-137232664D01*
X123542547Y-137117455D01*
X123542544Y-137117452D01*
X123427335Y-137031206D01*
X123427328Y-137031202D01*
X123292482Y-136980908D01*
X123292483Y-136980908D01*
X123232883Y-136974501D01*
X123232881Y-136974500D01*
X123232873Y-136974500D01*
X123232864Y-136974500D01*
X121437129Y-136974500D01*
X121437123Y-136974501D01*
X121377516Y-136980908D01*
X121242671Y-137031202D01*
X121242664Y-137031206D01*
X121127455Y-137117452D01*
X121127452Y-137117455D01*
X121041206Y-137232664D01*
X121041203Y-137232669D01*
X120992189Y-137364083D01*
X120950317Y-137420016D01*
X120884853Y-137444433D01*
X120816580Y-137429581D01*
X120788326Y-137408430D01*
X120666402Y-137286506D01*
X120666395Y-137286501D01*
X120472834Y-137150967D01*
X120472830Y-137150965D01*
X120472828Y-137150964D01*
X120258663Y-137051097D01*
X120258659Y-137051096D01*
X120258655Y-137051094D01*
X120030413Y-136989938D01*
X120030403Y-136989936D01*
X119795001Y-136969341D01*
X119794999Y-136969341D01*
X119559596Y-136989936D01*
X119559586Y-136989938D01*
X119331344Y-137051094D01*
X119331335Y-137051098D01*
X119117171Y-137150964D01*
X119117169Y-137150965D01*
X118923597Y-137286505D01*
X118756505Y-137453597D01*
X118620965Y-137647169D01*
X118620964Y-137647171D01*
X118521098Y-137861335D01*
X118521094Y-137861344D01*
X118459938Y-138089586D01*
X118459936Y-138089596D01*
X118439341Y-138324999D01*
X118439341Y-138325000D01*
X107502484Y-138325000D01*
X107416425Y-138238941D01*
X107237287Y-138113507D01*
X107237288Y-138113507D01*
X107237286Y-138113506D01*
X107138188Y-138067296D01*
X107039090Y-138021086D01*
X107039086Y-138021085D01*
X107039082Y-138021083D01*
X106827859Y-137964487D01*
X106827849Y-137964485D01*
X106610001Y-137945426D01*
X106609999Y-137945426D01*
X106392150Y-137964485D01*
X106392140Y-137964487D01*
X106180917Y-138021083D01*
X106180908Y-138021087D01*
X105982713Y-138113506D01*
X105873470Y-138190000D01*
X105803575Y-138238941D01*
X105803573Y-138238942D01*
X105803570Y-138238945D01*
X105648945Y-138393570D01*
X105523506Y-138572713D01*
X105431087Y-138770908D01*
X105431083Y-138770917D01*
X105374487Y-138982140D01*
X105374485Y-138982150D01*
X105355426Y-139199999D01*
X105355426Y-139200000D01*
X103364573Y-139200000D01*
X103345513Y-138982146D01*
X103288913Y-138770910D01*
X103196492Y-138572713D01*
X103071058Y-138393575D01*
X102916424Y-138238941D01*
X102737286Y-138113507D01*
X102737287Y-138113507D01*
X102737285Y-138113506D01*
X102638187Y-138067296D01*
X102539089Y-138021086D01*
X102539085Y-138021085D01*
X102539081Y-138021083D01*
X102327858Y-137964487D01*
X102327848Y-137964485D01*
X102110000Y-137945426D01*
X102109998Y-137945426D01*
X101892149Y-137964485D01*
X101892139Y-137964487D01*
X101680916Y-138021083D01*
X101680907Y-138021087D01*
X101482712Y-138113506D01*
X101373469Y-138190000D01*
X101303574Y-138238941D01*
X101303572Y-138238942D01*
X101303569Y-138238945D01*
X101148944Y-138393570D01*
X101023505Y-138572713D01*
X100931086Y-138770908D01*
X100931082Y-138770917D01*
X100874486Y-138982140D01*
X100874484Y-138982150D01*
X100855425Y-139199999D01*
X100855425Y-139200000D01*
X98223411Y-139200000D01*
X98226324Y-139166699D01*
X98207264Y-138948845D01*
X98150664Y-138737609D01*
X98058243Y-138539412D01*
X97932809Y-138360274D01*
X97778175Y-138205640D01*
X97634864Y-138105292D01*
X97599036Y-138080205D01*
X97472254Y-138021086D01*
X97400840Y-137987785D01*
X97400836Y-137987784D01*
X97400832Y-137987782D01*
X97189609Y-137931186D01*
X97189599Y-137931184D01*
X96971751Y-137912125D01*
X96971749Y-137912125D01*
X96753900Y-137931184D01*
X96753890Y-137931186D01*
X96542667Y-137987782D01*
X96542658Y-137987786D01*
X96344463Y-138080205D01*
X96224951Y-138163889D01*
X96165325Y-138205640D01*
X96165323Y-138205641D01*
X96165320Y-138205644D01*
X96010695Y-138360269D01*
X96010692Y-138360272D01*
X96010691Y-138360274D01*
X95968940Y-138419900D01*
X95885256Y-138539412D01*
X95792837Y-138737607D01*
X95792833Y-138737616D01*
X95736237Y-138948839D01*
X95736235Y-138948849D01*
X95717176Y-139166698D01*
X95717176Y-139166699D01*
X93726323Y-139166699D01*
X93707263Y-138948845D01*
X93650663Y-138737609D01*
X93558242Y-138539412D01*
X93432808Y-138360274D01*
X93278174Y-138205640D01*
X93134863Y-138105292D01*
X93099035Y-138080205D01*
X92972253Y-138021086D01*
X92900839Y-137987785D01*
X92900835Y-137987784D01*
X92900831Y-137987782D01*
X92689608Y-137931186D01*
X92689598Y-137931184D01*
X92471750Y-137912125D01*
X92471748Y-137912125D01*
X92253899Y-137931184D01*
X92253889Y-137931186D01*
X92042666Y-137987782D01*
X92042657Y-137987786D01*
X91844462Y-138080205D01*
X91724950Y-138163889D01*
X91665324Y-138205640D01*
X91665322Y-138205641D01*
X91665319Y-138205644D01*
X91510694Y-138360269D01*
X91510691Y-138360272D01*
X91510690Y-138360274D01*
X91468939Y-138419900D01*
X91385255Y-138539412D01*
X91292836Y-138737607D01*
X91292832Y-138737616D01*
X91236236Y-138948839D01*
X91236234Y-138948849D01*
X91217175Y-139166698D01*
X91217175Y-139166699D01*
X90043561Y-139166699D01*
X90036968Y-135600003D01*
X124894435Y-135600003D01*
X124914630Y-135779249D01*
X124914631Y-135779254D01*
X124974211Y-135949523D01*
X125015039Y-136014500D01*
X125070184Y-136102262D01*
X125197738Y-136229816D01*
X125350478Y-136325789D01*
X125425702Y-136352111D01*
X125520745Y-136385368D01*
X125520750Y-136385369D01*
X125699996Y-136405565D01*
X125700000Y-136405565D01*
X125700004Y-136405565D01*
X125879249Y-136385369D01*
X125879252Y-136385368D01*
X125879255Y-136385368D01*
X126049522Y-136325789D01*
X126202262Y-136229816D01*
X126329816Y-136102262D01*
X126425789Y-135949522D01*
X126485368Y-135779255D01*
X126485369Y-135779249D01*
X126505565Y-135600003D01*
X126505565Y-135599996D01*
X126485369Y-135420750D01*
X126485368Y-135420745D01*
X126425789Y-135250478D01*
X126331239Y-135100003D01*
X131744435Y-135100003D01*
X131764630Y-135279249D01*
X131764631Y-135279254D01*
X131824211Y-135449523D01*
X131918760Y-135599996D01*
X131920184Y-135602262D01*
X132047738Y-135729816D01*
X132200478Y-135825789D01*
X132370745Y-135885368D01*
X132370750Y-135885369D01*
X132549996Y-135905565D01*
X132550000Y-135905565D01*
X132550004Y-135905565D01*
X132729249Y-135885369D01*
X132729252Y-135885368D01*
X132729255Y-135885368D01*
X132899522Y-135825789D01*
X133052262Y-135729816D01*
X133179816Y-135602262D01*
X133275789Y-135449522D01*
X133335368Y-135279255D01*
X133335369Y-135279249D01*
X133355565Y-135100003D01*
X133355565Y-135099996D01*
X133335369Y-134920750D01*
X133335366Y-134920737D01*
X133281205Y-134765955D01*
X133277643Y-134696176D01*
X133281205Y-134684045D01*
X133335366Y-134529262D01*
X133335369Y-134529249D01*
X133355565Y-134350003D01*
X133355565Y-134349996D01*
X133335369Y-134170750D01*
X133335368Y-134170745D01*
X133275788Y-134000476D01*
X133179815Y-133847737D01*
X133052262Y-133720184D01*
X132899523Y-133624211D01*
X132729254Y-133564631D01*
X132729249Y-133564630D01*
X132550004Y-133544435D01*
X132549996Y-133544435D01*
X132370750Y-133564630D01*
X132370745Y-133564631D01*
X132200476Y-133624211D01*
X132047737Y-133720184D01*
X131920184Y-133847737D01*
X131824211Y-134000476D01*
X131764631Y-134170745D01*
X131764630Y-134170750D01*
X131744435Y-134349996D01*
X131744435Y-134350003D01*
X131764630Y-134529249D01*
X131764632Y-134529257D01*
X131818795Y-134684046D01*
X131822356Y-134753824D01*
X131818795Y-134765954D01*
X131764632Y-134920742D01*
X131764630Y-134920750D01*
X131744435Y-135099996D01*
X131744435Y-135100003D01*
X126331239Y-135100003D01*
X126329816Y-135097738D01*
X126202262Y-134970184D01*
X126049523Y-134874211D01*
X125879254Y-134814631D01*
X125879249Y-134814630D01*
X125700004Y-134794435D01*
X125699996Y-134794435D01*
X125520750Y-134814630D01*
X125520745Y-134814631D01*
X125350476Y-134874211D01*
X125197737Y-134970184D01*
X125070184Y-135097737D01*
X124974211Y-135250476D01*
X124914631Y-135420745D01*
X124914630Y-135420750D01*
X124894435Y-135599996D01*
X124894435Y-135600003D01*
X90036968Y-135600003D01*
X90034011Y-134000003D01*
X126794435Y-134000003D01*
X126814630Y-134179249D01*
X126814631Y-134179254D01*
X126874211Y-134349523D01*
X126874511Y-134350000D01*
X126970184Y-134502262D01*
X127097738Y-134629816D01*
X127250478Y-134725789D01*
X127365263Y-134765954D01*
X127420745Y-134785368D01*
X127420750Y-134785369D01*
X127599996Y-134805565D01*
X127600000Y-134805565D01*
X127600004Y-134805565D01*
X127779249Y-134785369D01*
X127779252Y-134785368D01*
X127779255Y-134785368D01*
X127949522Y-134725789D01*
X128102262Y-134629816D01*
X128229816Y-134502262D01*
X128325789Y-134349522D01*
X128385368Y-134179255D01*
X128385369Y-134179249D01*
X128405565Y-134000003D01*
X128405565Y-133999996D01*
X128385369Y-133820750D01*
X128385368Y-133820745D01*
X128325788Y-133650476D01*
X128229815Y-133497737D01*
X128102262Y-133370184D01*
X127949523Y-133274211D01*
X127779254Y-133214631D01*
X127779249Y-133214630D01*
X127600004Y-133194435D01*
X127599996Y-133194435D01*
X127420750Y-133214630D01*
X127420745Y-133214631D01*
X127250476Y-133274211D01*
X127097737Y-133370184D01*
X126970184Y-133497737D01*
X126874211Y-133650476D01*
X126814631Y-133820745D01*
X126814630Y-133820750D01*
X126794435Y-133999996D01*
X126794435Y-134000003D01*
X90034011Y-134000003D01*
X90030499Y-132100003D01*
X95544435Y-132100003D01*
X95564630Y-132279249D01*
X95564631Y-132279254D01*
X95624211Y-132449523D01*
X95720184Y-132602262D01*
X95847738Y-132729816D01*
X96000478Y-132825789D01*
X96170745Y-132885368D01*
X96170750Y-132885369D01*
X96349996Y-132905565D01*
X96350000Y-132905565D01*
X96350004Y-132905565D01*
X96529249Y-132885369D01*
X96529252Y-132885368D01*
X96529255Y-132885368D01*
X96699522Y-132825789D01*
X96852262Y-132729816D01*
X96979816Y-132602262D01*
X97075789Y-132449522D01*
X97135368Y-132279255D01*
X97155565Y-132100000D01*
X97144244Y-131999523D01*
X97135369Y-131920750D01*
X97135368Y-131920745D01*
X97075788Y-131750476D01*
X97012656Y-131650003D01*
X129894435Y-131650003D01*
X129914630Y-131829249D01*
X129914631Y-131829254D01*
X129974211Y-131999523D01*
X130037347Y-132100003D01*
X130070184Y-132152262D01*
X130197738Y-132279816D01*
X130350478Y-132375789D01*
X130520745Y-132435368D01*
X130520750Y-132435369D01*
X130699996Y-132455565D01*
X130700000Y-132455565D01*
X130700004Y-132455565D01*
X130879249Y-132435369D01*
X130879252Y-132435368D01*
X130879255Y-132435368D01*
X131049522Y-132375789D01*
X131084027Y-132354108D01*
X131151263Y-132335107D01*
X131215973Y-132354108D01*
X131250475Y-132375788D01*
X131420745Y-132435368D01*
X131420750Y-132435369D01*
X131599996Y-132455565D01*
X131600000Y-132455565D01*
X131600004Y-132455565D01*
X131779249Y-132435369D01*
X131779252Y-132435368D01*
X131779255Y-132435368D01*
X131949522Y-132375789D01*
X132102262Y-132279816D01*
X132229816Y-132152262D01*
X132325789Y-131999522D01*
X132385368Y-131829255D01*
X132394244Y-131750478D01*
X132405565Y-131650003D01*
X132405565Y-131649996D01*
X132385369Y-131470750D01*
X132385368Y-131470745D01*
X132336054Y-131329815D01*
X132325789Y-131300478D01*
X132229816Y-131147738D01*
X132102262Y-131020184D01*
X132049999Y-130987345D01*
X131949523Y-130924211D01*
X131779254Y-130864631D01*
X131779249Y-130864630D01*
X131600004Y-130844435D01*
X131599996Y-130844435D01*
X131420750Y-130864630D01*
X131420737Y-130864633D01*
X131250480Y-130924209D01*
X131215970Y-130945893D01*
X131148733Y-130964892D01*
X131084030Y-130945893D01*
X131049519Y-130924209D01*
X130879262Y-130864633D01*
X130879249Y-130864630D01*
X130700004Y-130844435D01*
X130699996Y-130844435D01*
X130520750Y-130864630D01*
X130520745Y-130864631D01*
X130350476Y-130924211D01*
X130197737Y-131020184D01*
X130070184Y-131147737D01*
X129974211Y-131300476D01*
X129914631Y-131470745D01*
X129914630Y-131470750D01*
X129894435Y-131649996D01*
X129894435Y-131650003D01*
X97012656Y-131650003D01*
X96979815Y-131597737D01*
X96852262Y-131470184D01*
X96699523Y-131374211D01*
X96529254Y-131314631D01*
X96529249Y-131314630D01*
X96350004Y-131294435D01*
X96349996Y-131294435D01*
X96170750Y-131314630D01*
X96170745Y-131314631D01*
X96000476Y-131374211D01*
X95847737Y-131470184D01*
X95720184Y-131597737D01*
X95624211Y-131750476D01*
X95564631Y-131920745D01*
X95564630Y-131920750D01*
X95544435Y-132099996D01*
X95544435Y-132100003D01*
X90030499Y-132100003D01*
X90027911Y-130700003D01*
X137944435Y-130700003D01*
X137964630Y-130879249D01*
X137964631Y-130879254D01*
X138024211Y-131049523D01*
X138085924Y-131147738D01*
X138120184Y-131202262D01*
X138247738Y-131329816D01*
X138400478Y-131425789D01*
X138527352Y-131470184D01*
X138570745Y-131485368D01*
X138570750Y-131485369D01*
X138749996Y-131505565D01*
X138750000Y-131505565D01*
X138750004Y-131505565D01*
X138929249Y-131485369D01*
X138929252Y-131485368D01*
X138929255Y-131485368D01*
X139099522Y-131425789D01*
X139252262Y-131329816D01*
X139379816Y-131202262D01*
X139475789Y-131049522D01*
X139535368Y-130879255D01*
X139535369Y-130879249D01*
X139555565Y-130700003D01*
X139555565Y-130699996D01*
X139535369Y-130520750D01*
X139535368Y-130520745D01*
X139475788Y-130350476D01*
X139379815Y-130197737D01*
X139252262Y-130070184D01*
X139099523Y-129974211D01*
X138929254Y-129914631D01*
X138929249Y-129914630D01*
X138750004Y-129894435D01*
X138749996Y-129894435D01*
X138570750Y-129914630D01*
X138570745Y-129914631D01*
X138400476Y-129974211D01*
X138247737Y-130070184D01*
X138120184Y-130197737D01*
X138024211Y-130350476D01*
X137964631Y-130520745D01*
X137964630Y-130520750D01*
X137944435Y-130699996D01*
X137944435Y-130700003D01*
X90027911Y-130700003D01*
X90025046Y-129150003D01*
X95444435Y-129150003D01*
X95464630Y-129329249D01*
X95464631Y-129329254D01*
X95524211Y-129499523D01*
X95620184Y-129652262D01*
X95747738Y-129779816D01*
X95900478Y-129875789D01*
X96011479Y-129914630D01*
X96070745Y-129935368D01*
X96070750Y-129935369D01*
X96249996Y-129955565D01*
X96250000Y-129955565D01*
X96250004Y-129955565D01*
X96429249Y-129935369D01*
X96429252Y-129935368D01*
X96429255Y-129935368D01*
X96599522Y-129875789D01*
X96752262Y-129779816D01*
X96879816Y-129652262D01*
X96975789Y-129499522D01*
X97035368Y-129329255D01*
X97055565Y-129150000D01*
X97053916Y-129135369D01*
X97035369Y-128970750D01*
X97035368Y-128970745D01*
X96975788Y-128800476D01*
X96879815Y-128647737D01*
X96752262Y-128520184D01*
X96599523Y-128424211D01*
X96429254Y-128364631D01*
X96429249Y-128364630D01*
X96299424Y-128350003D01*
X100044435Y-128350003D01*
X100064630Y-128529249D01*
X100064631Y-128529254D01*
X100124211Y-128699523D01*
X100187646Y-128800478D01*
X100220184Y-128852262D01*
X100347738Y-128979816D01*
X100500478Y-129075789D01*
X100670745Y-129135368D01*
X100670750Y-129135369D01*
X100849996Y-129155565D01*
X100850000Y-129155565D01*
X100850004Y-129155565D01*
X101029249Y-129135369D01*
X101029252Y-129135368D01*
X101029255Y-129135368D01*
X101199522Y-129075789D01*
X101352262Y-128979816D01*
X101479816Y-128852262D01*
X101575789Y-128699522D01*
X101635368Y-128529255D01*
X101651384Y-128387109D01*
X101655565Y-128350003D01*
X101655565Y-128349996D01*
X101635369Y-128170750D01*
X101635368Y-128170745D01*
X101575788Y-128000476D01*
X101479815Y-127847737D01*
X101352262Y-127720184D01*
X101199523Y-127624211D01*
X101029254Y-127564631D01*
X101029249Y-127564630D01*
X100850004Y-127544435D01*
X100849996Y-127544435D01*
X100670750Y-127564630D01*
X100670745Y-127564631D01*
X100500476Y-127624211D01*
X100347737Y-127720184D01*
X100220184Y-127847737D01*
X100124211Y-128000476D01*
X100064631Y-128170745D01*
X100064630Y-128170750D01*
X100044435Y-128349996D01*
X100044435Y-128350003D01*
X96299424Y-128350003D01*
X96250004Y-128344435D01*
X96249996Y-128344435D01*
X96070750Y-128364630D01*
X96070745Y-128364631D01*
X95900476Y-128424211D01*
X95747737Y-128520184D01*
X95620184Y-128647737D01*
X95524211Y-128800476D01*
X95464631Y-128970745D01*
X95464630Y-128970750D01*
X95444435Y-129149996D01*
X95444435Y-129150003D01*
X90025046Y-129150003D01*
X90021563Y-127265822D01*
X127017900Y-127265822D01*
X127048690Y-127460226D01*
X127109517Y-127647429D01*
X127146588Y-127720184D01*
X127198876Y-127822805D01*
X127314572Y-127982046D01*
X127453754Y-128121228D01*
X127612995Y-128236924D01*
X127695855Y-128279143D01*
X127788370Y-128326282D01*
X127788372Y-128326282D01*
X127788375Y-128326284D01*
X127844238Y-128344435D01*
X127975573Y-128387109D01*
X128169978Y-128417900D01*
X128169983Y-128417900D01*
X129866822Y-128417900D01*
X130061226Y-128387109D01*
X130248425Y-128326284D01*
X130423805Y-128236924D01*
X130583046Y-128121228D01*
X130722228Y-127982046D01*
X130837924Y-127822805D01*
X130927284Y-127647425D01*
X130988109Y-127460226D01*
X131018900Y-127265822D01*
X131018900Y-127068977D01*
X130988109Y-126874573D01*
X130927282Y-126687370D01*
X130837923Y-126511994D01*
X130722228Y-126352754D01*
X130583046Y-126213572D01*
X130423805Y-126097876D01*
X130248429Y-126008517D01*
X130061226Y-125947690D01*
X129866822Y-125916900D01*
X129866817Y-125916900D01*
X128169983Y-125916900D01*
X128169978Y-125916900D01*
X127975573Y-125947690D01*
X127788370Y-126008517D01*
X127612994Y-126097876D01*
X127522141Y-126163885D01*
X127453754Y-126213572D01*
X127453752Y-126213574D01*
X127453751Y-126213574D01*
X127314574Y-126352751D01*
X127314574Y-126352752D01*
X127314572Y-126352754D01*
X127264885Y-126421141D01*
X127198876Y-126511994D01*
X127109517Y-126687370D01*
X127048690Y-126874573D01*
X127017900Y-127068977D01*
X127017900Y-127265822D01*
X90021563Y-127265822D01*
X90015545Y-124010000D01*
X94944341Y-124010000D01*
X94964936Y-124245403D01*
X94964938Y-124245413D01*
X95026094Y-124473655D01*
X95026096Y-124473659D01*
X95026097Y-124473663D01*
X95125965Y-124687830D01*
X95125967Y-124687834D01*
X95234281Y-124842521D01*
X95261505Y-124881401D01*
X95428599Y-125048495D01*
X95525384Y-125116265D01*
X95622165Y-125184032D01*
X95622167Y-125184033D01*
X95622170Y-125184035D01*
X95836337Y-125283903D01*
X96064592Y-125345063D01*
X96252918Y-125361539D01*
X96299999Y-125365659D01*
X96300000Y-125365659D01*
X96300001Y-125365659D01*
X96339234Y-125362226D01*
X96535408Y-125345063D01*
X96763663Y-125283903D01*
X96977830Y-125184035D01*
X97171401Y-125048495D01*
X97338495Y-124881401D01*
X97474035Y-124687830D01*
X97573903Y-124473663D01*
X97635063Y-124245408D01*
X97655659Y-124010000D01*
X97635063Y-123774592D01*
X97573903Y-123546337D01*
X97474035Y-123332171D01*
X97456487Y-123307109D01*
X97338494Y-123138597D01*
X97171402Y-122971506D01*
X97171396Y-122971501D01*
X96985842Y-122841575D01*
X96942217Y-122786998D01*
X96940888Y-122774162D01*
X100629500Y-122774162D01*
X100665215Y-122999660D01*
X100735770Y-123216803D01*
X100839421Y-123420228D01*
X100973621Y-123604937D01*
X101135063Y-123766379D01*
X101319772Y-123900579D01*
X101415884Y-123949550D01*
X101523196Y-124004229D01*
X101523198Y-124004229D01*
X101523201Y-124004231D01*
X101639592Y-124042049D01*
X101740339Y-124074784D01*
X101965838Y-124110500D01*
X101965843Y-124110500D01*
X102394162Y-124110500D01*
X102619660Y-124074784D01*
X102836799Y-124004231D01*
X103040228Y-123900579D01*
X103224937Y-123766379D01*
X103386379Y-123604937D01*
X103520579Y-123420228D01*
X103624231Y-123216799D01*
X103694784Y-122999660D01*
X103705846Y-122929816D01*
X103730500Y-122774162D01*
X120949500Y-122774162D01*
X120985215Y-122999660D01*
X121055770Y-123216803D01*
X121159421Y-123420228D01*
X121293621Y-123604937D01*
X121455063Y-123766379D01*
X121639772Y-123900579D01*
X121735884Y-123949550D01*
X121843196Y-124004229D01*
X121843198Y-124004229D01*
X121843201Y-124004231D01*
X121959592Y-124042049D01*
X122060339Y-124074784D01*
X122285838Y-124110500D01*
X122285843Y-124110500D01*
X122714162Y-124110500D01*
X122939660Y-124074784D01*
X123156799Y-124004231D01*
X123360228Y-123900579D01*
X123544937Y-123766379D01*
X123706379Y-123604937D01*
X123840579Y-123420228D01*
X123944231Y-123216799D01*
X124014784Y-122999660D01*
X124025846Y-122929816D01*
X124050500Y-122774162D01*
X124050500Y-122545837D01*
X124014784Y-122320339D01*
X123971076Y-122185822D01*
X127017900Y-122185822D01*
X127048690Y-122380226D01*
X127109517Y-122567429D01*
X127197447Y-122740000D01*
X127198876Y-122742805D01*
X127314572Y-122902046D01*
X127453754Y-123041228D01*
X127612995Y-123156924D01*
X127695855Y-123199143D01*
X127788370Y-123246282D01*
X127788372Y-123246282D01*
X127788375Y-123246284D01*
X127888717Y-123278887D01*
X127975573Y-123307109D01*
X128169978Y-123337900D01*
X128169983Y-123337900D01*
X129866822Y-123337900D01*
X130061226Y-123307109D01*
X130248425Y-123246284D01*
X130423805Y-123156924D01*
X130583046Y-123041228D01*
X130722228Y-122902046D01*
X130837924Y-122742805D01*
X130927284Y-122567425D01*
X130988109Y-122380226D01*
X131000815Y-122300003D01*
X131018900Y-122185822D01*
X131018900Y-121988977D01*
X130988109Y-121794573D01*
X130927282Y-121607370D01*
X130880028Y-121514630D01*
X130837924Y-121431995D01*
X130722228Y-121272754D01*
X130583046Y-121133572D01*
X130488579Y-121064937D01*
X130423803Y-121017874D01*
X130247187Y-120927885D01*
X130196390Y-120879911D01*
X130179595Y-120812090D01*
X130202132Y-120745955D01*
X130247187Y-120706915D01*
X130423803Y-120616925D01*
X130423802Y-120616925D01*
X130423805Y-120616924D01*
X130583046Y-120501228D01*
X130722228Y-120362046D01*
X130837924Y-120202805D01*
X130927284Y-120027425D01*
X130988109Y-119840226D01*
X130997594Y-119780339D01*
X131018900Y-119645822D01*
X131018900Y-119448977D01*
X130988109Y-119254573D01*
X130927282Y-119067370D01*
X130837923Y-118891994D01*
X130825305Y-118874627D01*
X130722228Y-118732754D01*
X130583046Y-118593572D01*
X130488579Y-118524937D01*
X130423803Y-118477874D01*
X130247187Y-118387885D01*
X130196390Y-118339911D01*
X130179595Y-118272090D01*
X130202132Y-118205955D01*
X130247187Y-118166915D01*
X130423803Y-118076925D01*
X130423802Y-118076925D01*
X130423805Y-118076924D01*
X130583046Y-117961228D01*
X130722228Y-117822046D01*
X130837924Y-117662805D01*
X130927284Y-117487425D01*
X130988109Y-117300226D01*
X130997594Y-117240339D01*
X131018900Y-117105822D01*
X131018900Y-116908977D01*
X130988109Y-116714573D01*
X130927282Y-116527370D01*
X130837923Y-116351994D01*
X130825305Y-116334627D01*
X130722228Y-116192754D01*
X130583046Y-116053572D01*
X130488579Y-115984937D01*
X130423803Y-115937874D01*
X130247187Y-115847885D01*
X130196390Y-115799911D01*
X130179595Y-115732090D01*
X130202132Y-115665955D01*
X130247187Y-115626915D01*
X130423803Y-115536925D01*
X130423802Y-115536925D01*
X130423805Y-115536924D01*
X130583046Y-115421228D01*
X130722228Y-115282046D01*
X130837924Y-115122805D01*
X130927284Y-114947425D01*
X130988109Y-114760226D01*
X130997594Y-114700339D01*
X131018900Y-114565822D01*
X131018900Y-114368977D01*
X130988109Y-114174573D01*
X130927282Y-113987370D01*
X130837923Y-113811994D01*
X130825305Y-113794627D01*
X130722228Y-113652754D01*
X130583046Y-113513572D01*
X130488579Y-113444937D01*
X130423803Y-113397874D01*
X130247187Y-113307885D01*
X130196390Y-113259911D01*
X130179595Y-113192090D01*
X130202132Y-113125955D01*
X130247187Y-113086915D01*
X130423803Y-112996925D01*
X130423802Y-112996925D01*
X130423805Y-112996924D01*
X130583046Y-112881228D01*
X130722228Y-112742046D01*
X130837924Y-112582805D01*
X130927284Y-112407425D01*
X130988109Y-112220226D01*
X130997594Y-112160339D01*
X131018900Y-112025822D01*
X131018900Y-111828977D01*
X130988109Y-111634573D01*
X130928138Y-111450003D01*
X140594435Y-111450003D01*
X140614630Y-111629249D01*
X140614631Y-111629254D01*
X140674211Y-111799523D01*
X140770184Y-111952262D01*
X140799384Y-111981462D01*
X140832869Y-112042785D01*
X140827885Y-112112477D01*
X140816697Y-112135114D01*
X140744212Y-112250474D01*
X140684631Y-112420745D01*
X140684630Y-112420750D01*
X140664435Y-112599996D01*
X140664435Y-112600003D01*
X140684630Y-112779249D01*
X140684631Y-112779254D01*
X140744211Y-112949523D01*
X140811620Y-113056803D01*
X140840184Y-113102262D01*
X140967738Y-113229816D01*
X141120478Y-113325789D01*
X141290745Y-113385368D01*
X141290750Y-113385369D01*
X141469996Y-113405565D01*
X141470000Y-113405565D01*
X141470004Y-113405565D01*
X141649249Y-113385369D01*
X141649252Y-113385368D01*
X141649255Y-113385368D01*
X141819522Y-113325789D01*
X141972262Y-113229816D01*
X142099816Y-113102262D01*
X142195789Y-112949522D01*
X142255368Y-112779255D01*
X142255369Y-112779249D01*
X142275565Y-112600003D01*
X142275565Y-112599996D01*
X142255369Y-112420750D01*
X142255368Y-112420745D01*
X142195788Y-112250476D01*
X142099815Y-112097737D01*
X142070615Y-112068537D01*
X142037130Y-112007214D01*
X142042114Y-111937522D01*
X142053302Y-111914884D01*
X142107277Y-111828983D01*
X142125789Y-111799522D01*
X142185368Y-111629255D01*
X142185369Y-111629249D01*
X142205565Y-111450003D01*
X142205565Y-111449996D01*
X142185369Y-111270750D01*
X142185368Y-111270745D01*
X142155369Y-111185013D01*
X142125789Y-111100478D01*
X142029816Y-110947738D01*
X141902262Y-110820184D01*
X141831608Y-110775789D01*
X141749523Y-110724211D01*
X141579254Y-110664631D01*
X141579249Y-110664630D01*
X141400004Y-110644435D01*
X141399996Y-110644435D01*
X141220750Y-110664630D01*
X141220745Y-110664631D01*
X141050476Y-110724211D01*
X140897737Y-110820184D01*
X140770184Y-110947737D01*
X140674211Y-111100476D01*
X140614631Y-111270745D01*
X140614630Y-111270750D01*
X140594435Y-111449996D01*
X140594435Y-111450003D01*
X130928138Y-111450003D01*
X130928137Y-111450000D01*
X130927284Y-111447375D01*
X130927282Y-111447372D01*
X130927282Y-111447370D01*
X130837923Y-111271994D01*
X130825305Y-111254627D01*
X130722228Y-111112754D01*
X130583046Y-110973572D01*
X130488579Y-110904937D01*
X130423803Y-110857874D01*
X130247187Y-110767885D01*
X130196390Y-110719911D01*
X130179595Y-110652090D01*
X130202132Y-110585955D01*
X130247187Y-110546915D01*
X130423803Y-110456925D01*
X130423802Y-110456925D01*
X130423805Y-110456924D01*
X130583046Y-110341228D01*
X130722228Y-110202046D01*
X130837924Y-110042805D01*
X130927284Y-109867425D01*
X130988109Y-109680226D01*
X131004650Y-109575789D01*
X131018900Y-109485822D01*
X131018900Y-109288977D01*
X130988109Y-109094573D01*
X130927282Y-108907370D01*
X130898052Y-108850003D01*
X134944435Y-108850003D01*
X134964630Y-109029249D01*
X134964631Y-109029254D01*
X135024211Y-109199523D01*
X135080419Y-109288977D01*
X135120184Y-109352262D01*
X135247738Y-109479816D01*
X135269252Y-109493334D01*
X135355833Y-109547737D01*
X135400478Y-109575789D01*
X135570745Y-109635368D01*
X135570750Y-109635369D01*
X135749996Y-109655565D01*
X135750000Y-109655565D01*
X135750004Y-109655565D01*
X135929249Y-109635369D01*
X135929252Y-109635368D01*
X135929255Y-109635368D01*
X136099522Y-109575789D01*
X136252262Y-109479816D01*
X136379816Y-109352262D01*
X136475789Y-109199522D01*
X136535368Y-109029255D01*
X136536967Y-109015063D01*
X136555565Y-108850003D01*
X136555565Y-108849996D01*
X136535369Y-108670750D01*
X136535368Y-108670745D01*
X136526364Y-108645013D01*
X136475789Y-108500478D01*
X136379816Y-108347738D01*
X136252262Y-108220184D01*
X136217978Y-108198642D01*
X136099523Y-108124211D01*
X135929254Y-108064631D01*
X135929249Y-108064630D01*
X135750004Y-108044435D01*
X135749996Y-108044435D01*
X135570750Y-108064630D01*
X135570745Y-108064631D01*
X135400476Y-108124211D01*
X135247737Y-108220184D01*
X135120184Y-108347737D01*
X135024211Y-108500476D01*
X134964631Y-108670745D01*
X134964630Y-108670750D01*
X134944435Y-108849996D01*
X134944435Y-108850003D01*
X130898052Y-108850003D01*
X130837923Y-108731994D01*
X130825305Y-108714627D01*
X130722228Y-108572754D01*
X130583046Y-108433572D01*
X130423805Y-108317876D01*
X130413609Y-108312681D01*
X130248429Y-108228517D01*
X130061226Y-108167690D01*
X129866822Y-108136900D01*
X129866817Y-108136900D01*
X128169983Y-108136900D01*
X128169978Y-108136900D01*
X127975573Y-108167690D01*
X127788370Y-108228517D01*
X127612994Y-108317876D01*
X127548221Y-108364937D01*
X127453754Y-108433572D01*
X127453752Y-108433574D01*
X127453751Y-108433574D01*
X127314574Y-108572751D01*
X127314574Y-108572752D01*
X127314572Y-108572754D01*
X127264885Y-108641141D01*
X127198876Y-108731994D01*
X127109517Y-108907370D01*
X127048690Y-109094573D01*
X127017900Y-109288977D01*
X127017900Y-109485822D01*
X127048690Y-109680226D01*
X127109517Y-109867429D01*
X127164296Y-109974938D01*
X127198876Y-110042805D01*
X127314572Y-110202046D01*
X127453754Y-110341228D01*
X127612995Y-110456924D01*
X127730507Y-110516799D01*
X127789613Y-110546915D01*
X127840409Y-110594889D01*
X127857204Y-110662710D01*
X127834667Y-110728845D01*
X127789613Y-110767885D01*
X127612994Y-110857876D01*
X127548221Y-110904937D01*
X127453754Y-110973572D01*
X127453752Y-110973574D01*
X127453751Y-110973574D01*
X127314574Y-111112751D01*
X127314574Y-111112752D01*
X127314572Y-111112754D01*
X127264885Y-111181141D01*
X127198876Y-111271994D01*
X127109517Y-111447370D01*
X127048690Y-111634573D01*
X127017900Y-111828977D01*
X127017900Y-112025822D01*
X127048690Y-112220226D01*
X127109517Y-112407429D01*
X127197447Y-112580000D01*
X127198876Y-112582805D01*
X127314572Y-112742046D01*
X127453754Y-112881228D01*
X127612995Y-112996924D01*
X127730507Y-113056799D01*
X127789613Y-113086915D01*
X127840409Y-113134889D01*
X127857204Y-113202710D01*
X127834667Y-113268845D01*
X127789613Y-113307885D01*
X127612994Y-113397876D01*
X127548221Y-113444937D01*
X127453754Y-113513572D01*
X127453752Y-113513574D01*
X127453751Y-113513574D01*
X127314574Y-113652751D01*
X127314574Y-113652752D01*
X127314572Y-113652754D01*
X127264885Y-113721141D01*
X127198876Y-113811994D01*
X127109517Y-113987370D01*
X127048690Y-114174573D01*
X127017900Y-114368977D01*
X127017900Y-114565822D01*
X127048690Y-114760226D01*
X127109517Y-114947429D01*
X127197447Y-115120000D01*
X127198876Y-115122805D01*
X127314572Y-115282046D01*
X127453754Y-115421228D01*
X127612995Y-115536924D01*
X127730507Y-115596799D01*
X127789613Y-115626915D01*
X127840409Y-115674889D01*
X127857204Y-115742710D01*
X127834667Y-115808845D01*
X127789613Y-115847885D01*
X127612994Y-115937876D01*
X127548221Y-115984937D01*
X127453754Y-116053572D01*
X127453752Y-116053574D01*
X127453751Y-116053574D01*
X127314574Y-116192751D01*
X127314574Y-116192752D01*
X127314572Y-116192754D01*
X127264885Y-116261141D01*
X127198876Y-116351994D01*
X127109517Y-116527370D01*
X127048690Y-116714573D01*
X127017900Y-116908977D01*
X127017900Y-117105822D01*
X127048690Y-117300226D01*
X127109517Y-117487429D01*
X127197447Y-117660000D01*
X127198876Y-117662805D01*
X127314572Y-117822046D01*
X127453754Y-117961228D01*
X127612995Y-118076924D01*
X127730507Y-118136799D01*
X127789613Y-118166915D01*
X127840409Y-118214889D01*
X127857204Y-118282710D01*
X127834667Y-118348845D01*
X127789613Y-118387885D01*
X127612994Y-118477876D01*
X127548221Y-118524937D01*
X127453754Y-118593572D01*
X127453752Y-118593574D01*
X127453751Y-118593574D01*
X127314574Y-118732751D01*
X127314574Y-118732752D01*
X127314572Y-118732754D01*
X127264885Y-118801141D01*
X127198876Y-118891994D01*
X127109517Y-119067370D01*
X127048690Y-119254573D01*
X127017900Y-119448977D01*
X127017900Y-119645822D01*
X127048690Y-119840226D01*
X127109517Y-120027429D01*
X127197447Y-120200000D01*
X127198876Y-120202805D01*
X127314572Y-120362046D01*
X127453754Y-120501228D01*
X127612995Y-120616924D01*
X127730507Y-120676799D01*
X127789613Y-120706915D01*
X127840409Y-120754889D01*
X127857204Y-120822710D01*
X127834667Y-120888845D01*
X127789613Y-120927885D01*
X127612994Y-121017876D01*
X127548221Y-121064937D01*
X127453754Y-121133572D01*
X127453752Y-121133574D01*
X127453751Y-121133574D01*
X127314574Y-121272751D01*
X127314574Y-121272752D01*
X127314572Y-121272754D01*
X127264885Y-121341141D01*
X127198876Y-121431994D01*
X127109517Y-121607370D01*
X127048690Y-121794573D01*
X127017900Y-121988977D01*
X127017900Y-122185822D01*
X123971076Y-122185822D01*
X123944229Y-122103196D01*
X123866414Y-121950476D01*
X123840579Y-121899772D01*
X123706379Y-121715063D01*
X123544937Y-121553621D01*
X123457807Y-121490317D01*
X123415143Y-121434988D01*
X123409164Y-121365374D01*
X123441770Y-121303579D01*
X123457807Y-121289683D01*
X123544937Y-121226379D01*
X123706379Y-121064937D01*
X123840579Y-120880228D01*
X123944231Y-120676799D01*
X124014784Y-120459660D01*
X124030244Y-120362048D01*
X124050500Y-120234162D01*
X124050500Y-120005837D01*
X124014784Y-119780339D01*
X123944229Y-119563196D01*
X123886031Y-119448977D01*
X123840579Y-119359772D01*
X123706379Y-119175063D01*
X123544937Y-119013621D01*
X123457807Y-118950317D01*
X123415143Y-118894988D01*
X123409164Y-118825374D01*
X123441770Y-118763579D01*
X123457807Y-118749683D01*
X123544937Y-118686379D01*
X123706379Y-118524937D01*
X123840579Y-118340228D01*
X123944231Y-118136799D01*
X124014784Y-117919660D01*
X124030244Y-117822048D01*
X124050500Y-117694162D01*
X124050500Y-117465837D01*
X124014784Y-117240339D01*
X123944229Y-117023196D01*
X123886031Y-116908977D01*
X123840579Y-116819772D01*
X123706379Y-116635063D01*
X123544937Y-116473621D01*
X123457807Y-116410317D01*
X123415143Y-116354988D01*
X123409164Y-116285374D01*
X123441770Y-116223579D01*
X123457807Y-116209683D01*
X123544937Y-116146379D01*
X123706379Y-115984937D01*
X123840579Y-115800228D01*
X123944231Y-115596799D01*
X124014784Y-115379660D01*
X124030244Y-115282048D01*
X124050500Y-115154162D01*
X124050500Y-114925837D01*
X124014784Y-114700339D01*
X123944229Y-114483196D01*
X123886031Y-114368977D01*
X123840579Y-114279772D01*
X123706379Y-114095063D01*
X123544937Y-113933621D01*
X123457807Y-113870317D01*
X123415143Y-113814988D01*
X123409164Y-113745374D01*
X123441770Y-113683579D01*
X123457807Y-113669683D01*
X123544937Y-113606379D01*
X123706379Y-113444937D01*
X123840579Y-113260228D01*
X123944231Y-113056799D01*
X124014784Y-112839660D01*
X124024351Y-112779255D01*
X124050500Y-112614162D01*
X124050500Y-112385837D01*
X124014784Y-112160339D01*
X123944229Y-111943196D01*
X123886031Y-111828977D01*
X123840579Y-111739772D01*
X123706379Y-111555063D01*
X123544937Y-111393621D01*
X123457807Y-111330317D01*
X123415143Y-111274988D01*
X123409164Y-111205374D01*
X123441770Y-111143579D01*
X123457807Y-111129683D01*
X123544937Y-111066379D01*
X123706379Y-110904937D01*
X123840579Y-110720228D01*
X123944231Y-110516799D01*
X124014784Y-110299660D01*
X124030244Y-110202048D01*
X124050500Y-110074162D01*
X124050500Y-109845837D01*
X124014784Y-109620339D01*
X123959437Y-109450000D01*
X123944231Y-109403201D01*
X123944229Y-109403198D01*
X123944229Y-109403196D01*
X123840578Y-109199771D01*
X123840397Y-109199522D01*
X123706379Y-109015063D01*
X123544937Y-108853621D01*
X123457807Y-108790317D01*
X123415143Y-108734988D01*
X123409164Y-108665374D01*
X123441770Y-108603579D01*
X123457807Y-108589683D01*
X123544937Y-108526379D01*
X123706379Y-108364937D01*
X123840579Y-108180228D01*
X123944231Y-107976799D01*
X124014784Y-107759660D01*
X124050500Y-107534162D01*
X124050500Y-107305837D01*
X124014784Y-107080339D01*
X123944229Y-106863196D01*
X123840578Y-106659771D01*
X123706379Y-106475063D01*
X123544937Y-106313621D01*
X123457807Y-106250317D01*
X123415143Y-106194988D01*
X123409164Y-106125374D01*
X123441770Y-106063579D01*
X123457807Y-106049683D01*
X123544937Y-105986379D01*
X123706379Y-105824937D01*
X123840579Y-105640228D01*
X123944231Y-105436799D01*
X124014784Y-105219660D01*
X124027771Y-105137664D01*
X124050500Y-104994162D01*
X124050500Y-104765837D01*
X124014784Y-104540339D01*
X123944229Y-104323196D01*
X123840578Y-104119771D01*
X123789539Y-104049523D01*
X123706379Y-103935063D01*
X123706377Y-103935061D01*
X123705581Y-103933965D01*
X123682101Y-103868159D01*
X123697926Y-103800105D01*
X123748032Y-103751410D01*
X123762562Y-103744898D01*
X123792331Y-103733796D01*
X123907546Y-103647546D01*
X123993796Y-103532331D01*
X124044091Y-103397483D01*
X124050500Y-103337873D01*
X124050499Y-101800003D01*
X132244435Y-101800003D01*
X132264630Y-101979249D01*
X132264631Y-101979254D01*
X132324211Y-102149523D01*
X132384543Y-102245540D01*
X132420184Y-102302262D01*
X132547738Y-102429816D01*
X132700478Y-102525789D01*
X132822688Y-102568552D01*
X132870745Y-102585368D01*
X132870750Y-102585369D01*
X133049996Y-102605565D01*
X133050000Y-102605565D01*
X133050004Y-102605565D01*
X133229249Y-102585369D01*
X133229252Y-102585368D01*
X133229255Y-102585368D01*
X133399522Y-102525789D01*
X133552262Y-102429816D01*
X133679816Y-102302262D01*
X133775789Y-102149522D01*
X133792506Y-102101746D01*
X133833227Y-102044970D01*
X133898179Y-102019222D01*
X133966741Y-102032677D01*
X134017144Y-102081064D01*
X134033387Y-102149019D01*
X134032769Y-102156579D01*
X134031024Y-102172071D01*
X134031024Y-102172076D01*
X134051219Y-102351322D01*
X134051220Y-102351327D01*
X134110800Y-102521596D01*
X134140305Y-102568552D01*
X134206773Y-102674335D01*
X134334327Y-102801889D01*
X134408276Y-102848354D01*
X134485381Y-102896803D01*
X134487067Y-102897862D01*
X134570499Y-102927056D01*
X134657334Y-102957441D01*
X134657339Y-102957442D01*
X134836585Y-102977638D01*
X134836589Y-102977638D01*
X134836593Y-102977638D01*
X135015838Y-102957442D01*
X135015841Y-102957441D01*
X135015844Y-102957441D01*
X135186111Y-102897862D01*
X135338851Y-102801889D01*
X135392935Y-102747805D01*
X137344435Y-102747805D01*
X137364630Y-102927051D01*
X137364631Y-102927056D01*
X137424211Y-103097325D01*
X137487305Y-103197737D01*
X137520184Y-103250064D01*
X137647738Y-103377618D01*
X137679353Y-103397483D01*
X137757165Y-103446376D01*
X137800478Y-103473591D01*
X137968339Y-103532328D01*
X137970745Y-103533170D01*
X137970750Y-103533171D01*
X138149996Y-103553367D01*
X138150000Y-103553367D01*
X138150004Y-103553367D01*
X138329249Y-103533171D01*
X138329252Y-103533170D01*
X138329255Y-103533170D01*
X138499522Y-103473591D01*
X138652262Y-103377618D01*
X138779816Y-103250064D01*
X138875789Y-103097324D01*
X138935368Y-102927057D01*
X138936768Y-102914630D01*
X138955565Y-102747805D01*
X138955565Y-102747798D01*
X138935369Y-102568552D01*
X138935368Y-102568547D01*
X138886824Y-102429816D01*
X138875789Y-102398280D01*
X138846286Y-102351327D01*
X138779815Y-102245539D01*
X138652262Y-102117986D01*
X138499523Y-102022013D01*
X138329254Y-101962433D01*
X138329249Y-101962432D01*
X138150004Y-101942237D01*
X138149996Y-101942237D01*
X137970750Y-101962432D01*
X137970745Y-101962433D01*
X137800476Y-102022013D01*
X137647737Y-102117986D01*
X137520184Y-102245539D01*
X137424211Y-102398278D01*
X137364631Y-102568547D01*
X137364630Y-102568552D01*
X137344435Y-102747798D01*
X137344435Y-102747805D01*
X135392935Y-102747805D01*
X135466405Y-102674335D01*
X135562378Y-102521595D01*
X135621957Y-102351328D01*
X135621958Y-102351322D01*
X135642154Y-102172076D01*
X135642154Y-102172069D01*
X135621958Y-101992823D01*
X135621957Y-101992818D01*
X135586331Y-101891006D01*
X135562378Y-101822551D01*
X135557939Y-101815487D01*
X135466404Y-101669810D01*
X135338851Y-101542257D01*
X135186112Y-101446284D01*
X135015843Y-101386704D01*
X135015838Y-101386703D01*
X134836593Y-101366508D01*
X134836585Y-101366508D01*
X134657339Y-101386703D01*
X134657334Y-101386704D01*
X134487065Y-101446284D01*
X134334326Y-101542257D01*
X134206773Y-101669810D01*
X134110797Y-101822553D01*
X134094081Y-101870327D01*
X134053359Y-101927103D01*
X133988406Y-101952850D01*
X133919845Y-101939393D01*
X133869442Y-101891006D01*
X133853201Y-101823050D01*
X133853820Y-101815487D01*
X133855565Y-101800001D01*
X133855565Y-101799996D01*
X133835369Y-101620750D01*
X133835368Y-101620745D01*
X133775788Y-101450475D01*
X133723027Y-101366508D01*
X133706981Y-101340971D01*
X133687981Y-101273736D01*
X133706982Y-101209027D01*
X133775788Y-101099524D01*
X133775824Y-101099421D01*
X133835368Y-100929255D01*
X133835823Y-100925216D01*
X133855565Y-100750003D01*
X133855565Y-100749996D01*
X133835369Y-100570750D01*
X133835368Y-100570745D01*
X133802088Y-100475637D01*
X133775789Y-100400478D01*
X133679816Y-100247738D01*
X133552262Y-100120184D01*
X133519379Y-100099522D01*
X133399523Y-100024211D01*
X133229254Y-99964631D01*
X133229249Y-99964630D01*
X133050004Y-99944435D01*
X133049996Y-99944435D01*
X132870750Y-99964630D01*
X132870745Y-99964631D01*
X132700476Y-100024211D01*
X132547737Y-100120184D01*
X132420184Y-100247737D01*
X132324211Y-100400476D01*
X132264631Y-100570745D01*
X132264630Y-100570750D01*
X132244435Y-100749996D01*
X132244435Y-100750003D01*
X132264630Y-100929249D01*
X132264631Y-100929254D01*
X132324211Y-101099523D01*
X132393018Y-101209028D01*
X132412018Y-101276265D01*
X132393018Y-101340972D01*
X132324211Y-101450476D01*
X132264631Y-101620745D01*
X132264630Y-101620750D01*
X132244435Y-101799996D01*
X132244435Y-101800003D01*
X124050499Y-101800003D01*
X124050499Y-101342128D01*
X124044091Y-101282517D01*
X124041759Y-101276265D01*
X123993797Y-101147671D01*
X123993793Y-101147664D01*
X123907547Y-101032455D01*
X123907544Y-101032452D01*
X123792335Y-100946206D01*
X123792328Y-100946202D01*
X123657482Y-100895908D01*
X123657483Y-100895908D01*
X123597883Y-100889501D01*
X123597881Y-100889500D01*
X123597873Y-100889500D01*
X123597864Y-100889500D01*
X121402129Y-100889500D01*
X121402123Y-100889501D01*
X121342516Y-100895908D01*
X121207671Y-100946202D01*
X121207664Y-100946206D01*
X121092455Y-101032452D01*
X121092452Y-101032455D01*
X121006206Y-101147664D01*
X121006202Y-101147671D01*
X120955908Y-101282517D01*
X120949624Y-101340972D01*
X120949501Y-101342123D01*
X120949500Y-101342135D01*
X120949500Y-103337870D01*
X120949501Y-103337876D01*
X120955908Y-103397483D01*
X121006202Y-103532328D01*
X121006206Y-103532335D01*
X121092452Y-103647544D01*
X121092455Y-103647547D01*
X121207664Y-103733793D01*
X121207669Y-103733796D01*
X121237432Y-103744896D01*
X121293366Y-103786767D01*
X121317784Y-103852230D01*
X121302933Y-103920504D01*
X121294418Y-103933964D01*
X121159423Y-104119768D01*
X121055770Y-104323196D01*
X120985215Y-104540339D01*
X120949500Y-104765837D01*
X120949500Y-104994162D01*
X120985215Y-105219660D01*
X121055770Y-105436803D01*
X121159421Y-105640228D01*
X121293621Y-105824937D01*
X121455063Y-105986379D01*
X121455069Y-105986383D01*
X121542191Y-106049683D01*
X121584857Y-106105013D01*
X121590835Y-106174627D01*
X121558228Y-106236421D01*
X121542191Y-106250317D01*
X121455069Y-106313616D01*
X121455060Y-106313623D01*
X121293622Y-106475061D01*
X121159421Y-106659771D01*
X121055770Y-106863196D01*
X120985215Y-107080339D01*
X120949500Y-107305837D01*
X120949500Y-107534162D01*
X120985215Y-107759660D01*
X121055770Y-107976803D01*
X121119695Y-108102262D01*
X121159421Y-108180228D01*
X121293621Y-108364937D01*
X121455063Y-108526379D01*
X121455069Y-108526383D01*
X121542191Y-108589683D01*
X121584857Y-108645013D01*
X121590835Y-108714627D01*
X121558228Y-108776421D01*
X121542191Y-108790317D01*
X121455069Y-108853616D01*
X121455060Y-108853623D01*
X121293622Y-109015061D01*
X121159421Y-109199771D01*
X121055770Y-109403196D01*
X120985215Y-109620339D01*
X120949500Y-109845837D01*
X120949500Y-110074162D01*
X120985215Y-110299660D01*
X121055770Y-110516803D01*
X121138830Y-110679816D01*
X121159421Y-110720228D01*
X121293621Y-110904937D01*
X121455063Y-111066379D01*
X121455069Y-111066383D01*
X121542191Y-111129683D01*
X121584857Y-111185013D01*
X121590835Y-111254627D01*
X121558228Y-111316421D01*
X121542191Y-111330317D01*
X121455069Y-111393616D01*
X121455060Y-111393623D01*
X121293622Y-111555061D01*
X121159421Y-111739771D01*
X121055770Y-111943196D01*
X120985215Y-112160339D01*
X120949500Y-112385837D01*
X120949500Y-112614162D01*
X120985215Y-112839660D01*
X121055770Y-113056803D01*
X121124703Y-113192090D01*
X121159421Y-113260228D01*
X121293621Y-113444937D01*
X121455063Y-113606379D01*
X121455069Y-113606383D01*
X121542191Y-113669683D01*
X121584857Y-113725013D01*
X121590835Y-113794627D01*
X121558228Y-113856421D01*
X121542191Y-113870317D01*
X121455069Y-113933616D01*
X121455060Y-113933623D01*
X121293622Y-114095061D01*
X121159421Y-114279771D01*
X121055770Y-114483196D01*
X120985215Y-114700339D01*
X120949500Y-114925837D01*
X120949500Y-115154162D01*
X120985215Y-115379660D01*
X121055770Y-115596803D01*
X121124703Y-115732090D01*
X121159421Y-115800228D01*
X121293621Y-115984937D01*
X121455063Y-116146379D01*
X121455069Y-116146383D01*
X121542191Y-116209683D01*
X121584857Y-116265013D01*
X121590835Y-116334627D01*
X121558228Y-116396421D01*
X121542191Y-116410317D01*
X121455069Y-116473616D01*
X121455060Y-116473623D01*
X121293622Y-116635061D01*
X121159421Y-116819771D01*
X121055770Y-117023196D01*
X120985215Y-117240339D01*
X120949500Y-117465837D01*
X120949500Y-117694162D01*
X120985215Y-117919660D01*
X121055770Y-118136803D01*
X121124703Y-118272090D01*
X121159421Y-118340228D01*
X121293621Y-118524937D01*
X121455063Y-118686379D01*
X121455069Y-118686383D01*
X121542191Y-118749683D01*
X121584857Y-118805013D01*
X121590835Y-118874627D01*
X121558228Y-118936421D01*
X121542191Y-118950317D01*
X121455069Y-119013616D01*
X121455060Y-119013623D01*
X121293622Y-119175061D01*
X121159421Y-119359771D01*
X121055770Y-119563196D01*
X120985215Y-119780339D01*
X120949500Y-120005837D01*
X120949500Y-120234162D01*
X120985215Y-120459660D01*
X121055770Y-120676803D01*
X121124703Y-120812090D01*
X121159421Y-120880228D01*
X121293621Y-121064937D01*
X121455063Y-121226379D01*
X121455069Y-121226383D01*
X121542191Y-121289683D01*
X121584857Y-121345013D01*
X121590835Y-121414627D01*
X121558228Y-121476421D01*
X121542191Y-121490317D01*
X121455069Y-121553616D01*
X121455060Y-121553623D01*
X121293622Y-121715061D01*
X121159421Y-121899771D01*
X121055770Y-122103196D01*
X120985215Y-122320339D01*
X120949500Y-122545837D01*
X120949500Y-122774162D01*
X103730500Y-122774162D01*
X103730500Y-122545837D01*
X103694784Y-122320339D01*
X103624229Y-122103196D01*
X103546414Y-121950476D01*
X103520579Y-121899772D01*
X103386379Y-121715063D01*
X103224937Y-121553621D01*
X103137807Y-121490317D01*
X103095143Y-121434988D01*
X103089164Y-121365374D01*
X103121770Y-121303579D01*
X103137807Y-121289683D01*
X103224937Y-121226379D01*
X103386379Y-121064937D01*
X103520579Y-120880228D01*
X103624231Y-120676799D01*
X103694784Y-120459660D01*
X103710244Y-120362048D01*
X103730500Y-120234162D01*
X103730500Y-120005837D01*
X103694784Y-119780339D01*
X103624229Y-119563196D01*
X103566031Y-119448977D01*
X103520579Y-119359772D01*
X103386379Y-119175063D01*
X103224937Y-119013621D01*
X103137807Y-118950317D01*
X103095143Y-118894988D01*
X103089164Y-118825374D01*
X103121770Y-118763579D01*
X103137807Y-118749683D01*
X103224937Y-118686379D01*
X103386379Y-118524937D01*
X103520579Y-118340228D01*
X103624231Y-118136799D01*
X103694784Y-117919660D01*
X103710244Y-117822048D01*
X103730500Y-117694162D01*
X103730500Y-117465837D01*
X103694784Y-117240339D01*
X103624229Y-117023196D01*
X103566031Y-116908977D01*
X103520579Y-116819772D01*
X103386379Y-116635063D01*
X103224937Y-116473621D01*
X103137807Y-116410317D01*
X103095143Y-116354988D01*
X103089164Y-116285374D01*
X103121770Y-116223579D01*
X103137807Y-116209683D01*
X103224937Y-116146379D01*
X103386379Y-115984937D01*
X103520579Y-115800228D01*
X103624231Y-115596799D01*
X103694784Y-115379660D01*
X103710244Y-115282048D01*
X103730500Y-115154162D01*
X103730500Y-114925837D01*
X103694784Y-114700339D01*
X103624229Y-114483196D01*
X103566031Y-114368977D01*
X103520579Y-114279772D01*
X103386379Y-114095063D01*
X103224937Y-113933621D01*
X103137807Y-113870317D01*
X103095143Y-113814988D01*
X103089164Y-113745374D01*
X103121770Y-113683579D01*
X103137807Y-113669683D01*
X103224937Y-113606379D01*
X103386379Y-113444937D01*
X103520579Y-113260228D01*
X103624231Y-113056799D01*
X103694784Y-112839660D01*
X103704351Y-112779255D01*
X103730500Y-112614162D01*
X103730500Y-112385837D01*
X103694784Y-112160339D01*
X103624229Y-111943196D01*
X103566031Y-111828977D01*
X103520579Y-111739772D01*
X103386379Y-111555063D01*
X103224937Y-111393621D01*
X103137807Y-111330317D01*
X103095143Y-111274988D01*
X103089164Y-111205374D01*
X103121770Y-111143579D01*
X103137807Y-111129683D01*
X103224937Y-111066379D01*
X103386379Y-110904937D01*
X103520579Y-110720228D01*
X103624231Y-110516799D01*
X103694784Y-110299660D01*
X103710244Y-110202048D01*
X103730500Y-110074162D01*
X103730500Y-109845837D01*
X103694784Y-109620339D01*
X103639437Y-109450000D01*
X103624231Y-109403201D01*
X103624229Y-109403198D01*
X103624229Y-109403196D01*
X103520578Y-109199771D01*
X103520397Y-109199522D01*
X103386379Y-109015063D01*
X103224937Y-108853621D01*
X103137807Y-108790317D01*
X103095143Y-108734988D01*
X103089164Y-108665374D01*
X103121770Y-108603579D01*
X103137807Y-108589683D01*
X103224937Y-108526379D01*
X103386379Y-108364937D01*
X103520579Y-108180228D01*
X103624231Y-107976799D01*
X103694784Y-107759660D01*
X103730500Y-107534162D01*
X103730500Y-107305837D01*
X103694784Y-107080339D01*
X103624229Y-106863196D01*
X103520578Y-106659771D01*
X103386379Y-106475063D01*
X103224937Y-106313621D01*
X103137807Y-106250317D01*
X103095143Y-106194988D01*
X103089164Y-106125374D01*
X103121770Y-106063579D01*
X103137807Y-106049683D01*
X103224937Y-105986379D01*
X103386379Y-105824937D01*
X103520579Y-105640228D01*
X103624231Y-105436799D01*
X103694784Y-105219660D01*
X103707771Y-105137664D01*
X103730500Y-104994162D01*
X103730500Y-104765837D01*
X103694784Y-104540339D01*
X103624229Y-104323196D01*
X103520578Y-104119771D01*
X103520576Y-104119768D01*
X103386379Y-103935063D01*
X103224937Y-103773621D01*
X103137807Y-103710317D01*
X103095143Y-103654988D01*
X103089164Y-103585374D01*
X103121770Y-103523579D01*
X103137807Y-103509683D01*
X103224937Y-103446379D01*
X103386379Y-103284937D01*
X103520579Y-103100228D01*
X103624231Y-102896799D01*
X103694784Y-102679660D01*
X103695627Y-102674335D01*
X103730500Y-102454162D01*
X103730500Y-102225837D01*
X103694784Y-102000339D01*
X103637017Y-101822553D01*
X103624231Y-101783201D01*
X103624229Y-101783198D01*
X103624229Y-101783196D01*
X103541458Y-101620750D01*
X103520579Y-101579772D01*
X103386379Y-101395063D01*
X103224937Y-101233621D01*
X103040228Y-101099421D01*
X102836803Y-100995770D01*
X102619660Y-100925215D01*
X102394162Y-100889500D01*
X102394157Y-100889500D01*
X101965843Y-100889500D01*
X101965838Y-100889500D01*
X101740339Y-100925215D01*
X101523196Y-100995770D01*
X101319771Y-101099421D01*
X101135061Y-101233622D01*
X100973622Y-101395061D01*
X100839421Y-101579771D01*
X100735770Y-101783196D01*
X100665215Y-102000339D01*
X100629500Y-102225837D01*
X100629500Y-102454162D01*
X100665215Y-102679660D01*
X100735770Y-102896803D01*
X100775212Y-102974211D01*
X100839421Y-103100228D01*
X100973621Y-103284937D01*
X101135063Y-103446379D01*
X101135069Y-103446383D01*
X101222191Y-103509683D01*
X101264857Y-103565013D01*
X101270835Y-103634627D01*
X101238228Y-103696421D01*
X101222191Y-103710317D01*
X101135069Y-103773616D01*
X101135060Y-103773623D01*
X100973622Y-103935061D01*
X100839421Y-104119771D01*
X100735770Y-104323196D01*
X100665215Y-104540339D01*
X100629500Y-104765837D01*
X100629500Y-104994162D01*
X100665215Y-105219660D01*
X100735770Y-105436803D01*
X100839421Y-105640228D01*
X100973621Y-105824937D01*
X101135063Y-105986379D01*
X101135069Y-105986383D01*
X101222191Y-106049683D01*
X101264857Y-106105013D01*
X101270835Y-106174627D01*
X101238228Y-106236421D01*
X101222191Y-106250317D01*
X101135069Y-106313616D01*
X101135060Y-106313623D01*
X100973622Y-106475061D01*
X100839421Y-106659771D01*
X100735770Y-106863196D01*
X100665215Y-107080339D01*
X100629500Y-107305837D01*
X100629500Y-107534162D01*
X100665215Y-107759660D01*
X100735770Y-107976803D01*
X100799695Y-108102262D01*
X100839421Y-108180228D01*
X100973621Y-108364937D01*
X101135063Y-108526379D01*
X101135069Y-108526383D01*
X101222191Y-108589683D01*
X101264857Y-108645013D01*
X101270835Y-108714627D01*
X101238228Y-108776421D01*
X101222191Y-108790317D01*
X101135069Y-108853616D01*
X101135060Y-108853623D01*
X100973622Y-109015061D01*
X100839421Y-109199771D01*
X100735770Y-109403196D01*
X100665215Y-109620339D01*
X100629500Y-109845837D01*
X100629500Y-110074162D01*
X100665215Y-110299660D01*
X100735770Y-110516803D01*
X100818830Y-110679816D01*
X100839421Y-110720228D01*
X100973621Y-110904937D01*
X101135063Y-111066379D01*
X101135069Y-111066383D01*
X101222191Y-111129683D01*
X101264857Y-111185013D01*
X101270835Y-111254627D01*
X101238228Y-111316421D01*
X101222191Y-111330317D01*
X101135069Y-111393616D01*
X101135060Y-111393623D01*
X100973622Y-111555061D01*
X100839421Y-111739771D01*
X100735770Y-111943196D01*
X100665215Y-112160339D01*
X100629500Y-112385837D01*
X100629500Y-112614162D01*
X100665215Y-112839660D01*
X100735770Y-113056803D01*
X100804703Y-113192090D01*
X100839421Y-113260228D01*
X100973621Y-113444937D01*
X101135063Y-113606379D01*
X101135069Y-113606383D01*
X101222191Y-113669683D01*
X101264857Y-113725013D01*
X101270835Y-113794627D01*
X101238228Y-113856421D01*
X101222191Y-113870317D01*
X101135069Y-113933616D01*
X101135060Y-113933623D01*
X100973622Y-114095061D01*
X100839421Y-114279771D01*
X100735770Y-114483196D01*
X100665215Y-114700339D01*
X100629500Y-114925837D01*
X100629500Y-115154162D01*
X100665215Y-115379660D01*
X100735770Y-115596803D01*
X100804703Y-115732090D01*
X100839421Y-115800228D01*
X100973621Y-115984937D01*
X101135063Y-116146379D01*
X101135069Y-116146383D01*
X101222191Y-116209683D01*
X101264857Y-116265013D01*
X101270835Y-116334627D01*
X101238228Y-116396421D01*
X101222191Y-116410317D01*
X101135069Y-116473616D01*
X101135060Y-116473623D01*
X100973622Y-116635061D01*
X100839421Y-116819771D01*
X100735770Y-117023196D01*
X100665215Y-117240339D01*
X100629500Y-117465837D01*
X100629500Y-117694162D01*
X100665215Y-117919660D01*
X100735770Y-118136803D01*
X100804703Y-118272090D01*
X100839421Y-118340228D01*
X100973621Y-118524937D01*
X101135063Y-118686379D01*
X101135069Y-118686383D01*
X101222191Y-118749683D01*
X101264857Y-118805013D01*
X101270835Y-118874627D01*
X101238228Y-118936421D01*
X101222191Y-118950317D01*
X101135069Y-119013616D01*
X101135060Y-119013623D01*
X100973622Y-119175061D01*
X100839421Y-119359771D01*
X100735770Y-119563196D01*
X100665215Y-119780339D01*
X100629500Y-120005837D01*
X100629500Y-120234162D01*
X100665215Y-120459660D01*
X100735770Y-120676803D01*
X100804703Y-120812090D01*
X100839421Y-120880228D01*
X100973621Y-121064937D01*
X101135063Y-121226379D01*
X101135069Y-121226383D01*
X101222191Y-121289683D01*
X101264857Y-121345013D01*
X101270835Y-121414627D01*
X101238228Y-121476421D01*
X101222191Y-121490317D01*
X101135069Y-121553616D01*
X101135060Y-121553623D01*
X100973622Y-121715061D01*
X100839421Y-121899771D01*
X100735770Y-122103196D01*
X100665215Y-122320339D01*
X100629500Y-122545837D01*
X100629500Y-122774162D01*
X96940888Y-122774162D01*
X96935023Y-122717500D01*
X96966546Y-122655145D01*
X96985842Y-122638425D01*
X97010223Y-122621353D01*
X97171401Y-122508495D01*
X97338495Y-122341401D01*
X97474035Y-122147830D01*
X97573903Y-121933663D01*
X97635063Y-121705408D01*
X97655659Y-121470000D01*
X97635063Y-121234592D01*
X97573903Y-121006337D01*
X97474035Y-120792171D01*
X97456487Y-120767109D01*
X97338494Y-120598597D01*
X97171402Y-120431506D01*
X97171396Y-120431501D01*
X96985842Y-120301575D01*
X96942217Y-120246998D01*
X96935023Y-120177500D01*
X96966546Y-120115145D01*
X96985842Y-120098425D01*
X97008026Y-120082891D01*
X97171401Y-119968495D01*
X97338495Y-119801401D01*
X97474035Y-119607830D01*
X97573903Y-119393663D01*
X97635063Y-119165408D01*
X97655659Y-118930000D01*
X97635063Y-118694592D01*
X97573903Y-118466337D01*
X97474035Y-118252171D01*
X97456487Y-118227109D01*
X97338494Y-118058597D01*
X97171402Y-117891506D01*
X97171396Y-117891501D01*
X96985842Y-117761575D01*
X96942217Y-117706998D01*
X96935023Y-117637500D01*
X96966546Y-117575145D01*
X96985842Y-117558425D01*
X97008026Y-117542891D01*
X97171401Y-117428495D01*
X97338495Y-117261401D01*
X97474035Y-117067830D01*
X97573903Y-116853663D01*
X97635063Y-116625408D01*
X97655659Y-116390000D01*
X97635063Y-116154592D01*
X97573903Y-115926337D01*
X97474035Y-115712171D01*
X97456487Y-115687109D01*
X97338494Y-115518597D01*
X97171402Y-115351506D01*
X97171396Y-115351501D01*
X96985842Y-115221575D01*
X96942217Y-115166998D01*
X96935023Y-115097500D01*
X96966546Y-115035145D01*
X96985842Y-115018425D01*
X97008026Y-115002891D01*
X97171401Y-114888495D01*
X97338495Y-114721401D01*
X97474035Y-114527830D01*
X97573903Y-114313663D01*
X97635063Y-114085408D01*
X97655659Y-113850000D01*
X97635063Y-113614592D01*
X97573903Y-113386337D01*
X97474035Y-113172171D01*
X97456487Y-113147109D01*
X97338494Y-112978597D01*
X97171402Y-112811506D01*
X97171396Y-112811501D01*
X96985842Y-112681575D01*
X96942217Y-112626998D01*
X96935023Y-112557500D01*
X96966546Y-112495145D01*
X96985842Y-112478425D01*
X97068217Y-112420745D01*
X97171401Y-112348495D01*
X97338495Y-112181401D01*
X97474035Y-111987830D01*
X97573903Y-111773663D01*
X97635063Y-111545408D01*
X97655659Y-111310000D01*
X97635063Y-111074592D01*
X97573903Y-110846337D01*
X97474035Y-110632171D01*
X97456487Y-110607109D01*
X97338494Y-110438597D01*
X97171402Y-110271506D01*
X97171395Y-110271501D01*
X96977834Y-110135967D01*
X96977830Y-110135965D01*
X96845293Y-110074162D01*
X96763663Y-110036097D01*
X96763659Y-110036096D01*
X96763655Y-110036094D01*
X96535413Y-109974938D01*
X96535403Y-109974936D01*
X96300001Y-109954341D01*
X96299999Y-109954341D01*
X96064596Y-109974936D01*
X96064586Y-109974938D01*
X95836344Y-110036094D01*
X95836335Y-110036098D01*
X95622171Y-110135964D01*
X95622169Y-110135965D01*
X95428597Y-110271505D01*
X95261505Y-110438597D01*
X95125965Y-110632169D01*
X95125964Y-110632171D01*
X95026098Y-110846335D01*
X95026094Y-110846344D01*
X94964938Y-111074586D01*
X94964936Y-111074596D01*
X94944341Y-111309999D01*
X94944341Y-111310000D01*
X94964936Y-111545403D01*
X94964938Y-111545413D01*
X95026094Y-111773655D01*
X95026096Y-111773659D01*
X95026097Y-111773663D01*
X95091950Y-111914884D01*
X95125965Y-111987830D01*
X95125967Y-111987834D01*
X95261501Y-112181395D01*
X95261506Y-112181402D01*
X95428597Y-112348493D01*
X95428603Y-112348498D01*
X95614158Y-112478425D01*
X95657783Y-112533002D01*
X95664977Y-112602500D01*
X95633454Y-112664855D01*
X95614158Y-112681575D01*
X95428597Y-112811505D01*
X95261505Y-112978597D01*
X95125965Y-113172169D01*
X95125964Y-113172171D01*
X95026098Y-113386335D01*
X95026094Y-113386344D01*
X94964938Y-113614586D01*
X94964936Y-113614596D01*
X94944341Y-113849999D01*
X94944341Y-113850000D01*
X94964936Y-114085403D01*
X94964938Y-114085413D01*
X95026094Y-114313655D01*
X95026096Y-114313659D01*
X95026097Y-114313663D01*
X95105152Y-114483196D01*
X95125965Y-114527830D01*
X95125967Y-114527834D01*
X95261501Y-114721395D01*
X95261506Y-114721402D01*
X95428597Y-114888493D01*
X95428603Y-114888498D01*
X95614158Y-115018425D01*
X95657783Y-115073002D01*
X95664977Y-115142500D01*
X95633454Y-115204855D01*
X95614158Y-115221575D01*
X95428597Y-115351505D01*
X95261505Y-115518597D01*
X95125965Y-115712169D01*
X95125964Y-115712171D01*
X95026098Y-115926335D01*
X95026094Y-115926344D01*
X94964938Y-116154586D01*
X94964936Y-116154596D01*
X94944341Y-116389999D01*
X94944341Y-116390000D01*
X94964936Y-116625403D01*
X94964938Y-116625413D01*
X95026094Y-116853655D01*
X95026096Y-116853659D01*
X95026097Y-116853663D01*
X95105152Y-117023196D01*
X95125965Y-117067830D01*
X95125967Y-117067834D01*
X95261501Y-117261395D01*
X95261506Y-117261402D01*
X95428597Y-117428493D01*
X95428603Y-117428498D01*
X95614158Y-117558425D01*
X95657783Y-117613002D01*
X95664977Y-117682500D01*
X95633454Y-117744855D01*
X95614158Y-117761575D01*
X95428597Y-117891505D01*
X95261505Y-118058597D01*
X95125965Y-118252169D01*
X95125964Y-118252171D01*
X95026098Y-118466335D01*
X95026094Y-118466344D01*
X94964938Y-118694586D01*
X94964936Y-118694596D01*
X94944341Y-118929999D01*
X94944341Y-118930000D01*
X94964936Y-119165403D01*
X94964938Y-119165413D01*
X95026094Y-119393655D01*
X95026096Y-119393659D01*
X95026097Y-119393663D01*
X95105152Y-119563196D01*
X95125965Y-119607830D01*
X95125967Y-119607834D01*
X95261501Y-119801395D01*
X95261506Y-119801402D01*
X95428597Y-119968493D01*
X95428603Y-119968498D01*
X95614158Y-120098425D01*
X95657783Y-120153002D01*
X95664977Y-120222500D01*
X95633454Y-120284855D01*
X95614158Y-120301575D01*
X95428597Y-120431505D01*
X95261505Y-120598597D01*
X95125965Y-120792169D01*
X95125964Y-120792171D01*
X95026098Y-121006335D01*
X95026094Y-121006344D01*
X94964938Y-121234586D01*
X94964936Y-121234596D01*
X94944341Y-121469999D01*
X94944341Y-121470000D01*
X94964936Y-121705403D01*
X94964938Y-121705413D01*
X95026094Y-121933655D01*
X95026096Y-121933659D01*
X95026097Y-121933663D01*
X95105152Y-122103196D01*
X95125965Y-122147830D01*
X95125967Y-122147834D01*
X95261501Y-122341395D01*
X95261506Y-122341402D01*
X95428597Y-122508493D01*
X95428603Y-122508498D01*
X95614158Y-122638425D01*
X95657783Y-122693002D01*
X95664977Y-122762500D01*
X95633454Y-122824855D01*
X95614158Y-122841575D01*
X95428597Y-122971505D01*
X95261505Y-123138597D01*
X95125965Y-123332169D01*
X95125964Y-123332171D01*
X95026098Y-123546335D01*
X95026094Y-123546344D01*
X94964938Y-123774586D01*
X94964936Y-123774596D01*
X94944341Y-124009999D01*
X94944341Y-124010000D01*
X90015545Y-124010000D01*
X90013205Y-122744349D01*
X90032766Y-122677276D01*
X90085485Y-122631424D01*
X90154625Y-122621353D01*
X90218234Y-122650260D01*
X90242198Y-122678150D01*
X90320182Y-122802260D01*
X90320184Y-122802262D01*
X90447738Y-122929816D01*
X90600478Y-123025789D01*
X90770745Y-123085368D01*
X90770750Y-123085369D01*
X90949996Y-123105565D01*
X90950000Y-123105565D01*
X90950004Y-123105565D01*
X91129249Y-123085369D01*
X91129252Y-123085368D01*
X91129255Y-123085368D01*
X91299522Y-123025789D01*
X91452262Y-122929816D01*
X91579816Y-122802262D01*
X91675789Y-122649522D01*
X91735368Y-122479255D01*
X91750900Y-122341402D01*
X91755565Y-122300003D01*
X91755565Y-122299996D01*
X91735369Y-122120750D01*
X91735368Y-122120745D01*
X91686606Y-121981392D01*
X91675789Y-121950478D01*
X91665223Y-121933663D01*
X91579815Y-121797737D01*
X91452262Y-121670184D01*
X91299523Y-121574211D01*
X91129254Y-121514631D01*
X91129249Y-121514630D01*
X90950004Y-121494435D01*
X90949996Y-121494435D01*
X90770750Y-121514630D01*
X90770745Y-121514631D01*
X90600476Y-121574211D01*
X90447737Y-121670184D01*
X90320184Y-121797737D01*
X90320182Y-121797740D01*
X90240561Y-121924454D01*
X90188226Y-121970745D01*
X90119172Y-121981392D01*
X90055324Y-121953016D01*
X90016953Y-121894626D01*
X90011568Y-121858715D01*
X89984339Y-107127870D01*
X94949500Y-107127870D01*
X94949501Y-107127876D01*
X94955908Y-107187483D01*
X95006202Y-107322328D01*
X95006206Y-107322335D01*
X95092452Y-107437544D01*
X95092455Y-107437547D01*
X95207664Y-107523793D01*
X95207671Y-107523797D01*
X95342517Y-107574091D01*
X95342516Y-107574091D01*
X95349444Y-107574835D01*
X95402127Y-107580500D01*
X97197872Y-107580499D01*
X97257483Y-107574091D01*
X97392331Y-107523796D01*
X97507546Y-107437546D01*
X97593796Y-107322331D01*
X97644091Y-107187483D01*
X97650500Y-107127873D01*
X97650499Y-105332128D01*
X97644091Y-105272517D01*
X97593796Y-105137669D01*
X97593795Y-105137668D01*
X97593793Y-105137664D01*
X97507547Y-105022455D01*
X97507544Y-105022452D01*
X97392335Y-104936206D01*
X97392328Y-104936202D01*
X97257482Y-104885908D01*
X97257483Y-104885908D01*
X97197883Y-104879501D01*
X97197881Y-104879500D01*
X97197873Y-104879500D01*
X97197864Y-104879500D01*
X95402129Y-104879500D01*
X95402123Y-104879501D01*
X95342516Y-104885908D01*
X95207671Y-104936202D01*
X95207664Y-104936206D01*
X95092455Y-105022452D01*
X95092452Y-105022455D01*
X95006206Y-105137664D01*
X95006202Y-105137671D01*
X94955908Y-105272517D01*
X94949501Y-105332116D01*
X94949501Y-105332123D01*
X94949500Y-105332135D01*
X94949500Y-107127870D01*
X89984339Y-107127870D01*
X89970702Y-99750003D01*
X139244435Y-99750003D01*
X139264630Y-99929249D01*
X139264631Y-99929254D01*
X139324211Y-100099523D01*
X139417341Y-100247737D01*
X139420184Y-100252262D01*
X139547738Y-100379816D01*
X139638080Y-100436582D01*
X139698254Y-100474392D01*
X139700478Y-100475789D01*
X139870739Y-100535366D01*
X139870745Y-100535368D01*
X139870750Y-100535369D01*
X140049996Y-100555565D01*
X140050000Y-100555565D01*
X140050004Y-100555565D01*
X140229249Y-100535369D01*
X140229251Y-100535368D01*
X140229255Y-100535368D01*
X140229258Y-100535366D01*
X140229262Y-100535366D01*
X140406095Y-100473489D01*
X140406846Y-100475637D01*
X140465128Y-100466035D01*
X140493588Y-100474392D01*
X140493905Y-100473489D01*
X140670737Y-100535366D01*
X140670743Y-100535367D01*
X140670745Y-100535368D01*
X140670746Y-100535368D01*
X140670750Y-100535369D01*
X140849996Y-100555565D01*
X140850000Y-100555565D01*
X140850004Y-100555565D01*
X141029249Y-100535369D01*
X141029252Y-100535368D01*
X141029255Y-100535368D01*
X141199522Y-100475789D01*
X141352262Y-100379816D01*
X141479816Y-100252262D01*
X141575789Y-100099522D01*
X141635368Y-99929255D01*
X141655565Y-99750000D01*
X141635368Y-99570745D01*
X141575789Y-99400478D01*
X141479816Y-99247738D01*
X141352262Y-99120184D01*
X141199523Y-99024211D01*
X141029254Y-98964631D01*
X141029249Y-98964630D01*
X140850004Y-98944435D01*
X140849996Y-98944435D01*
X140670750Y-98964630D01*
X140670737Y-98964633D01*
X140493906Y-99026510D01*
X140493155Y-99024364D01*
X140434856Y-99033962D01*
X140406409Y-99025609D01*
X140406094Y-99026510D01*
X140229262Y-98964633D01*
X140229249Y-98964630D01*
X140050004Y-98944435D01*
X140049996Y-98944435D01*
X139870750Y-98964630D01*
X139870745Y-98964631D01*
X139700476Y-99024211D01*
X139547737Y-99120184D01*
X139420184Y-99247737D01*
X139324211Y-99400476D01*
X139264631Y-99570745D01*
X139264630Y-99570750D01*
X139244435Y-99749996D01*
X139244435Y-99750003D01*
X89970702Y-99750003D01*
X89963031Y-95600003D01*
X133494435Y-95600003D01*
X133514630Y-95779249D01*
X133514631Y-95779254D01*
X133574211Y-95949523D01*
X133656080Y-96079815D01*
X133670184Y-96102262D01*
X133797738Y-96229816D01*
X133865973Y-96272691D01*
X133947966Y-96324211D01*
X133950478Y-96325789D01*
X134051840Y-96361257D01*
X134120745Y-96385368D01*
X134120750Y-96385369D01*
X134299996Y-96405565D01*
X134300000Y-96405565D01*
X134300004Y-96405565D01*
X134479249Y-96385369D01*
X134479252Y-96385368D01*
X134479255Y-96385368D01*
X134649522Y-96325789D01*
X134652034Y-96324211D01*
X134734027Y-96272691D01*
X134801264Y-96253690D01*
X134865973Y-96272691D01*
X134950475Y-96325788D01*
X135120745Y-96385368D01*
X135120750Y-96385369D01*
X135299996Y-96405565D01*
X135300000Y-96405565D01*
X135300004Y-96405565D01*
X135479249Y-96385369D01*
X135479252Y-96385368D01*
X135479255Y-96385368D01*
X135649522Y-96325789D01*
X135802262Y-96229816D01*
X135929816Y-96102262D01*
X136025789Y-95949522D01*
X136085368Y-95779255D01*
X136102269Y-95629254D01*
X136105565Y-95600003D01*
X136105565Y-95599996D01*
X136088665Y-95450003D01*
X138544435Y-95450003D01*
X138564630Y-95629249D01*
X138564631Y-95629254D01*
X138624211Y-95799523D01*
X138718462Y-95949522D01*
X138720184Y-95952262D01*
X138847738Y-96079816D01*
X139000478Y-96175789D01*
X139154878Y-96229816D01*
X139170745Y-96235368D01*
X139170750Y-96235369D01*
X139349996Y-96255565D01*
X139350000Y-96255565D01*
X139350004Y-96255565D01*
X139529249Y-96235369D01*
X139529252Y-96235368D01*
X139529255Y-96235368D01*
X139699522Y-96175789D01*
X139852262Y-96079816D01*
X139979816Y-95952262D01*
X140075789Y-95799522D01*
X140135368Y-95629255D01*
X140138664Y-95600003D01*
X140155565Y-95450003D01*
X140155565Y-95449996D01*
X140135369Y-95270750D01*
X140135368Y-95270745D01*
X140075788Y-95100476D01*
X140036582Y-95038080D01*
X139979816Y-94947738D01*
X139852262Y-94820184D01*
X139843426Y-94814632D01*
X139699523Y-94724211D01*
X139529254Y-94664631D01*
X139529249Y-94664630D01*
X139350004Y-94644435D01*
X139349996Y-94644435D01*
X139170750Y-94664630D01*
X139170745Y-94664631D01*
X139000476Y-94724211D01*
X138847737Y-94820184D01*
X138720184Y-94947737D01*
X138624211Y-95100476D01*
X138564631Y-95270745D01*
X138564630Y-95270750D01*
X138544435Y-95449996D01*
X138544435Y-95450003D01*
X136088665Y-95450003D01*
X136085369Y-95420750D01*
X136085368Y-95420745D01*
X136032882Y-95270750D01*
X136025789Y-95250478D01*
X135929816Y-95097738D01*
X135802262Y-94970184D01*
X135799673Y-94968557D01*
X135649523Y-94874211D01*
X135479254Y-94814631D01*
X135479249Y-94814630D01*
X135300004Y-94794435D01*
X135299996Y-94794435D01*
X135120750Y-94814630D01*
X135120737Y-94814633D01*
X134950479Y-94874209D01*
X134865971Y-94927309D01*
X134798734Y-94946309D01*
X134734029Y-94927309D01*
X134649520Y-94874209D01*
X134479262Y-94814633D01*
X134479249Y-94814630D01*
X134300004Y-94794435D01*
X134299996Y-94794435D01*
X134120750Y-94814630D01*
X134120745Y-94814631D01*
X133950476Y-94874211D01*
X133797737Y-94970184D01*
X133670184Y-95097737D01*
X133574211Y-95250476D01*
X133514631Y-95420745D01*
X133514630Y-95420750D01*
X133494435Y-95599996D01*
X133494435Y-95600003D01*
X89963031Y-95600003D01*
X89959519Y-93700005D01*
X135984769Y-93700005D01*
X136003660Y-93927993D01*
X136003662Y-93928005D01*
X136059824Y-94149784D01*
X136151725Y-94359296D01*
X136276855Y-94550823D01*
X136276858Y-94550826D01*
X136431809Y-94719148D01*
X136431812Y-94719150D01*
X136431815Y-94719153D01*
X136535739Y-94800040D01*
X136612350Y-94859669D01*
X136813559Y-94968558D01*
X137029946Y-95042843D01*
X137255609Y-95080500D01*
X137255610Y-95080500D01*
X137484390Y-95080500D01*
X137484391Y-95080500D01*
X137710054Y-95042843D01*
X137926441Y-94968558D01*
X138127650Y-94859669D01*
X138308191Y-94719148D01*
X138463142Y-94550826D01*
X138588274Y-94359297D01*
X138680175Y-94149784D01*
X138736338Y-93928002D01*
X138736339Y-93927993D01*
X138755231Y-93700005D01*
X138755231Y-93699994D01*
X138736339Y-93472006D01*
X138736337Y-93471994D01*
X138680175Y-93250215D01*
X138588274Y-93040703D01*
X138463144Y-92849176D01*
X138411933Y-92793546D01*
X138308191Y-92680852D01*
X138308186Y-92680848D01*
X138308184Y-92680846D01*
X138127654Y-92540334D01*
X138127649Y-92540330D01*
X137926442Y-92431442D01*
X137926437Y-92431440D01*
X137710056Y-92357157D01*
X137559612Y-92332052D01*
X137484391Y-92319500D01*
X137255609Y-92319500D01*
X137199193Y-92328914D01*
X137029943Y-92357157D01*
X136813562Y-92431440D01*
X136813557Y-92431442D01*
X136612350Y-92540330D01*
X136612345Y-92540334D01*
X136431815Y-92680846D01*
X136431812Y-92680849D01*
X136276855Y-92849176D01*
X136151725Y-93040703D01*
X136059824Y-93250215D01*
X136003662Y-93471994D01*
X136003660Y-93472006D01*
X135984769Y-93699994D01*
X135984769Y-93700005D01*
X89959519Y-93700005D01*
X89950228Y-88673652D01*
X89969789Y-88606578D01*
X90022508Y-88560726D01*
X90073650Y-88549426D01*
X100621984Y-88500500D01*
X131339424Y-88500500D01*
X131406463Y-88520185D01*
G37*
%TD.AperFunction*%
%TD*%
M02*
